<mxfile host="65bd71144e">
    <diagram id="JlP8UAecMSSZMG66Xxie" name="Page-1">
        <mxGraphModel dx="1405" dy="563" grid="0" gridSize="10" guides="1" tooltips="1" connect="1" arrows="1" fold="1" page="0" pageScale="1" pageWidth="850" pageHeight="1100" math="0" shadow="0">
            <root>
                <mxCell id="0"/>
                <mxCell id="1" parent="0"/>
                <mxCell id="2" value="&lt;b&gt;User&lt;/b&gt;" style="text;html=1;align=center;verticalAlign=middle;whiteSpace=wrap;rounded=0;" vertex="1" parent="1">
                    <mxGeometry x="-34" y="250" width="60" height="30" as="geometry"/>
                </mxCell>
                <mxCell id="3" value="" style="image;html=1;image=img/lib/clip_art/computers/Laptop_128x128.png" vertex="1" parent="1">
                    <mxGeometry x="-41" y="167" width="80" height="80" as="geometry"/>
                </mxCell>
                <mxCell id="4" value="" style="dashed=0;outlineConnect=0;html=1;align=center;labelPosition=center;verticalLabelPosition=bottom;verticalAlign=top;shape=mxgraph.weblogos.github" vertex="1" parent="1">
                    <mxGeometry x="153" y="171.25" width="71" height="71.5" as="geometry"/>
                </mxCell>
                <mxCell id="5" value="&lt;b&gt;GitHub&lt;/b&gt;" style="text;html=1;align=center;verticalAlign=middle;whiteSpace=wrap;rounded=0;" vertex="1" parent="1">
                    <mxGeometry x="158.5" y="247" width="60" height="30" as="geometry"/>
                </mxCell>
                <mxCell id="6" value="" style="endArrow=classic;html=1;" edge="1" parent="1" source="3" target="4">
                    <mxGeometry width="50" height="50" relative="1" as="geometry">
                        <mxPoint x="39" y="227.75" as="sourcePoint"/>
                        <mxPoint x="89" y="177.75" as="targetPoint"/>
                    </mxGeometry>
                </mxCell>
                <mxCell id="7" value="&lt;b&gt;Branch&lt;/b&gt;: feature/*" style="text;html=1;align=center;verticalAlign=middle;whiteSpace=wrap;rounded=0;" vertex="1" parent="1">
                    <mxGeometry x="59" y="217" width="60" height="30" as="geometry"/>
                </mxCell>
                <mxCell id="8" value="" style="shape=image;verticalLabelPosition=bottom;labelBackgroundColor=default;verticalAlign=top;aspect=fixed;imageAspect=0;image=data:image/png,iVBORw0KGgoAAAANSUhEUgAAAd0AAAEtCAYAAABNr7p3AAAAAXNSR0IArs4c6QAAAARnQU1BAACxjwv8YQUAAAAJcEhZcwAAEnQAABJ0Ad5mH3gAALkESURBVHhe7P1nuGXXed8J/t619j755lC3ckAF5EyCAEmQYA6SSImUKMmirGTL07Lbdtv9jN3zYTxP99jjp8d2O7TH0sgaBVJUYpAo5gACJEECBIiMQuUcbk4n773WOx/2PrcOCgWgkAoocP3wbNx7zz1nh3Pr7P96s1DeqQQCgUAgEHjVMec/EAgEAoFA4NUhiG4gEAgEApeIILqBQCAQCFwigugGAoFAIHCJCKIbCAQCgcAlIohuIBAIBAKXiCC6gUAgEAhcIoLoBgKBQCBwiQiiGwgEAoHAJSKIbiAQCAQCl4gguoFAIBAIXCKC6AYCgUAgcIkIohsIBAKBwCUiiG4gEAgEApeIILqBQCAQCFwigugGAoFAIHCJCKIbCAQCgcAlIohuIBAIBAKXiCC6gUAgEAhcIoLoBgKBQCBwiQiiGwgEAoHAJSKIbiAQCAQCl4gguoFAIBAIXCKC6AYCgUAgcIkIohsIBAKBwCUiiG4gEAgEApeIILqBQCAQCFwigugGAoFAIHCJCKIbCAQCgcAlIohuIBAIBAKXiCC6gUAgEAhcIoLoBgKBQCBwiQiiGwgEAoHAJSKIbiAQCAQCl4gguoFAIBAIXCKC6AYCgUAgcIkIohv4CUKeZzv/qQqct4me/6zn4QL7DAQCP/EI5Z0v5k4SCFzGSC6gF2BNUC2IZF+J8nVpLrjqs+9VQV2+L3/uObj8eaZvPfscxwsEAj+RBNENvIHpF9l+i9bnD0kujjb7YiyYMpQGoTQExSEkLqEmF1yXQLcNnQY05sE1wLez3anmh5J8/z2hDh+vQCBwjiC6gTcwPdHVTFzVgniQFChAVIbBcRhchx3byMZ1OygObqRQnSKqjUOhQlIo4XPxtC6FThPTXqRVP01z9RRLi6dozp6A+bOwcBqSNvg0P/6LdUkHAoE3OkF0A29geqKbu4ClAIUSDK0jHr+C8oYrmdx4JdWJzbSiEhqXSSQikgIiMSmehkQYNagoRQ84j7iESBJiUiJSSq5FZ2WW6aOPMTNzCGaehoWT0F4F1xPg8+m3wAOBwE8KQXQDb0D64rCYTHTjYZjYCluv5dpr3kFhZDvteIjEVjFYut6T4hHjMSIg5pxLWrOYb5R7i1OFBAVjsGLwaUpBFZUO4lageZb5p7/Pyt7vw9JJqC+Ad+dOr6ez2nN55+7uQCDwhieIbuANRE/EcgvXAFEM5UnGb/owo1e9HR2aQgrDeClSNzENNQyknrJ6BMWI4A2kImT/ZQlRis9tU0XFIzicgHpLogaDpWMcznQoupSJVhOa83SnH+PADz4Ps4ehu5rFhjWPJQtZ8lUgEPiJIYhu4A1Ez4R0YItQHiXecQsbr3oPA1tuZakyTN1komwxiFpQQdThRPGSGccFoIzJw7Ga/afZ7hMDsYVEPV1VjDcU1RJjaIuSmASAUhpRwFNO67Rn9nPiqW/TfvoeWD0DaetcrNmk4KPgZg4EfkIIoht446CSZSTHRRjbxeh172Ldte+BgS0klKgbjwoYdRgVIgzgUElw3mO9g9RhXEoJj6on6bRBHNYYxFo0ikEMXgSxEV5jIimhxCQieJO5ig0W1GO9YnFUOvMsHH2Q4498CY7/GDq51SuZ6zpUFgUCPxkE0Q28cVCBUgXWX8uud/0apQ03sGCGWBRDGUMBpawKkuJEQB2iXfANSo15ZPEEx48+QWPhLNJto50OJB0Qd07M4zLENWoj42zatJNocAvRwBY68RCJRDSsJxaTRZUlE2DRCFFPSTuUFo9w/AefZf6pu6F1Nsuk1gtYub0csEAg8IYiiG7gDUIEtkS05+1cf9evszy6k5OmxDoPxliaVkido+qVkoBqF9teplA/wYn932fpwA9h5gh062tltufqeXuJTnksFpvV9MYWKsOw/SZ2XfcuihO7ceUpOqZIRwSPEKtBsCSiKB7nGmzqznDm/s9y5od/Ae02aHrO3dyL9Qp5jW/4eAYCbySC6AYuczTLNI5HiK57P7tu+xjd0Z3UbQGrnqJECMKyUQreM+BaRM0zLJ94nFN7vw9nnoTVGeg2M5ETzouvXkj4TGb5qmSviYpQG0WmrmBo+w1M7boFX9tOOxqhaUp0DJRVKZDi1ZOaDqXVU+hT93Hie5+G1dO5vufm7drhL3TsQCBwORNEN3CZI2AHKdzwYXbc+cu0B9ZTNwUGibLkJgQjnoJrUGjNs3D0YU49+mU4/RQ0l7NSnn6NXWv3eDH02j8CEoFYiCOY2Mr4ze9lYOdbkdp2Vk0ZT8SoOlBlUQQVZV2yzIGH/orkvr+EldP5cfNsLs2/BtENBN5QWOLRf3X+g4HA5YGFQo3CFXew9a5fIx3ahBHPgBM6xKxYi4pj0Ncpzj7Gkfs+w9wP/gqmn4ZOPbdYbeZGfkZY9WKErudq9rn7Obd6XRcaizSPPc3S6QOUKpaJ6hCGIgkRTgxGsszotvEMr9uI2ojOzCHoNnLRPe8wgUDgDUMQ3cBlikBUwm65kWvf//dZHdmJiKXiIxyWZSMIykRnGX/qIZ6854/p7v0utJdzN7LmLSH7BbYnpP2P9QK8F1K/vueJzxKuILNY0zasTFM/tY+4EjE0sA5varSMIRIoiAFV4qjE2MQmZleXYf4IpHkHK+l3MwcCgTcKQXQDlwl9liUCpgTjO9j9jk/SWH8riYmwIrSMoSkRRe8YbE3TPfRdDt77x3Di8awvck/MejHZZ5mVF7JyexODnovefs5TSXXQqbN69giJRoyMbcZEZTCKEUNBi9nMhbjG6NgUC3MnYeUM+PMXA4FA4I1CEN3AZULfqDyxUBln/KafpnrN+1mNahTU403MnIXEKVvaSyw+/XWOf+e/w9x+cC7bRU/MJP9fr7ZXBExu/ZKLcu+4al+6CCrQbtKePUpDEqrDk8TxAF0TgVEc4LCY8hATUxPMn9yfTTC66LhyIBC4nAiiG7h80Fw0oypyxZvYePsvsVrZgJDivNA1lhjPhrROevi7HPnO78Py8T4rud9lK3mZUQRRBHEly0I2hUxkNX+O11yUX6Lo9hYLSZPk7AG6PmVy3R6WilVORV3GNGvRkRqLVkYoGUf9xJNZfXAgEHjDEUQ3cHkgeYKRWKhNMfW2v0O08UZUIhRlRoQKnlHXJJrby95v/y7MHMjFs5cFbLLyIvVgIigPwrbrGbv2vex8y8fZcNMHGdh6DWm5SiftQrsO2s3E91nx1Z4IP+sX59E7dpZklSycpjBQo7puO8ZUGVSwCC0xtCkyVa0wffYgzJ8KgxACgTcgQXQDlweST/spDTP+5o8xevX7SMwA3irGxBgRxnyb4uw+nvrm76EnHs1iqiLPDMkan1m3Q9uYeOvHuOotv0J599tojO2kPbQNM3IFY9tvYHzTFaxaIW2uQrfbJ7LnJ1q9kOieh+uwsjDD4NgGaqNbaRLREENXoArYyGAjoX7kkbxHcyAQeCMRRDdw+SAW1u1m5zs+SVpdj9qYpjjEW2oklFunOHD/n5I+fS+kyTlB7Hcpi0B1nK13/Cobb/gZVqrrqdsySIzTIm1TpF6oYGtTTGy8jqktu5nptmBlOSsHekY284sUXMgyp7st6s1lRjZdRVoepmkMRfXEKiQCcbnI0twpmD/8HIldgUDgciWIbuDyISpTvOadrNv5NpqFAZwYUEfkhUGWmdv3LZYf+Dx0FvsEMe9YBVlcNi5gt9/KFW/+ODMDG2nZCIdQVMEqtFDaCF1boFmoYAc2smXTDaSFEq3laUha55pYvBTEgII251l2nrFNe8CWKIhBREiMARMzEBlWD/woF/ogvIHAG4UguoHLBAMjG9n9tl/ED++kYSNShEiUAQzSPcHhez6d9U/2vWYXPUu3TyBLA+y49UP4zW/mZFylhKGogkPwGMQpFYUK4KRAV8oUbZXa+h3YsSnaqvhGHVznpcVcRbJ6Xu/QpWmGNu2iWpsAUya1WdmTEDEYF5md2Q/LpzM3+Zp1HQgELmdeqAAxELh0SK9pxdoD/b+Eie0UJ3ayaosoBkVxqmja4dSxJ+H0PnA9K1T6LMTcJSwGKiOMrN9NaioMeyH24MSjJMTapigdIuMoKgx4xYijYYV2cYjRXXdx0/v+Cevf9ndgajcUq2D6P0K94z6POKrPNu+gvcjivm9Rbs8i3tMVaANKDJUJNl35liyrWsi6bz3ffgOBwGVBEN3A65BcXPqbV5gS4xuupBVV8WKJ1RCTuYMj12Dxse9Cp5F3hdJ8Qk/OWqKxgClg4hpgKXrN06IMxbRNafYgI+0TGF2liaNNiqFDJ0ppWWUlKjNd28zkLR/nug//c+xVH4ShDWBLeTvJixBdOJeM5VKWn7gPnT+JJcGpp6OQCogVhtddBdWJrK/zRe03EAi83gmiG3j9cH7ocq3hv0B5kPEt16Cmgmpm93XweN/BNY/Dyb3gkmeK7YUQULGkPS0HCih059n3o8/w8Of/DdHxH1Hr1PGJIVFLIgZri3gVEm9YjkZJp27luvf9I274yL+ELbdAXM01sZdodTF4aC9z8tgjRN1lCt5TUMUqGLGUR3dg1l2RlTcFwQ0E3hAE0Q28/ljTrFx0RWBoHbWJrSQSg3q8KqhjMmly5uD3oLmQNbJ4Qb1TUiOICF4zifQ4iuKouGU4+WP2fe33mL3/z5msH6HqOyRecE6JNCImBpS2RKyW1uG33MFVH/xHDN72czC8NWtP2etw1R9LfhZ5CZR31Of2UkgWQR2CYnC0TMRqeYDRqZ0g2TEDgcDlTxDdwOuIXj9k+gQXEIud3EY3qtGW3HuMoeQ9cWOWxSfuA9d+YResAggiFovkUWHoCMRqSIizdpFnn2b2/k/xyLf/Ayv7v8JUY5Zq4hGj+CjF56fpjWMpKlFfdw3b3vZ32fb+fwhXvQeqk33u5ueiZ8V7Oif2sbp0hoLzFD1YlLY1zBUKlIfWQaHc95pAIHA5E0Q38DolFxgVkJiNW3aCLSKq1NXRwRPjSVdOwMwJIAXc87RrFPBgNRNa8l0jimAQJHP3qoB0obsA+77H/Bf/E9Pf/yNKs48z6JcoxG1UlFQ8ahweT+pjFqJJ2PlOdv/UP2Lizl+B8V0Ql/MEKPMcApyfSavBzKnDWO0CkBhFFMoqFAbXZZ2zTE+kA4HA5UwQ3cDrkJ64SJZxLAXKwxtpSkSkYPOujM4lrJw6BEm9z3J8flQUJ1ncNcEj4kkEUjGZN1g0+1go4FJozbL84Od54iv/lu4TX2Rs+RT4Jg2FdgKaeiJRrLWoraDxFFPXf5zrP/ovYM9dUBw4N0QBe97Z5CRd6vOnsNolMoZEBFGDSQ2V4UlMdeQ5RDsQCFxuBNENvH54hne4909TIKqgtU20JCbCUDQRBYSCT1maOwM+BTUvEEPNUJQ0T3bqSbRBQA2xynkfiSziS1KH00+x754/4Udf+a8MnPoBU+3TRC4lUaGOp2EhFYtay3Q8RH3yeq58xycZvOGuzD38XOcmgCq2tYjTLh5PBwMqeG9Ii1UoD51r8BEIBC5rwic58PpEe/5fC4USvjRO08SogBHBiACKc2nuFj5/BxdCAUGRzFubU8jmDZ17CmSuajz4GDTKkrSWTsG+u3nqK/+Zxo+/wNTycSYSx4BTojQl1i4tq0TWk5oCychOtt32c7D+mjwD+TmaaYiSNmeRpEkqKZFmlq6IpROVsbXhILqBwBuE8EkOvE7J1U8AW4RCDScGNYaC5oKrKYlL8ljucwla75tMcHubILnxKehaoU+v3CdvYKEur/tN881nnaimD3D8nj/nwS//JzoHv8lo/Rhj6RIRXZY0pkOEiNCOKjRGdlO98q1g4+cWXTw057FulQhH0YPPT7xgiwxWh8A8h2s6EAhcVgTRDbwOyOOxvbCs9hKP8sHypkA5LlDFkErPKvV0ki60G8/tur0ACrkl2RNapSk+G5urucXcf/w1Eebcx8UrdObh6Hc49NV/zemH/pJ45QwF5xjyQleFOQxNLMvRAFumrgJTzjOaz6NnWXe6mLRDAUMRQ5L/Uo2lXB3MG2T06J1bIBC43AiiG3id0Cci/U0xABGDAEazrF4HiCpRzxp90fTkNlO8uHecZzznPGHTLM4K+UB7AVwE9WVmHvgbHr3709TnTlFyCcOqDHuoqGNOhWJ5IK+1Nc9tkScpRgVVRTV7jmaO8NAcIxB4AxFEN/A64HzLra//smreZEowWCL1RJoJcrzWhKLvpS+IXzMuszIh0LXa4PO/Xojeq/M+0VEJRjYyvm4XtjqEiFLAUVIoeceE76IuzTtlPYfgAkiEOsV6wAhiPGI8is9EuHdY6DuHQCBwuRFEN/A64TmERAV8SuJSUvW9fGIUwRqLjV5kX2LNhBzRPBmrp/H9x7/AuYjPNhVQm3WeGl6Puf69XPXBf8rkrT+HlsdYtCktkyImG2owTJOZmUOgzfy1F/rICRTLFApVRAQVj8cBDtWERrt5AcG+wDkGAoHXPRe6AwQCrzE9QfGZIPkO2q2TuhQHNERpW4+Likhczt22PZf085FZyBkeVVAvxF6QZ/Rslmfva+0hC8Vh2Hg9U+/6da5+3+8g625lJRoiNYbYWjQydARAqbWXWTrxJPh2fo4XWhwIUqqRxDEpgvFCAUVVMd7TbjfyGb6BQOByJ4hu4HVAv8idZ3GqB9ek2Jmn7FNEDRjwFrpiccViX9enFyKziFU8atIs/ypPqjqXL9wTRpuVCmmvnaOFqAyD6+CG97Dzg7/N4LUfYrG0CWyRATxloILQRkhIKbg67aMP0jr0QNZeEr2AxZqdg62N4OIBhAhVQ5bKZYhU6azOg6bnvyoQCFyGXMydKhC4BPQs1Vx0JU9YwkFSx9VPURKX1+iC8Z5IYGBwLO9a9UJW7vloLsE9x7Jm34lmbSAlyZOeFEwRKutg950U3/X32Pyu36S+/ibqdojIQ8OmdI1DVOh2IwZaXUZWj9E+fi977/0MrJw+N4zhQucpFqmMghQBcOKyM1OL67ShuXyepdv3PgUCgcuKILqB1xH97td8uhAOfIvW8ilEulnOsSpFdQyaiJH1O/JSnNwV/ULkcVXJRx6AZCHefktbi6CF7PiRgfEtjL3zl7n2Q/+E7Td+lNXKFtpSouodsTgSo7QjQ1c8w2mDqcV9zN73KY58/j/A9IFsYH2vBvhCMV0TURuZwpgCKR7FZc0xELqtebR9vugSRDcQuEy5wB0gELjU9AvIueSmNctQPaemj+O1m+mWCqmPWKWIG9gM5bGsp1Rmuj4P+XHUINoTXSXKH/d9T8FE2X533cWen/5nbLrhY9RLm2h5y4hPqaC0sKgWsN5SSTyDnXnqx77DQ3f/N+Z+9AVozGfNNJTnP7FilbGprTiJ8KJ4cYhaFGVp6RisLr/wnOBAIHBZEEQ38DrB9P1z7FNPb8B72mePUeq2cQiigvWWRArYka1EV74ZTJxZvOe3S7ygVgmKpYjP5uqSlx2JyfZTGEJ2vIkdP/WPueqn/jnNjTczG1dQsRScIIng1eJE6UhCrbuIP/EDnvrGf+bYl/4jbt/3wXX75uo+lzs4G+ggE1sZmNgFEhGrUMiv3bs2xeWz0Fk9T3QlfHQDgcuU8MkNvM6RTHAWTqCrs8Te4UmJ1KAY0niIq29+bzYUgHww/AsQqcmdvVkdrMeSSol6PADju9h0x8e5/t2/TW3ne1iprmfBFPFi6YqnY4RUoZo6at0WLO1j9pG/4uBX/hPpo1/N47dJHhteM9fPP4UcBSMMb7+edmUKJ1k5ktUoG4KQrjJ76hCkreduqhEIBC4rgugGLgMUGrNMn3yCIk06xoPJrFSkSDq0B9ZdcZH9iXMrUjO5RRyxKG07QPWKO7niZ/4ptVs/QXtiD8tRiYQCZSIsBi+WaTEgjnJ7ltbh73Hyr/8dc9/5Q5g7AL6Znav0LPXn6pbVE2EBO4DfuItGqUwLj6ogGiHiKLZmSc4cDpnLgcAbiCC6gdc/qpB0WTzzNLFfRoCOpIBSAjrxENUtN2aDEV4I78C5rN0iHi+Opk1oRwWmtt2GTN3ITG2SxahEYiO6AqJC5JVR12VjdwWzeoAjP/pTTn7zv8DRB6C1mAmj5slSkAtrr9yon7y5BpK5w9ftYWzdTpqSJXdlowdTRDu0Zg5BfSYfvnD+fgKBwOVIEN3A5YEq6en90Jil5DMr14khMYI3BXZf93YY25hnMvfFhPsRD50GzeVZjM+sxwSPoQtW8bZKm2JWn0uRSGMG1VOgQ9nNEy0/jR7+Jke/+n/SuP8vMuuWbi6Kmn2cVPMtn1T0rPPIfxagMMi2W95HobKJCItKhBehq46os8LSkYehs3KemAcCgcuZILqBywQHiyeY3Xc/w9026oWuCKkoKpZkcCPrbngXFAfOtWo8P6kKoL1E/eiDlFtLWDWsitIWJTHCihXqGAoilIGCKpFTxppLxKd/zFP3/B5HvvRvYd+9mRj2hHBtytGFhLHvsd7zRLNGG1uvp7jjdtpUiV2EoHgLsSaY6cOsPHlvlv2clzYFAoHLnwvclQKB1yMeOnWmn7oX25mmnU8YKvgUMCyaISauegfRxiuz2X+SPtslK4DrcOaJu4kWniJyXSbSIqO+Qk3KVIxhAEdNlFi7lNwqE+2TnHrw8zz+2f+Ie+w+WG1kQqqZe/viya1vzcRXRvdw67t+HVedoB1FGDKxTaVLubvIzL5vQWsud1tfyE0dCAQuRyzx6L86/8FA4PVHXtbjEwbWb6U4vAklxgiIiUixmLiILRkap45CZ7kvkalPsEQhaXO2Oc/E+ATl0jgNG3FSYNV6Ik2o+Tblzknqh+7lqXs+RfOpb0DzDGiSlwD5vj7KFyOGfS5lBCpjDL3po1SueDsdW8JZqIsnVsOQb2Jmn+LY9z+V1fmuxYVD9nIg8EYgiG7gMkEyyzJxLC7NM77xKmx5gq6NsGKwInixlAdHGKyVWDp9JKtvvZAoqofVeebmjuL9KiOmxaRvsK67yNDyHMn0kxx55IvM3v8F9Ow+6LbyEqDzd8SF9/8s+kS3OIDdcycbb/8YC+UpugKRMSyKoeJhqDnNgQc/S3r4R0AKxOe6WQUCgcueILqBywyFdouoUGVo/VWsFisUMHkbR6FAicLgepK0S3vmRFbjSt5+sb9JhU9gZYbmsUeYO/ggS9P7qR99hJOPf5O5h79EcuIpaK6A830Gba/ZRb49i/7HJE+s6n0vEJdhy03sfMffpT2yhbIpk9qUxAgNIoaTNnryYaa/92fQXj73OgiiGwi8QQiiG7iMyGtg0w6N+iKVqW0MD27GSYpFsBrhsSSmxOjkJhrdJsnMoXNx0d4Ag56QqYc0gfYyfu4k3Zkj6PJp6DbBJdnv115z/nYh+gXSZ5uYrEVloQwbruHKd/06TN3AvI0pkU1Maoij7D0TjWmevvv3YHo/aDb0IFi5gcAbiyC6gcuIPO/PeEhaLCdNNkztJClVaRuDQWgboWEsGpUZGFnPSrqCLs9n4ppNNng2arL4b6/0p9eEuWdoyoVKfy4GzWKyhRJccQtX3PWbRFM3sxIN0BSPQ6h6Q+SVieY0y099mdUnvgad+vk7CgQCbxCC6AYuE3plM7ml6j2szNJKHOs372a1VEERvBhKAl0McXGAbVNXoaUqjdXpvIdxr6Y2R3hmyc+a0PZ+37OMX4zommyzMZRGYM8d7Lnr75KOXU8SDbBiUiKBtodaYii3lzjz+FeY/+6fQn3+wglggUDgDUEQ3cDliRpIHZ2lszRJGR/fRDcexIuh5oVIHKkFEw9T23Alw+ummG/WobkIvr/cpz8+m4vlmrj3PeeiyfcRFWFkK+tu/xjr7/hFFoZ2E5simo1XoEBEVYWxpEvr4D1Mf/czsHIqE9y1Qr7nO26/y/n5nvcG4RlDI34CrjfwhiWIbuDyRMjcvkmHzpmDVEYmKExs5mQUA0oZg5EYFxkSWyAZ2cDYhl0si6JzM+DaWR2v2GcLrOTJU880ebOtv/ZXeiJtMjeyaLa/4iBsvYU3f/gfEV/xTlqVKeo2JhZFVInUEKtQ1TaVhafZe/cfoHN7gbwk6aJEpbdY6D+f/m9Mfq55qdXlRu/Szv8TPPObQOCyI4hu4DKl706sbVbOnGaoUmbj6DirpkTLRMRY1Keg0JQSSWWUzeuvoDK5jbYt4tpNSNt5aY7tS7YiFy2bZyqff/PvZTBzrpTIRFAago3Xsv72j7H+tk+QjuyhQxEBIgN1lIIK5RTipEV57nEe+vp/Rc8+Cq6VLwKkbxHwAuLSE92euNJntWsuuv3nfVkh565B5dzCht5Qi8vyogIBhPLOkBoZuAzpiZMF0wEtwOAmJm//CJM3fIT5yiSpCoNOMRpRt5aWTah4x0inTak+R332MKeO/Jju0lG6Mwcy13OaD51XzTOHe/FVkydcCZjcorUliCswuhm7YRfrtl5DbWoPZmALbTuAaDYOODFKaiBVZTBxVJoN6sce5Pj9fwJnHs+OuSayF+tG7X9Oz5rNX699vz+/VOp1yfkLjP6VQq+L14WuofecC/0uEHh9EkQ3cJnSJ7qSgI/AGKiMwzV3cfXtH6c9tIPURKQqoEViTfHiiMRS8B7vOkiyQrm7RGvxBKdOHqCxcIZKa4lWawFtL2WNMRKfWbJxGcoDUB7ElgcZGN3A5PrtRONX4GsbaBXKdOOIoo/pOog0xYuwGkcYUWquQ7U+y+JjX2f6R38Ni0eyhDB6pUnnX9sF6ImrmGyUoS1kCVsSZVaud9k+fZKVPTl3rnzpdcv5iwyT/S3Jr9HY/BpNnyXvIXXgutk197LPn+t9CwReJwTRDbwByC0lzW/W5Spsu4Or7vgl0qldnI0HKGpMxYNRwRpYjBwLOLY4T8kLkoJ1CUgX6+p0ust0khWk08J6T6IG4gpxcYBCuYZGJdQUwMSkFHASE6lFjMeLoYXS1cy5bLEUfJO4fprFvd/g7A++AKunMkHUOHdR92cs94uuZuIjAlEJimWojkJxCDu0jql1m6mMjGOKRVQMptuhXl9mcWGaxszJrJVkcxm6DUhamUghrxMR7rNuhdx1bKBYhVINqsNQHWVkYjODo+sp18YQGyHqaTVWWV45y8L8aViYhuYstBeh28nEuLfQeEb/7fw91dxbEe58gdeAILqBNxB9SUO2AlN72HzrBxjYcRvNynpatkIsBsWwaiBWz6gXnELqFQGsEQoYkBQlxXmPiJJiaIrFY7EYspYXDu3d2NVg1KIYUuNIJcXgKfqEWn2W7pnHOfDIV+HkY1Bfyhp2iM/jxr3zzxcP/WJkDRSqMLSewc3XMLXlWqLhTdiBcaRQJY2rqCkgIqSaCU2sKd51aHcaRPU6reWTSP00J574ASwch8ZSZgXnM4kvPb3ry69VgCiG8jiMb2f8yjdTHFlPdXiKqDyGxrVsVrKN8ZpbuSjWtSFtkLQWWVk5TWf1LKsn9uGO7IXlmTxOnuahgr7rVILoBl4zgugG3mBoNg9XXNZEozyF3XEj2659B8X1N9KpjLMUlWhIxKgKJQ8pihdFRVAssWbj5FFIFRQFUWIMqpAAHsWLpygOgyHSiKZkiT/Ge6xrgFsgXjnGmUe/Sf3J70P9DPhuJrSq2Y2/X2DXvtfMXVwYgImtDO66lfU77qA0dgXtuEoaF0kwNERJEQpYDEKsICiFPO0oVU8Bh1WHpE2SxllWjj3MzNP34E/sh9ZCXj71Wrhlcxe5LUBlhIHtNzK6680Mb70JLU/RNAWciUiJ1rQ5RhBVcB7B4kRwAlZShBSjXcqdFp0zBzi977vUD94HK2cgaecu6LwWS10Q3cBrRhDdwBsIybtO9bKQ805SIlAco7TjNrZf/z7MxmvQ4ihIiRRDarqoFTCWjhdUhYI3WahVQI3SlcwS7ilAitLGU0GJAOM9Ip5YEyqdNu2ZQxw5cA/JU/fA8jHwHXCFXGgv1Pyi9zHMhWhwMwPXvIPJm95LZWAzvlBl1hRIEGKflR4VyDzTBsEjJJJ1oO7HSUIZQA2JCMN0qbWnmd1/L0cf/Fs4vb8vkesSuZxFsussjBBtvY6rb7qLwvZbmSmtZ9EUmXSg6hEMopnLuYEnEQcoRiSbLoWuzWASDAZDIuC0zbBbhJmnOPrIt2jvfQDqp7OSLJUsuy2IbuA1Iohu4I2D5paMJHkJUG7xZv5EkMyFabfdwNQVb2Zkcjfx+HrahTJtidC4xKoKxislZ0EFEUWMJzIOA4hGdDF0JbOAS+qJfQdxLdLGMvWZwyyf+DHtx++BpRnQZqaMSl7/K+cEtv+Tp3lfaVuCDdew/V2/zvDmW6hLjZgiTVGWjRALFNSTKpTPi1c68dlhkEw+RfGkFNXj1dKWGIMQ4ajpKtHMEzx+76fh0IPQrj9HhvDLoW8hQW/f+d+iPMnwbT/Pzls/Qqc6TsMYOlg6YvGaeRQG1eFQEiBSk4mwkP9NAIRGvlQoqSAqOKeUNPNymEiJugucffhrrHz/c7B8FOiCzzwXzzzP/vcyEHj1CKIbeOOwJkL5P+lnaFL+g5E8E3kQhqdgchsTm3biquOs2/IW5mpTFDEUnUFFSMUjklDSFgXfBS+oc0i3Tbu9wMLiSeLGDKvTR2hMH4PF6cxt65qZG1P7T+Q5bu695xRr2Cvfxpbbfpbi1FXU4xEKXiikER5DxyiJ6SAiRF6IVInEIT7F5i5ig6ASk2JJJKINtMVTkex3Ti0pDusTRrSLLJ3izGNfZ+6Jr2fxXu0tUl6J20JvHza37hUow9gmJm//RdZf+X4WamOsGoi8UPYmf4c8C0YZUcGLYvFZtrlPKfqUCEGlQNtYVk2EFxD1CELJC5E6nDiMsaTioLOIPfoIJx78Iu7I/fnkqZ5L/bx/M4HAq0wQ3cBPBj3R7Vk4Qt6NKspaNg5uYP07/weiPe+kYAqYvPGEM45Sd5HTB+9GF45gOm2WFmegsYx2m1BfyKzEtJvFR/NkpjWr8RnW6HNhYWAMdr2dHW/7ZRjcjDNFjI1BFVVDQkQiKR1pMtZpMrC6TLs+jaaLuO4q3XYHxRNHJarlIZK4ihYHKQ5uplkYZKVgSUSoqhCrkqYeayxeEgZbC8wcupfZ7/wRzPcL7ytFbsWbMkxeybZ3fpLy1jvw8RArJhdWBauKRyliSLSN7y7jWvNU6wuU2nWW63PE3hFhKZeH6JRq1IsD1AYnkcIQLVvFEWHEo+KxahCjLBvPsPfU5g+y91u/R3L4fujW84VAr+fmJXKtB37iCaIb+MliTXx7D2TiSnmMkff/Y8zVH2IoKuKNIMaS4BhePssTn/vXcOrBrP5V03zrDU/oiWvvBt5zX17kR6s4TPG2jzL2ll+iVVrPmFoKGJYVmsbgrQHtMpSsUmif4fhj30EPPEiychK6K9k5+Xx2r+QJSnEJBsYY3nYj2697D52BnayWh7J9IRhniIwlEUV9l0qyTGvvVzj5jd+F+uz5Z/gy6HXsKsHUdVz9vt/Cb3gT81GVGI/xBiNZLLZDQpkuxaRFeuwRjj/6dVg6lA2B6CRZXFxdnvEdQVyEcg3GtrLzundT23Ar9do483GEEFFTIULpSibUFkdn6TCnv/Lv8UcfgKQXyz7fIxEIvHqENpCBnyxyjT2HZrHWqExh51swE1diTURilZaBBjDsHItnHsPPPJXdqLXXiCF/fU9khTxuqxdwXz4HNoKdb2Hr23+F5sB2qmqIUOrWsAIMe2U8WWK4cYzl/d/hxAOfwz3+Nfz8UWgtQ9KANM1GF7puZnGnHeg0oT5He/oQZ08+RWd5msFCTK04SGJLzMdKIo6KjyhqhJgClaEJVlqLuOlDubX7SiCZQJYn2XLn3yHa8U4aUQ0vgiHF43EoVXUMt5cwZx7h8MOfY/n+v4ITj8DyKWivZBnIaSdfYHSycqCknr0HCydZOPEE8wtH6XYXmBwewhVKzKsgaiiIyeLdRojiYWqVMitnD0B7ue/v+AJ/p0DgFSKIbuAnkJ7y5psYsFWinbdTnNyNNQbwWCAVQ9Eog7rM4tFHsiYTa/HJ8/fVf4i+PsjP/EWe3GUy9/bETra88+8i664hIqaAZ9XAjAB4NrRncCce4OB9n2blx1+Ds/syQVWXHzZvnJE/PxP/fFPApVCfpTO7j8UzBxgqRgxWRyCusiKGxHUp5osFF5UYG5hgbuE4rMxlAtefAX6hy3lOeu+tQHGAqZvfy4brP8RKcSJr4iGeEj77T1qUlw4y9/iXOXnPp+Dg96Exmx+/Pxwg5xY5cO4a1UNnFT93mM7pvSy1l5moVSkVarQ1omUjjBHK3lN2SmlghE4kdM7uzxqG+PwaX9wFBgIviSC6gQBAVCbe9RbK667MGmSoEqsBMTQsDBUNc9NHYeE00M4F4CXepHtiWRxg2zt/Hd35VpbsQF5na0gkYsx7xrsLNA99h4P3/jHu2GO5K9n1xaV7ApRvvXXAM8h/57pQX2LhxF7qySobhtczFFcRm1nl3mStMqkOMrFhI/NH90FrLnef97VfvGh6faqLMHUlO975qzSrOyiYiNRAW1IEqKVtqvOHefq7f0bzob+BldN9Ytt7j88/dv9jfV9VodtCp/ezePYEY0OjVGtjFKIiqhECdK3ibYGpoTFS06J5+lg+9OL8YwQCrw5BdAMBctHdfTvldXsoSYTxnlQMTTHE1uAiz2ChwMqhJ6DbBOKXkHyTu7I1hsjC1E72vOM3OV2ZwlKgoIY2EGEYTFZYfPKrnLr792HxWNZBqt/qe9FIZhF2myRn9jEzd5JtW3exGI/QiooYr0RiOGtiqpUBqlXLyoFHM9f1hXTvhehZxpVhtt/5C8Rb3kpTqogYUvF0xdMBanPH2Pul/wKHvgvdpdyCfy4vwfn0P6f3vWaW6+ocSyf3MTI8QnlgMz4qM20dCxaGfYGCKVIbHmbmyOOZVf+MEqJA4NUjiG4ggEJUpbT7DkqTe5C18XGGlpisREeKDJUHUaM0p/flDSV4CWpkgCIMTrHlXb+GmdpDxxQwGDyGWFNGu6skx37A8e/+ESwdW/PwZm7jF3s8zp1jT1e8g5XTJKUKYxv2cCqqUjAQiTIgQhGhVi0xfWIvrExnYm1erChlTT6Gr7uLkZt/hoXyOrBZYlqCUlXD2OIJTtz/53SPfDeLz2oe/30pl/gMy9dk4t2ts7gwx/DkRuLhSeqmwKD3FNSyYiJcoUzBd2gc35vFiNfe6EDg1aOXbhkI/OTS0ySfz27NJ/gYI5QVbKqoj0lK65m4+cOw+44sO7gvvHhx5CZjZDAbb2R0412smiLiU2J1eAuxT2H+afZ/91Mwfxj8hay58x66wMPn6IvHSm5pI5B2mH34y6wevJ8d3QZDCi0gUQFfIC2uZ91Vd0Chdm6u7RrnN5foo//h6jhjV95BUlqP94LzDvGa9al2C5x89IvUn/hGXr6T11A/137XeL43vXeOeczdeZg9yKHHv0paP8kQCRhBjcOYlHZcZnLrTcj4pvy1vf0+7xsaCLwsgugGAgBkLRS9gveK8+AUSnhKKJH3JCIk5fXc+M7fgC23ZbN0XywiEFdYt/UWVktDLEkMxFg1FJ2j1G1w6olvwvT+fApRLwv6ORCbbWvC2NtMVn88tAHW7YTJPVAZzfUkj5euTHPygc8jy0co4vAidEVoi5BIhYntN8HQZDa5Scnjuz1Nep5zAhCDndpFZWIPDVNaOzcnlpJ36OmnWH7iG5As5f2fe2L6HPvtlUKtbfmgCGOhNI6M74HJK2FoKrtuTD7+r43f933OPvldBtMWsYJiKIkjxRAPb2bdzlvAlsPtMHBJCO7lQEAEohrxztspTOzOZwhlZD1+QUxKF09qCmhhgE3r1jE9NwONXrLRRcZ3jcWs382ON32Mk7V1FAzEPiZGqboO0cIBjn/vj6A5l+tPXor0XGT9EPPnShZrFgNRAXbezPXv/jWmbv4pxq+6k6hUoz57LMvY7WX+dpqUJqeoTuyiYQt0UByGklriWFmcP4w/2yshyq3BF0oiEyAqsf3mj1DecCvNQpkuEIkQIdTcIifu+xTp8YfA9dz0L8CaBRzlP5uss1htii13/ip73vYrbLjmLsZ2XsXM7Jls1J/XLFNcExKnbNp2A2lhjLYRHMq0F4Y1Yv1gxMnHvtfXqep5ri0QeJmEpV0gkFtXWf6OYoxgRTBi1j4iViNEY5YQFm2F5Ykr2XXXrzJ528/C8EaIKlk8Etu39d28e0acxJjhrZihdTibjQUULKqecrLA6ce/Batn8oQi/+Lu/6JgXTaPdvub2fOO36C78XaWRq+lPno1W2/4OAO77srEivz0usucfuxuZPk4FeeJENoIXpW2rREPb87G6p07SJ9FfT69BCiBUo3y2DZSWyUbFeGIgCIp5cZR2scfyWf7Xiy9Y+bvi7Ewso3JO36NoWt+mtXRPcyO7qaz+a3sescnoTaVrZgUSFI4u5fpp39AOWmDOhJjKImlHpVYKg3DyLr8MC/gWQgEXiZBdAMByG+0HmM0F1+DQXJpURRBMIw7oegsS7aGbLqRzXf+Blve9zvEV78bhtdDoQSRyU3kngj1XKIR2DIDE9tpSDmfStQbT+Bp1c+ycORBSPoylV8MEkOxRvmqt3H9+38HN3kL9dIELVtgOSoxXxln3VVvz1ypmounKpw9yJmD91NIutScEJEgxpNogampnVmf6nMHybe8JKh3jT2xVZtto+vwQ+tITIRFKIhgUFLX4PjTP4Sls7n1fJG3oGd0/CrB2BVMvec32HDLTzFfG2U+MjREWJBBahtvZmjrVZkw92LYrWXOPHY3hdVZKs5TVMOwerwYVorDRBNb8uNc5PkEAi+R8C8sEKBn4YCKpyuObF4PueCmiDpQpeShrFDSmCYD7C9sZGnPe7n6Q/+Q63/mHzF+28/C5pthfBvUJqA0BOVBKOdfq2MUR7eQ2iKqilGDUY8lpZQsQHMm91T3i25fMtSahZm7s73mE4qAYhVz1TvZdecnSYavpmGK9JzCsSptm+KLeWwU8klMAt06c4d/jLaWseqp0iERxRFja5MwOAlxOXNZR0WIyhCV8u+L+fd9P8dFKiNTROUaqRGssuayN26V2b0/yDpoqeQlVPnpnC/gzyBfIGgMw1u44s5fYGj3ncxVBliMFFWlqIrVCGcNxvSu0YBxWdvO5UMkC4cpOk8lNRRdduB2YZja5PZs0dI3LDAQeDUIvZcDAQMUxxj5wP9E6foPIqZAnBZIxFOVLvPzB5kqRLjiOhJbwRtD2xiaWFYAQ5cpbVPxXZymVH0bmks0lxfQTgurDo+QksU6a5PX06iOk0hEoill8VR8B3vwyzz5hf8dmr1m/DabARsNQFzNdCBtZrHHtRCygGlDVCba9R6uev9vsVrbiZUCLZslQHXUUVNlsHOG6Qc+zcx3/zwreVIDkmb7mLyG3T///6I5vp0iLboU6LoC1e4s3TM/RJuzlFxEpJoLkiJo7jXPvARePaIWYy2N4XHYeBvYEYwYUoHIQ7VxgL1/+DuweDKrpxUP3mbtMKNSlhXuHXRWswVF70I1F+XKenb89D8k2nEHnfIQK2KxXih5iNRhxFOdfZzHP/tvYOYgkJ7rjx0NsPOj/4LCzveBrdE2jlZkWFVHae/Xmfvs/wNc/Vx/Z84txgKBV4oguoFAn+iWr/8wMQWiNKZhEoZ0lZnD32bx0e+x49YPUJ66gTQepmNKmdtUQUnoSJq7pKMsFUezRCWvCREeh+DF4FG6WIw12WxeTakAlXSZA9/9P0l/8Nmsz3DPCTU6zuA1d7Fx+00YW6Q5e4wj938Z5o+Cb+dmbBl75Z3suf1XqU9eTRLVUFLORo7J1DPgBNWE6NgD7P/Kv4f5Q7nVaPJEIwMjm7nml/53mpPXgHRINcK5AgkphaiN0WzGsO2zwEV6AgwqKYrHp1m8uBNBV0oUNMYCqinWK3b+Ufb/0T+B9sK5KT9RmXj3Lay76i1URzeSNFscf+SbpAfuz9puqmadrYbXM/aOX2b8mp+hE1XWJjCJibJZu75LuX2MJ7/z+/Dwt7La30ytM/G2ZXb87L+gsPvDqJRJI6FtIXIeOfEQRz/1zyFZyIdZBNENvDoE93IgAJDHbCUflh6jiChODDXfgmOPcPgbv8fRH3+WeOUwRbdKKh2axtEUS0MKtIhoq5CokIghMSbr8RsZXBzhowg1MRhFaBJrSiVPBrauRXr2aFY+I2k+hCFmy+0/x+Y7fpnF7W9nYfOdVK/7GFvf81swsRNsAQpDxNd/mB3v/C1WJ3fRtRGiXeqiFFCKKAPdZeypH7L/nj/MZ+b2hjP0ekh7SDqkyTJiWggWoxZrPNYYYipE1HC2QtfW1raOqdI2ZTqmQttU6JgqaVwjiWpYqpSJiDUrvxKFoibQXoSke86ClYh4ajfXvP2Xia/6aRpTb6O57V3sfPs/gGvfk00RsmUY2866u36dqWs/zFxcw2IoqyAozinGt3H1Yzx57x/D4/fkzTZyCzf/++JheXmFjktJ8FlNsoIRpVYZzt5PTB7XDe7lwKtDEN1AgPzerJnwqhhi8YgY6qaE9zFoAtN7aXznT3jib/8z3cPfZrg9Q0G7OAPGZDfpFCXJosB4ERBLVwxOLF4EEcGiOFESSfEYVD2StrIRdv3N9+My5a1vYrm6GSs1qs7QiAaxu+5iz0//E9h5B1z9bja/85Oko7uxhSEqGMreUXDKOi+U0lVm93+DA1/6d3Dq4azzkmpf/W8vVuxJtYGTDqJRvgiBQt9b5PNaZu37L3txZrWjdq2U1yoYzfKWlayZRioJrc5qZkn2xNDGmE3X0JnYzZIZwUkZTI3GyB6ufPsnGXjbz8PGN7Hlrr/P2O73U4+G8B6cWrpiWbZC0Xcoz+/j2Ld+Dx76KrRWsv2fr5sKSaeLxyPWABbrTOaVMHH+nF5Mt1+wA4FXjiC6gQDnDBvBYFXoGChh6UpW0pPNznWQrsCxBzjy9f/GysOfp3bmcSYap6mmyxRpUZQOJXFEkklUxUPRR8TOEjlAU1QMXi0JMV3A5CPoKJSzRhTkm43QlCxOClj1dFBaJqa76Ro2vP932Pmef4CUN+CdoF3FJIbUx5TVMthuYI89yKn7/gzmTmRZ0cIzuz71fhbFisF4g1ODkLmSC2tP7ylYT3Z9HtU9t4kKoh5RT12gK0JqFGuzry3jUROdKznSzO0rFHC+gDGeiqTUBGxs6YxuYejWn2f9R/4Z1R1vpx0PUMdQMBYnHoej5BJKzdMc+9EX4Om7IVnN4rhropmfd36sShQRY2iZ7FlGLaoR2SDD3Oonr+99we5YgcCLJ4huIADPsGryKlZiFUp44jw+m7kdPfgWLB7jyHf+lIe/8K95+uv/kejA14mnH8I2DmA6J7DpPMY1iJI2cdLGJi2KSZNK2iTG0TYFQFBRlAhrhrBj27Iyl97HstMiWjzKUHcVg0FtTBElQklsFTNxDe2BTThbwoqjol2sgIhQcwv4E/fz9Lc/DfPHsprY58oKJrc440GsrxCpxSo4STCkVFxKJU0ppV1KaZdCmlJIU4zrguuQujap75BoB6dd0IQUj4riTJZA1hWDN5ZidThLCsNk77l3+OWTFFYXKPk2KgmJOJpGaEqZbnk95fEddEtVvDFUgZJxlHAU0y5j8yc5+IO/YPXxr0Oncc5tff715RZ9qTwAxuDxqHg80PVCs9UAn7u916Y3BQKvPKEjVSAgQFShvOsOipNXUhALKIJhVRyV2X0s7P9hPgIuvyGLA9eE1izpzEHmDzzCwsFHWDq9j+7ZA0RLp6B+FtuahtVT6Mop/OoJbGOGYlwijWsIDvDERBQUauksC4d/lJXT4MF7ZuuL1MY3YsqTEBUwxtAloi4xdWuzjGiyUidnlU7kid0y5uxDPP2134eZp7LzFPNsvYVzQlxbz8R1H0QrU3kJr8cbJUrq+Pm9+IVDpMsncCvHscsnkeWT2OWT2JUTxMsn8+0UxaWT2OWzqGsTlSq5W93QFLDiGdSE2cfvge65AfKuuUqzEDE+vh4TD+CIsqQzb7F53BY8FoMXwyyeqvdUlk9y8sefp/7I30J79lys+hn0/l4GbMzode+F8R1obFE1RAjGt0nOPM7qk9945gzfZ+8sEHjZhOzlQMAAxVFGPvA/M3DtR6iYGFWHYJk1bUae/BsO/u1/yJKA1hKAfG755hYbkpe4kFmrJs46ORl9Zgen4hibPvj3KO95L4lRRC2pFolJGD57Pz/+zP8VVuez42je6nDzjVz9wd/GrL+JGVMDZ8B5CsYhZE08HB5nuxT9CksH7mXpa38MCyfAd3LReY6Pea9px863sudD/wtucDMdSeiKUEaIZvdz8Av/K8wd6b3gma/X3mN9+xdD7eq3suM9v8F8dQeeIh0g0i7rOzM8+un/BU79OBc4yXwLtREmb/s5ttz8CeaL4xhjUG+ymUTiMte3sSyaiLbrsnnpMPvu+UPY+y3oLGeDIcx55/EMDJSHWPfz/5rqlrfgCxGqFvGWYjLPwg8/zex3/lv+NwyWbuDVI7iXA4Ge+xjFoSR5MUsqsNIvVpo3olDJbvJrP2vetjG3tNRltbTd5UwQuivZ98kidE6TrJzC+IQ2kGIRhIYILTsMxZH8WHkrSU3g1OM8dc8f0TnzCOW0QYmEGp5aV6glEQVvsWoY7Xaxhx5i6d7PwMJBoLsWr302eq4cxhYZ27gLUxzA4elKSiKeSBOkuQhL09BegnZ+PZ2lc1uylJXZJIvZlq5AukBj4QSmvkrZKVUPZS9Yb+lKmcKGHedaUUL2bjfmmHnocxx7+EtUWvN4181SuaRAKmU6lOgIWHFsbpxl5v6/hH3fzt5b37eoeS7j1AhUBhkYnUQlAjV0FVQdJddGlk9n9cHPck8HAq8sQXQDgTVNyu7Ymd2afT+4lvRz7unPvDH3soDJv/pnxgV7gqwuH2HkmJk9jmoHp0Ukn2ZUwGCrI5Q2XZ/3Oja5YPpsgP2BRzjw1d+Fw3czmC7QskISWdrW0TJdSskM9cPf5dC9n4EzeR3u81psvTaQBia2MbbtVlxUoy0eL9DGEDuozxzL3Oq9c8ld4mub+r6FB1n2tVd0aYZGawWHp2mUGEfsDau2yFW3vDubeGTyGHnvvVqeZ/YHf8rpBz9HVD9Dqm2WrDJvlY6kGN9hbP4Ap+/9QxYf+0q2COi5lNfi1X2q2/tWFOIy1WvegSlPkEiEwxKrQdWStOsszB/Pm5E81/sVCLwyBNENBHIk145nPNYnwC+eC9zAXYpZOkWhsUDZRbhcHCMDSbHGrqvfCbXxc4Kpufs6bcHJpzh27x/TOvkjRl0bLTgodBhon6Cx/8sc++bvwqnHs8k9vbaRFzz13i8MFKtsvP5dlCaupWktTYEIw6DGFDpdmjOHs8Sxiyb3BLRWcIunML5N3SrWpMQC2BLJwE7YdjNIqe81BryB1jSLD3yahcf+loHOaWq0GSFhtNOkdvYwx+7+A1Yf/VtoLudvb691ZG8RkL/nQnZ9asEY7Prd7L7+fazGNZxktdReDbGm2NYc6fzpteXW8y9WAoGXRxDdQOBS4h3uzDGWjj2NqqMVFTA2a6joTJlo/ZUUd96QtUXsiZHmrljXgtP7OPT1P4SjdzO0coza3H7mfvRZTn7j/weLR/IuVdJnaZ9/Aj3y56zbzMD2t9COx6hLlrktRIx6g9RPsXz88Rc5DSgX3aTNqYMPUe7MUxNHHY8TR2QjtDjC1DVvh+JwPqIvyWLfRjKPQGeW+Qc+w5n7/5SJ6cfYvHCQwrHvsPev/z2tx++BVi8Jq5fpfYGVUm+1IUA8yNjut8LAdjqmCAJdVRJRyukSZw48AM2V87pPPecbFwi8LEL2ciBAnr28861Ek3uIjMWQtYpqS0p5dj8L+3+Qz1t9BW7GqmhlgvErrqFtilh6u7V0CxHVAiyd2J/FTHvrYsnduh5oLjN79FFmTj/F9BN309x3X+Zq9Rcbj8wTwIojTLz5Y8Tb3spCoURXhBoeqxFDrsGZp79Gfe/dfVnbL0RP6Ayo4lQZ37yH0sAmWhqhYvGSleqMVYp0Gou0Z47nsdSe+9pkX9MurdmjTB9/ksWjD3H6yW/D/MGs97R1+TGeedhz3/dsiayrF9tvY8NtH2eltpGayXo1C56IhOrqEY786AtZ0hm+b2c9qzcQeGUJlm4gcEnx4NrUTz5MvHiQ0bSLOJeFRsXSokRp/S2M3/4zUJvMs4vzTOZenbB2YOUMfv/34MRDWR9jn+Sx4/PirGv0+5pNNnjh2jsZv+qd+HgII1DCE4kl9ilRe5qzB3/Q17/4Yug9L3f1Lp9m9cRjxK15BrxQBFKXTXBKiuNsvOE9mC3XQ1TN48vpuX7MaqDVQM88TfPQAzB/PHOb21yYNR+WsGad9q6vTyhNDCNb2X7jh9Dhrawai9cs29uqp5TWaZx5EqYP5Q016HMtB8ENvDoE0Q0ELikGVNC5A+y7+9OUV6cpupQIR6oOLzG+vI6p63+akXf+Cgysy2fU9g2PF83Ft6dzFyMQ+WuNQLECO+9g69t+keXBjXSsUAWKohiEom+wcOwBOP5U3gv6YkW3Ry5aSZsTD36N2SP3U3YdRLoYEVKNWTE10qlrufrdvwabrskmDKnJrF7tJWrpuUXEWuLWBdYAKn1imR/fFGBkK5vf/ksM7Hgz7ahKEegiOPUYTajWT3Pwwa9lpWDPeAvPE+9A4BUkiG4gcEmRTDzSDp3D99E68gDiOiQS0Ubo4umopV3YxMR1H2P7nb+C1KZyHehl+mbCnQkR58RG8lm5a1u/cOSvLQ0R3/wBrv3wP6YxdBUppbyHcnYziOgSNY9y8Pufg07ew/h8kbsYeolNK6c4/f2/Il49RQNLA4PD4rTAfDRKc+oWbvrA78CWN4FUgTgvASITW6/5zODzD5Cj+XvRG1Lgc0t4chfX/tQ/oLznXczH43SJiTCoKsviiX2T9rGH4eyB3MIOBC4NIaYbCHCJY7r4zHp1sLB6moHt19Moj2G9MCoeY5S2GtKoSHVkCh0ZoLk6nzXyV3cByy5H6Hu897s82chGMLAee/NPM/mWX2K+tpWWxAyh2LzBhpWUYv0kT973aTj0AGg3383LuGYV6HQxtSHG1+2ka2OKGCIBg8GKkBbLjIxPsuy76Op8XqKUi+jaguI5zkFcJvDGgNhsItH2Wxl72y/S3fxmOsVxlAijmg1gMIaytpCjD3DwO38I9ensPQ2WbeASEUQ3EOD5Rbc4u5/FV0x0JU8Wyi3W1gKmUGDTuisoRzVUYMWQtcwwERJXiMc2M7ppO3Ur+G4Huh2gk4vvc5GX0tgYhtbB5hvYfMcvsvXaD+HLG0jEUlGDEZdfkSPuLrDy1Dep//AvoFt/+YIL2Xlom9WVMwyPbaU6PElqbWaUisGgeFGK1TE2bLyKwsg6VnwXuu2sPrnnZkafLYySi7GxUBqFiV3Urn8XV9z5CZJNt1CPRhjAEqNE6imQ0pE2tfn9HPj2H8H0E1m/Ze1NWgoEXn2C6AYCXErR7ZG7e9XRmj+Ni2KG120nNRXURIgIXa9ZjbApY2oTTGy6mqltV9EsVummRSgOQVTMREfIrNm4CuXRLAlreANc8SZ23vFxtt32MWTyOrrxOIYYUSEVEGOxgO8u0j70fc7c/UfQmD7X0vLl0hOzzirzC4ts3rSFVnEQTEyUN6NQMWBiXGmE6vrdrN99E4XBcVZMAUwNbDWbdSu9hUQBivl1Dm6CDdczfuMH2fP2X2Jg51vpDG6hLhUKRESqePVYsglGdvkYh+7+FHr4AUgbzzCmA4FLQei9HAigUBpj9AP/M6Vrf4aSLWDVo2JYkjaDT/4th7/477Is4bU46iuEahbHHBpj+KZPsOWmj9KtjtEuFlhNlQHNXLEJHiOeimshaRvbWKKkytz8KeqrJ2munkR9iq1NMTCygcGxKRqFAloYohCNAiVSMSiWWKGjQtcqsaSU0zrR9BPs/eJ/gJmn85hqcv6ZvgxslpVsq7DxBq794G/THr8WH1WytpvqiBA0yhLG4rRNJW0jrUVa3RYrzSWS+jTt5TPY1jKFKCYaGmdseDMDQ5tpRWUaxQE6cY06hlp+VGMMXVWMdqlpSqUzx6N3/yE8+Y0847tXIhRugYFLRxDdQOC1FF3yuKeJoTzC2E0fYMPNH6YzupOmFjMvtAgWj+JJjOARBEOkBlWH1TaimRWuUkKkgDWGVMBjAEuylg0sxA5aeFRSqm4JPXAvp+7/PP7U3qwsR01euvNK0DN1c3e6FGDzdWx9xy9T3HwrnXiYti9ksV0cHk8JpYglAlqi1MVRUkfZdSlpmgm1iYilAMR0xeRLBIPPG3x01eFtlg09mLaJFo+y9+G/hse+Bo2FvFd279TCLTBw6Qju5UCA18K93IeYfEhCndbcYZbqcwwNjDBYGwYTkRqDVYtDMGrwGLpiQQwqEc4USEwVkVrWWlFihOw1Rm02jl6ELoBYiqoMugYDS4eYefCLzN73GXR2Pzjf183qlSLPLl4TOA8rZ1mePkAcGwYHRzFRkQKGgggijsgKsRHUQMeAJSLSGEOZ1JRxpoxKCSNR5poWTyQ+azLilS6Wqliq3Q5DnUW6R77P/u/9MTx1L7TzjGyeHSIOBC4FQXQDAV5j0SXvxqQeEoebPc3Cmf0sOsdQpYYtVuiaCG8MKUoBoaBKRT0FVWL1FNRhRMh7TQHgEBKBDp62UTAetEuhO4858xCH7/kjmk98I7P8+psxvaLXqPn19X722ffNZeonD7CweIqBUpXhygBiDC0DTbGU8iYW2atNli+loAgqQgSZ4K4dQ0iBVRwWGPEtSgtHmX38bzj2g0/DqSfBtc8b2hBUN3DpCaIbCPBaiy6ZAPSsTE1hZQ537EmW506xdWqMYhxjTQlnCnnPppQCCWBRDI4II8Iz/4MIh5U2SEKUrlBaOsCx7/8583f/Ee7sAUi755K61lznr3D5fr+2rdUOKyQtdOY4yycfRUowPFSlIjEliTECXclE1qnBCTjjSY3DiScR6AKJGhIxdPF4SRmLHEPtsywdvJu93/zvrD51D9R77uSe+EsQ3MBrRojpBgK8xjHdZ9ETBJe1SByehKkrGNp6I5u33URaHEWKA4gtoZToGkOC4ARiHEZdZuf6FNNZopAu0jh7gFMHfkxycm/WZ7jb7jvepbim50Iz93ppDDOxHbvhCjZffSvVwW24aJA4ruJNlY6JcQIYhydF1GOdoZBGSNKEdJ6ke5ZTh39E/ejjcOZAZsGnvdh0bwTgq7huCgQugiC6gcDrUXSlpw55lykbQ1yGgTEYWo+MbaVUm2B8aIJCZQBbLGEE6DboNFdorC6QtlZYmj2JX5qG1WloLmWJUrgsQ7nf6uwd95IrUq9HtMlKgWwMg2NQG6M4sp7a8BTlgXWUB8awcYk4jkh9l1a3RXulTrq6Sro6y9LcYWjNwvJcVgrk0tyDfKmvJxB4foLoBgK56I7lolu0BYx6EMOitBh68ksc/uL/O+vRe0lFN6f3CVXJuy9FIHEmUIVS9tXGENmsm1PahiRvLuE0P+XknIiTj9/r7XjtUH2PXeq7gmbu/MwijbIArkRAlE0KKpbBFLNr92m2dbvZuENNsp7NvT4aa38jfQ0uJBB4fl7h4E0gcLkilPIbdpLPFlAgRlHpZfWuPfVVpq/R/1qz/xQknyTku+Ca0F2BxgysnIKlYzB7CBZPweoctOpZ5yqf5u0cc4tSe32M+8Sop029370WOrW2yMhn6rpsvB9pMxtbuDwDiydh/igsnoDl09CayzpnJZ3Mjbw2eSj/Gz2j93Qg8PogiG4gAJAnHsX5h6JnNKU9DXrN7995L2LpKQq5OPcJ5dq2pjrn7eP8ny8n+i+wd219qwPpzeM9fwsEXl8E0Q0EcnqtjG2fuZfkZSuvjxv4hYS0DzXge3N3X+C5lx3atxTqiW1+ff0afP4WCLzOCKIbCOQ37xTWim1UFE/W+/jyGPzWi/e6bPLOG9bSu4Do9ngjrTECb1iC6AYCOee6DXuMKokoQ2gmXa/mDf2ijdLcnFuLW0qWWBQVssEHcSkbBm8L2bB6Ic/e7blee67Z1yMXOK/e/GDpDXMoZRnccQEik10jPes+WLaBy4OQvRwIiEBxlMH3/VPGrv8IEhVwOFIsFTqs7v0iZ7/476G5kAvYK32D72u9qHkWV08s81+j2SQe4jLUxmB0A7Y2Sml4HXFljGqximBIui1a7VVWlk5BYxaWpmFpAZJV8J2+PsM9kcuTtl5zTJ7BbKFYxNQGGJ1cz8jYJKMjk4yOTVIaGCKOizjXoVlfZXFhjvriDMvLs5w4fRxWVqDTzg38894/8vc1qHPgNSaIbiBgBIrDTLzvHzNw/c+CLZLi6WIYoMvq01/m7N/8O2jMn7MyX8lPTa83cW/GrgKqWXMqa7NymeH1mHW72bLrNuzgZmxlhKhYoxlXSKRIgYgCApoi6ki1jkmX0foCyeocyyefYvHIj2DhJHSaWYkNPhej11h0BYiLMDjO2NRGbnvLW5naspPiyCSV2ghxXEaiEqmxeDFYdVjvMC5BXZtOY4HVhTMsz5/hvvu+x+kTJ3ALM9BpZVnQ9N7bvoVGIPAaEUQ3EBABW2Lde/4Hht/0K3RNGSdKB8sgXczx77DvL/6fsDqTx0tfYbTXApLc8pRMIEwEY9vZfet7qW24jmR0B+14iK4pgUCBCGdMbtgJmltxIhDRRSXBecF6oeBX0JVjtM/s49jD30RP780H1feaU1xK+qJaxkK5xq1vfw833XEXoxu2EFUGkbhEKlldroglEUjFIOQlvAB5A8yCT4l8gvgu3XaTMycPc+SJH3L31/8WFhezRhlvyPh24HIk9F4OBMgsy3j9lQxvvpmmLWbGrBgMjgld5uSj34b26qvT4ajn/uxhC1BbBzvewtY7f5XyrneRDu+gHQ/TsWXEClYcKh4vghfoiiMVTyo+rysGgyGVmI4psGqrNCpjuLFtTGy8GlsbprWynFmD6i6x9ZcvMipVipuu4N0/84u85b0fY2zjLmx1BI0rYIoIEcI5obXkk4TQrDd29huUCDUFvCmh8QC10fVs3HoFW3Zsp9lNWVxZhrTftR4IvHYE0Q0EAMQQr7uC2tY30YxKxPkovZJAobvE6b3fy2O65ALVJ5KvFGoyN+uG3Wy//efY+uZfYGVyDyfiGssSk2CZMZk1q8ZTUkVVMJpNHooFLNl0nmwEoODzkXcGaEvMiilRLY0xum4no5NbWEza6OpC1r1Kc9f5q0JuvSNgLGZ4jJvufA8f/Tt/j6033EFUm8DbIpIPcPDSuxKyRQQeQTHa2wTjBZPraPZFUCM4E2HiMiOTm9lzzTUMVqucnZuj26znrvT+i3zVLjgQuCBBdAMBMtHt1sYYufJOpqMKw85iyWa7erosn3oKN3s0D4P6XMZeKcspv/HHJWT77ey661cZ2n079eo6umIZ88ogSiSOAYSSZAP8VlRw6onUUVBH5B1ePR2UFYQuFoMlNR4vnqIoNQyWmCUbUxtcz/imq1mUCF2dhk7jVRTefKdWYHiSD/zy3+PN7/84pfEdmKiSJVBly4V8fJ+STQ72eLLFBQreZ++5qmI0s+ZtbgUjikpWVy0Y1MSYUoVNO7ayecNWzsws01heAN/L5O47r0DgEhFENxDoEdfYedP7aZkBKk4oSJdOJLgoQlYXaJx4OHNTvhJi22f4oRZsDdn1dq5/zz8knbyBhcIgSxhisZQVrDckGrFshMR0GZNlBjvTlJuniZYO42eexq4exXTOUEuWWGcSBuiSWKVtLF4iKhpRRFBVympITJn58ijbNu+iPFRh+dS+LMnqVTHkJVunjI3z6//j/42tt76HbmUCEUOUvxFeDF0DKoolRXwH0Ra+vUB9/hSLpw+xfOYIycoM2lqiZByROIxmcWzEPMPxnHkEDGlcYWh8O9ddcwP7jxymuXgafK9A7BW/0EDgeQmJVIEAZDffwU3c+PF/xdL6mylpBR91mIksJSeMzD7F3r/4X2D+4CuU7dtTXCAqEl/5Vva867doDe/CUQKEJnnTf5vFbMtJi+H6NP7Mk5zY/wPcyiyd1XloLedi6aFYhNIIUh2nUh1l47arGN5yLc3hbTxRGgQiNiqUkyJdUZqFhEKasK45y/GH/pL5H3wOWkt5q5BXgjxpSgwyuZlP/OY/5opr34IrDZBK5kyONMpEF4+TBJO0aJ06zhOP3MfxowdZXjjL0uIC3dUV6LagUMRWqoyNjFMbGGbLtt1cfeNbGd+0C1Os4cTgrOBF8aI4FcRbir7B8pFH+NM/+E8sHHoM0iRb8LwSi6hA4CIJlm4gAJkAuoSZQoXRTVcSFYboGqXrDbG3FOKY+uIZ3Mz+bIjAyyK3xdRk2bvbb+Gad3yS+YlraJoSRTEYoKhQ9VCWFtWVY9T3fZuTD/wFcz/8a5KTT+IWTmZlTJ3VbNqO62aJUc0FWDlNMneU+WNPsHjmAG55lvWlEpVClSpFVgQwnkgU46FlawyOr2e+tQJzh7MY74XO+UWTJ00Nj/ChT/wGO9/8HmxxgFgl73EdkYoAKdpusHrsCX7w9b/iq5//Y/Y9eA8Lx/bTmD2NW1nMFhZpGzpttLFKY2GaxbPHObr/CR594kEWzxwFEkaHa5i4SGIiUgHQTNxFGRocYMPEOp48cAhXXw7JVYFLThDdQACfCaB6tN1kYNtNMLSeBKHkLAXjSMQyWimzcGo/NBfzjF+eOX3oopC87ChPbxreyBXv/nXshjdxIi5R0pgChkSgjCFKV+iefYjj3/8z6g98EZ3en00X8t1sLu5aP2Lyr/mmHjSFtEVSn6V+8iALZw8zVIwZGJhAohoz1mPUYrzFmQhXGGTD6BBzS6dhaSar5RWTX+P5CUgXi0CpzO3v/jC3vvdj+MooIlEWn813ZyShtXCSx+79Ip//zO9z/JH7SBansylJLs1isNq7tvxFqtnj3kOa4BrLnD1+gCceeRDXaTA6PkapOpAlZKkBUcQoqRVqw5MMlEocOPgU2s3d6YHAJSKIbiDQs8YUcCnR2Ebi9XtwvkQVpW67JMYSFQbYOjbM2UMPQdI6N//vJSEQl1n/tl+muvtdNIsjiCplb4iBRSPE2sQfv49D3/jvuGMPQGclrznNX38xGqh584u0BY0ZVk7vJy6XqIxupBmXaGmEiiESMMZCqcKOySnOHHgkr+PNu2O91Os0FiY38rFf/R2KE1tJTC6C+cl7beEbM9z7N3/C977057i509ks4BdrgaqCc9Bpc+LIfpYWZtmzayc2LhObAl6E1CrORKgpsXFyApM2OXp4H6Qv13MRCFw8QXQDASSzGAXwSts4RjddSVwapaRCwzowQmTKRIUKjZXTJLNncmszzazBF4XNGl+MX8nmt/1dZoY24AxYhJIziE8YdEskx77L0W//IZx9OnMf9yy9Xj/ii2HteSazzjurrJw9ypxrsGNiB8WoRNcIkSgFlK6JkeIAprNE8/T+/BpfSgw7j1kPDPGOj36CbdfcgcQlUEURjApCl87qGe75/Kd46NtfgtWFXGwv9uIuhILrMj83w6mjx7hi2zbKAwNoVMCJwWMxYomjIsODVZ544mGS1eBmDlw6gugGAnl0EXLLtb2EGRhheN02Vm0NbwSP4ozQsWWmRsaZnTsF9bP5gHjb1yv5IgRDYhieZMtdv0G06U10jQFJibEUfIR3c/jj3+PY134Ppg/0xZD79v2MtobPRy4mYnMXOpl7evYY3UKJwfFNFKIyBSwpStNYisRsGh/j5PHHoT730hLH1EJc4KZ3fYC3ve/jxNUJRGzuVDcYUtoLJ7j7C3/Cw9/6W6gvZa+T3OvwkslfmyYszc9x9uxptmzbRmVoDG8iDDYb1iiGUqVKOYb9Tz4KSff8HQUCrwpBdAOBNfIbtk9ptZus27SHxdoGbF7UYklIJCKqjDI2OMDC7DGoL5/rnUx/Jmxu6V2IqEh0xW3suPUT1ONRIqCGZoKgDjv/BIfu/iM4szevKTV5TDVnbUj9xZD1cFqzkI1mC4xOl87CCUrrNlAb2AamSDvfdQWDj0usNmdIT+7LXdovxhI02eHGJnnvz/0awxv3gBQxkrmVRQ2SNnjga5/j/i/9JTRzS/Nlie35CPguywuzpKpcsetqomI163IlDofgjWF4qMRTj/+IzuL8+TsIBF4VXqxfLBB4A9ITlHwEnvcwc5jpvfcy7BrMiyMSpeShq46mjSlufjO73v1/gbErsoYPKrmLuj+56Tn6NEeWqc230ozHWRVPx2Qu1zZgO3VW9v4QTj0NkuZNI86jfwLRC+Kzp6rPt9w1bQRWpjn90DdJGyeJcViEikJHoO1L7NxzB1TGMgv5okU+f6441m3ayvCGbaitIoDXlFSFRFLqM8f40be/BO169rJXVHA59/4kbX58/3d45JHvYXySZUkD3ng0iqkOTrHzypsy70MgcAkIohsIQJ9l2nNPtpl98m706W8w6ZZRZ2lj8/6/hlY0AJvexOaf/Zdw7XugVMsE0kegcW5hXkBIRGBkC8ObrqYRW8Q4lIhVYyhpwuDqMab33QtpI0vv1Xym7MvhGZcma5YoJHDqSZKzTxG5JipZNjOANxFaW09py26wL1KQFLAVrr/1Dkq1UbAGI4KoYESJfZvvff0LNBZOgSYvYgHxElCF1WUef+A7dFdmUFzW8QohUUHNIDffnv/9AoFLQBDdQOBCOA9Lpzn0nT9A9t+PdS0wRYwtogjLYmgValQ23siOd/42lXf8CkztgsJAllilLteS8wWliAxvIx6YAqOUJNPWAgaTrHJo77dh4Ug+/SdXyvN38bLIdyZJtv/WMkcf+QaN5WNrrRQLCokxNApDDKzblYluv3v7OckXGaJIpcaGLTswtoBTzVptiKCkuOUZnnz0gawk6EVZ0S8FAec48fTj7H30+4hr54+b7C02luGxKYY3bMpvh6/2+QR+0gmiGwhcEM1imYsnOXH3H6BnHqGSNiipRZ2QCKhRUhthRraz9eZfYveH/hmF234aNu+G8mDWTSrvk7z2UYtKlMc30Y7KGHEkktLOWxlWmvMsHLof0m524xfN3NUvy9LtuaJ7+8hd4ZrHirULJx9h9tiDRJqAONRnAwfmojID47uzqUcvUvlHJ8YZHBrBmKyPshODqhD5Lo8+8F3aMydegUzli0HWrN2vfv1vSOpziHOIFyIDYh3FaoHNWzaf/8JA4FUhiG4g8Cz6hMonMP80sz/6c0rzT1JJVimKYUiy6T6JU7zGODtOZ+pNbLzzt9j1kX9J7S1/B7bcDKPbszF9xWEoDEJpkJF12/FxCaeK9VBQxXnBN2dgZSbvGpGLXM/aFZNZnIUSFIpZ/evzZvrmiUlxEYplKMRgo8ztrZK7wV1eRlSneepptFvHSd4oBIgkojy4DopDeZOM84/Rc1Xb7Nziwtr5jWzaRnVwDNEIm1djGQGTtvnxA9/LFxYvovTp5eI93ZnTNGbOYNIU0awTlyBIocrw1NbsBF/WAicQeGFC9nIg8EKoJ106w9ziKSZH1xOVhnAROIEuFvVK5ByJxLTLg/iBCaY2XMXGHTdR2Ho9pe03M7TjFga2Xkm06UpqW24iGdiAArE3dDFEaUr39EMsP30vJJ2+m7/NBHZgiK3X3MQtb72Tya3bmO628a1GX7em85CI4vgGrrrxLdx6+zsZ3bCB+WaDtNXIOk3BOdHzgtcCQ9e8DV8aItIIL0pBoJo2mTn1CCydzjOp+zFQLFKZWs/GPddwxXW3sH7XdWy66mZ233QHk5v2oLaEQfJSZodvzfPNv/0zdHXxxRrPL5Fc1XN3/VU3voWRqW14EyHeYDVCsawsL7HvR3df4BoDgVeWILqBwAuioCm6dIbZ409RG65RrA2wUiiRUsR4g1OPNZ6m9Thr0LhMpzSGDG2kPL6T6vgeRtbtZmTDHhrV9SybmIJCpIZUDAXX4sxT38AdfzxvSNFHbZB3fOhj/NQv/CZ7rrudndfcws6rrubkyRM0FuZyocgtYrJ5tTI4xsd/5e9x+wc+ztZr3sSOq29i29bNHDh+iO5S3oSi38qMa6y/7h0kpTEsWd2x4qn4Nm7mAM3T+861voTsPTEx22+4mZ//5N/njnf9LHtufgfbb7yDndffzvimK9CohKpBEBRFNGV59gQPfO3z+RjB3jm/murbd5FiuObNb2V0406MRNm83jym3u12eOzer+RzhV/N8wn8pBPcy4HACyLgomzwztwhjnzx/+Dkdz/DxsVTDCZt1CREBYitYTDxlDspUZLiEod1EW1KLEqZFRli0Q6zamJKAqCZtYtQoEP3zJF88k3uVs7rf7dfdT13vO9nkdEtNMoTNCvrGdt2Mz/7C78F5Wpf8k++2Zib3vJ2rnzLu0mHNrJaHKFbXcfWPW/h9re8O0+M6hMjo+CbJM0lSqmSklnPRh1pwTAwOJq5Xs/DDo7wwZ/9VSZ3vRk/sBFXHEXiIVxUwUkRh32mnIrQWF2BVvulNbl6uXjH/PwsLk2zKLtxJFGXTuyojQzCi0zSDgReCkF0A4GLQdKs5aM6aK9Qf+jLPPrl/0L7wLcZ7c5jxTMbGRajEoYC1glFB0YNaoVuLCwUhMRaKniKpEjfsALvOlBfAH+eBWoMm7ZsxlYGaFtLU4SuWJAK45NbqY6MPjuuK4apLdtIC1WcWJxYPAWMqbJlW56N3I8KqCNOO5S8pZuXOxmFVDwm6nt+n7av37iegcn1dGyZBoY8SpvvMivMMaJ48WCE1CvNVjtLUFPyZ19C9VVIu50sWcyAR3AakWqEFwGNzn9FIPCKE0Q3ELho8uQq7UJ3EQ7ex/SX/w/2f/HfUn/kswyfepit7RkK2qRrQQsxTWtoewUPZS9EPhsgX3BCTIoYh4ina4A4Pq+dZNa2cWVhgbTTIVbJ9FgyG7nZrtOuN5/tnlXP8uI8adoF65G15hvK7MJ0FtPtvaQ3JUktIkXEZK5gJZssZDxZk4+1pK3eBs1WG+cc6hVByJYlHo/HqCdWT6QeJHsMMZSKcZ4EdqlduNk5F0yWSe7EZJa4ZollVrWvtvrZVn0g8EoRRDcQeCmoA9eA+knc3m8z87X/yvG//Xcc/87vIvu+QnT6AaR+mMH2WcY7K4x0WsRJB1wXVfCaj/bDEyEYUyCa3HKuleSa9eo4eGgvZw4/gW0sUnZNqskK3aWjPPSDb+BWVp4dg3QpD//wuyydeJpCe55KskohWWZx9ggPP3hfZmn2i54qmAgp1khEUDxelNRE+MTTXF3KhVqfsS1Mn+HA4z8ias9T8gmxV0Q90t+rWQXjLKiiXqmUqlAsPts6vxSIMDY2is0XFi6Paxug02zlSWnPXsMEAq8kIZEqEHhZaCbASQvqc3TOHmDh4MMsHnqQxWOPMHfkxxTqxxhIZih2TmDbc2hUolGsgRhUsvb/4j1DnQWWDv4YfCeztiSbA5s0Gxw/vA+X1JmoFpg//iR/85nf57H774V2MxOLfhFTT9Jc5cixo4xXCtSky/Thp/jq5z7FiScfzpv79yuLQHUDgze8n7Q8iio4qzhjKbcWmH36brozh88bfCDgEg4dO0K3ucqGsUFo1/HNZVxzCXUJUVTIyonEoOowQBHHD+79OtpeuUTi1ve+RBHX3vZOhjftwpsiXiQz4DVl+sg+nvrul7KY+iW3wgM/SQjlneFfWCDwitDnfpXcdWvyWllbyb4vjbHxA7/N0hXvpKAlinhiDJqkDJ75Pk/92f8dWmdy17LJeznnAlwuE5UrqHO4+gokfbHRZ1iO+UfaWkxtkDgukiQJvrGaicrac/LnSQTb72TLR/8FWt2EeOjGWRb06Nxenvrr/xVOPNxXatRDwBgoVxkenyKKS7mbWdlx/Zt4/8//GsSjGGJS08WqIWou8B/+t/+RlUOPQnoupv3qkTvzRKA8wCf/p3/F1uvfQWIrSKa4SNLioW9/lq//f/8NOO3rnR0IvPIE93Ig8Iqh+ZCDFDTfXArtRjYib2UWlk7TWj5DwXdIxaNAomTCWx6H6kg2Fg/y1ov5AHn10GySzs/hlhbzwetZvDSzzHzflguqS/HLC3TmzuCX57Lh8GvP6RNpWyLasAMpDZAaT5QLuKojaSzA4vRzjPfTTIgbqywdO8DcoceZPfg4i4ce5+SxJ2k3FrDiUaNA1kzERCWuufJaMPElCp3m74WBwugE6zduBWPxCqhmsdykxfypo1kjlCC2gVeZILqBwCtKn7VLbmH1Pmaq4Fosnj7IVNJB8Tg8VkHEEFXWwYYr8+zi/n2QC6Xr2y4kgi+AnNfHuVcnO7iedVfcjBbKYDwqhkiVsu/QmDsG3caz48bPIBc2zb9XmD55gvriHF49mr/WIzhb4o53fBCqQ5cwrqsQx9x821uJh8ZIjMEbyUqjfAfpLnP2+MG8E9fzXWcg8PIJohsIvFr0LNSeSEpmGerSMUqtOjUfUSKlqI62KO1SlevenAuSCuIM0FfGkmvb2vZSEMnORbPsZKISk9fexeiG6+gYS9FHIAmr3lHzy6zM7IW1IQEXQy7ky3VW5+fppilOQdTgjMFFBQbXXcEVe27IFhcv9TouGgVjGNq4ibe++/1IXMYjWHw2+ch4tLnA6WOHnr1gCgReBYLoBgKvJs8SSIXpEyyc3keJhAiH0xSHZz4SusMbYdv1IBY1uStYzo+lvhzymcHkmbpDmxnYcQcNO4xiEKMkXiiKIW6cpn76SXDndci6GDotfvyj+5DuKtY4UgvOZKVDPq7ypjvek1u7r/YtSCAusef624nHttCKilixWY64eui22ffUw2irHsQ2cEl4tf/FBwKBZ6DQrHPm2COU3SImb60YI8RiicuT7Lr2fTC4MUtS0t52/n5eLD0LLqtTxVuojDJx4/uQiZ20TIRREASPEOFZPrEX5k/mM33P39+F6LmZPajj0IEnWT5zBEMXb8CT1fMmYrni+tu47tY7oFi68D5eKaKYqSuv5aZ3fJA0roFEGPWgHovHNVf48f33QbeX0f0KHz8QOI8guoHApUQVXEL36IMwtx/rFBcJ3ijWx6yaIvHGNzF160egPHaey7MnmlkZzgvTS5rqkVu5aiGKMLtvZ/Tqd9EuDGBUKfmsEXEkynB3liNP3AftVq5B5iJjsL2OWko6c5pjex8kbS+jeUMORXEG3MAQb3v/z7HxqhugVMlf27s+8nKpizne82AsdmSKd37g55jYsAcjJQSTy6qC7zJ78jBHD+47V4ccRDfwKhPqdAOBS45Cp8Gc6zK15RZaxQorFqwXSgpqStQmNmJJqZ/dDz7NX9crRTr34/MLU79Y67nMZluGdTvZ8+7fojO8C28jVJSuWDxCQduUTj/E9H2fzZKo1oT0xZANjz85P82u3VdRGV6XZQ2LghicWIZrQ1yxZTMPPP4EtFZz4TPPMUbw+egT67WHDAyN8d6P/jLXvvm9SGE4r4nO6oUFJanP8Nk//s/Ujx94dvvNQOBVIohuIHDJyaYWsbLAyMYrqQ5tohkVKXhDxTnEQL1QoTWxEZ963MJpSDuZMMC5towXg/Zm6GrWfrE4BFuuZ9tdvwkTN5PGRcSkGBRjYgq+S61+gqe/9Qf42f3ZefbE/kWRWYxpu00jSbnqymux5TLOWHzu4rZYBio1tm7eytHpM7RXFsF1spfLi8kk7l+JZE0wZHwj7/7pT3DDXR9BamMoEQbNtNUYSNscf+qH/PCbfwP1xrndBAKvMkF0A4HXAlXopiy3lhnbsIuoNJYLkWfVepyxLBSH2LhuO8VqicbyHHRauQjmcVm5iLIhUTDZwAEqUxRu+CCb7vwkMnUDLqqi4jGaEmERNZQaJ5h+4DPUn7oH0lYufC9FdHOcZ35+jqmpSdZv3IJG5awZB9mujSkyPDLBlm1bWWq3WVxY6EvculjRzQXTCsQFxnbfwIc+/uvceMcHkMoozgpIQqRklrRPOXngIf760/8fkjPH88XMy7jGQOBFEEQ3EHgN8aun6ZSqrFt3Jakt4q2wIFlf5gGJcHGF8rrtjG/YSZMirlvPXbG5oEruFhUy63ft+6whBMRQHoVNN7D+9k+w4ZaPokNX0DQxbdPBqGJ9RESEcU2O7/0qq9/9NHRX+kQvP86L0MBzKKQJx6fPcsXOq6gNr8ebKJ/XqxgVNLJUxybYfdW1DE9Osdhs0awvZ41FoM+SvcDW1/WruGErV9/2Hn7qF3+LDXtuxsXDiESoSVBJiNQgamnPHuXzf/KfWdr/CLjeMIeXdHGBwIsmiG4g8FrQE0af0pk+TTQ4yPDkFuZsRF2KVNUwoiA4vBQxAxsZ3XIt67fuZKbbhuZKNn29PxtZe1NyYrBFiCuw6Rp2vO2X2fnWX4VNN9AqDpMQYfHEAgUTIanJpgHN3c/MN34XVmdenJX5QnhIGnXmVhpcddWtFAvZlCE1Kc44VAxqCtjSMFu27OJNt76ZwZFhjpw9hXd95VLSSyLL209aC4UCDI1x+/t/hk/8yj9gz1vehR3bhI9KueegV+ls8WqxyTL3/vWn2Hf/tyDpPDsWHAi8yoTey4HAa421MLqJoVs/zuS1H2S+NkFXLWMSgfOIGkRSOjYh8ilRfZ7C4mFWZw/RaK/iuh2SbgefOGyhTG1giLYtMjQ0RnX9lXRKU3g7gEpMWzxGEirqcTZLaIo6TYrTj7P/W/8Vjj+at5h8BW8LmmcilwfYfeudfPjnP0ltchNpXMHZKHdgZ+7tSDN3d9JZob5wgvrsGeZmz5J06qwsr9Bqd4isYXh4CBsVqQyMsHH7Tqpj67GlITq2BJndnpUF9cqgVJHWAvd89U+478ufQ5fns0ER2Qm+stcbCDwPQXQDgdcaETAFqIwx+OaPsvHGD9GpbiaRIsZnblRnUpZsQoxh2BlM0sX5DhGKVQ/eo94TWYOJiqRqSYzB2QIdI1mFrGpm14lSVLDqSbpLtI/9gOn7/wo9+Xhu/fEcvZZfIr12k2KgWGHTNdfzM7/wG4xuuQZfHCQ1/fHpTABFwbgU0iSr79WU1HXxPhsAUYgLgMVIhI9inMkG0UcqGASjgPE4FUgd9bnjPHHvF/nO1/4SlhezOG4eyn1JLTUDgZdIEN1A4DWlV6piMrdwcRi57j1ceeuHiCZ2U5cKaIziScXhsw4WeG+JFVaV7GOsBkEpi0NEcFja4rGAUU+kggJNEZx4xnyH8uo0Jx77OvMP/w0sn84yh4W+etVXEM3jryJgiwxs38VHfuHX2XzlrWhlMB9sDw7JZwp7RCXfsoWCZDvKzywTcp9/NSiCz7KwVfAoiCNJmswe28/XvvCHnH7kR9CsP3NBIdk+A4FLRYjpBgKvKZmU5GoHrgWzh5lfPMX44CA2jhATZQMRxOBEUDF0ETTvn5xpmUHEZNYd0MZQRxDJYrcKJAixOirdZezck5x66HMs/PhvoD6d1wLndbyvBmvilsWxu///9s46To4ibcBPtY2vxN2FGCEkwYJLcAluwZ0ABwcHB9wd3OF6uPvhLoFAcEmQECCBuBHivjba3fX90d2zs5NNspuEJfddPfwq7My0lL9Vb731VsUqps2eQshyKI3FCIdCSM0AoSOkjne+vMD314H3SSDQ0KXuiVnh5ZknaPG2BAkXiUQ6aZzqFSyc/jWvP/swK6f8AJka361mXmYrFE2OmukqFFsEgUGP60kDLQLxFpi9t6Nbrx3RWvbFDTejxoig4Vn/Ck3iSh0bjRoBQkgs4aJLDVuCg00El4h0Md0chlNNavV8KmZPYMW0cbB8NmQqvZmtEL/PDHd9aCbESmjVrRfD9tibDr36kyhri6bHcXXTP+9WAJo/A/ZmvpovLQUSXToIXBzh4soMOBkyNVUsmTOdCV9+yMypP+CsWuntc96cKnOFYiNRQleh2CLxZ766BfG2hLsMpl23bYm06Y4dKSUSiuNoITIiQlaYpDSJFA4hXHTHwHJsdKcG4dQg05VEMkuZP+NLVsyaCMsXQs4/rk8G66lN2Q0UTjEFaAZEY7Ts1o3+A7el38AdiJa2JBQpQTOjSC1EThhIPCGsSf9+6WK4WbBrkJkKculVzJ05jR+//57pP02E6jXenl8/K5s2jQpF/Sihq1BsqRQeZi800GNQ0gatQ3fatGxLpqwtoWa9MONtMY0ImpBYMkW6pgq3YjErl04ntXI+2cXzYc0SyFWAm6ndc5vfYrSZrZU3ROA3OnilLJDDmgGxGG06d6Nzt540b9eZZu26kShvSzhRhtAMXNcllU6SrFhBxbL5rFo4j99mTWHBnKk4NUnv8ALpn87UhMlSKBqCEroKxRZL4AoxaKKBX2J/b27IArPU86Ws+64eXcfb8pNLgl0N0lerSs1XI/uz2uDkooZ4tdqcFE5y8z1PwV5Zf/02f+CBrnsHIlgxdDOMkAKEg+PmkNk0ZJKQy3rbf6TvTCOfJNW1KbY8lNBVKP5bEb41UN4Pc7Auiy9YCwX2FkRe3Rt8rseiKVAh4x2Q4C3pFklsWRCo57kKxRaIEroKhUKhUDQRygeaQqFQKBRNhBK6CoVCoVA0EUroKhQKhULRRCihq1AoFApFE6GErkKhUCgUTYQSugqFQqFQNBFK6CoUCoVC0UQooatQKBQKRROhhK5CoVAoFE2EEroKhUKhUDQRSugqFAqFQtFEKKGrUCgUCkUToYSuQqFQKBRNhBK6CoVCoVA0EUroKhQKhULRRCihq1AoFApFE6GErkKhUCgUTYQSugqFQqFQNBFK6CoUCoVC0UQooatQKBQKRROhhK5CoVAoFE2EEroKhUKhUDQRSugqFAqFQtFEKKGrUCgUCkUToYSuQqFQKBRNhBK6CoVCoVA0EUroKhQKhULRRCihq1AoFApFE6GErkKhUCgUTYQSugqFQqFQNBFK6CoUCoVC0UQooatQKBQKRROhhK5CoVAoFE2EEroKhUKhUDQRSugqFAqFQtFEKKGrUCgUCkUToYSuQqFQKBRNhBK6CoVCoVA0EUroKhQKhULRRCihq1AoFApFE6GErkKhUCgUTYQSugqFQqFQNBFK6CoUCoVC0UQooatQKBQKRROhhK5CoVAoFE2EEroKhUKhUDQRSugqFAqFQtFEKKGrUCgUCkUToYSuQqFQKBRNhBK6CoVCoVA0EUroKhQKhULRRCihq1AoFApFE6GE7h+K9IKoJyCLL1Yo/jhE8RcKhWJjUEL3D0N4YV2dmQh+0IrCOm+o5zoBQgOhe/9HgPTDJrO+eBX/9nvgp+8PpTB99eX//ye0gjr5/wwh/DZSWIYKxe+DINJDTamaGk2AZoKuo+mgCQ2QSMfFdV2kI8FxAbeeztst+hywthASEZN2rZrRo2tnVq9ezcy580lVZcANZtObguYJb4E3K9eCd0tfuMuCyfomztyF3zEGBIMGuYnP3VSE7gsjF6TmlY0M4rOuctoCCfI3yGMp/cEZBdoYr47Wpu+/GT+dGuhhnY4d29KxXVsWL13Or/OXkktlwbGLb1IoNgtK6P6uFAgKTUOYGmbIpEundmzdvw8DBvSmeXkZpbEIruNQUVnFmsoqfvzhF36cNIWFS1eRy7i4tl3Q2RX/vx6kQERNLjjnOM485XhaNCsnmcrw048/c/aFV7N86RqQTvFdjcSfDQiBHrMY2K8nwk+v67rM+20Rq5eu3nTBKwQibDKwX090XaIJcGyX6fMWU7OicuOeuTkwdQb0641l6biaAEfy64KlrFq6DNzCwc8fFL9GYJVF6duzG4ahAyClpKomzYwps8Hx4x8Mrv4fCd1wWZTr//FnDtp3T0pKoiSTSd5+7xOu+PutpKtS3uBUodjMKKH7u6J57dvQadu6GSMO3ofhw3dl0Db9KStNYBo6hqb5wkriSonrumQzOZauWMnkn2fw1jtjeX/s5yxduhqZ7wQ2IMCkzuAd+vL6iw/Rqnk5mqYhpSSdzvDPG+7lzrufxLVzxXc1El/o6joD+nXjnTefJBIOoQGZbI7b7nyYO+99CuxgxldfnIPPdWfodTB02rZvydefvUHE0hFCI53OcNFl/+S1V8b49xY/9/fHKony/efv0Lp1AoGGk3O47Z5HuP2eJ5BppyBeTR+3RqELjjh8P+665R9EoiEApCtZsaqCHfY6kjVL13iC9v+V0NVAk+x34K48cf/NtGpWDgiklFSn05xyzl94482PIKdmu4rNj1q8+D0RLnosxJFHDOeNVx7hlhuv5MDhu9G+dQsS4RBhw8AQOrrQ0IWOpRmEDYt4LEr3zh05ZP89uOf2f/DWKw9z2CF7oJsNLS6XHl27EI9F0TQNAWhCYFoGw4YNRTOKr8c34HL85cgCVeO6CH4WYBka5YkwzUuilJdGKS+JkIhaaCIQPO7GCx8hMQ2TskSE8pI4zUoSlCXiRCMhX+XZxAhPpW7oOiVRL07lJXHKSmJEw9YGs21LQwtbjDz2MFo2T1CeiFCeiNCsNEKX9i0YPLAXGAVluCULXCELltT9usy6xnMCDJ3ttxtCLB5FCOEVqwbRiEnfvj3QLHPLTq/iv5Y/oNf6H0FAs1blPHzXv7j/zuvYpl9PwpaW7xOkK/2Za20I/hN+X6FrGtFImIH9t+KR+27iiYdvIR4Pb1ggAmvWrCJr1+0opXSZPfdXHFm03qgZtO7UgQcfuoXHH7mNJx69lbv/fS0t27dscMejoSHQ8FIocNHX1eMVEKS0iEJDLym8PtQfmGjC0wtof9SaqW+YpkuBENJPNfny81TL9aRpi8OL59Zb9WD7IVtj6AbCT41AxzRNDjlgbzTL7yIaVg3+GMIGp552LE88egdPPnIHTz56O6eecRIi5M3c124vLjgus2fNxnZcP2kCgcB2JQuXrMB1XNU9Kn4XVK36PRDQsmNrHnngJo48dDhlJWEMvTazc65DZU2S6bPn8u4Hn/DMc6/y7Auv88FHXzJjzq/UpFI4ridUNCEwDIOSRIyD9tuN55++i7btmm2w5L75bjKvvvEuVTVJbNshlcnw6/xFPPbkC0i7qAfVoXmLGIcfug9HjhjOESP24YD9dqV5aWIjBMjmFzr5JxY+drNYYG8qcq30ysAASW7+fNh8eMMWBBwyfDfikUh+Pb42zhoH7j+cdq3L6xFaWxaGYbHjdttw5Ih9OGrEcI46bF923LYflmkWX1qLAx9+OJ5vv5tEMpMh5zhkcjbjxv3AmDGfQW5Tl18UivrZQNetaDQaxMqj3HPLP9hnt2FEoxaGvxUhYzvMX7yU+x99lmNPuYj9DjudY8+8jHP+cj1nXfYvjj7jEvYZcRpHnngBDz32HAsWLsH2jah0TSMRi7LrsCH8++arKStP+J2h34EWdvAC1lTUcOU/buX8P/2NG297iCv/cTsHHXEq02bM9WWFr0IWAjSBYehELIuIFSYSChG2THRdb5zc+N0758Ln+3//3q9cL8UvL/68BSPBiFjsvccwQiHL+0p6RlSBcqNti3L23XMXMLbkbkJDFyamqRMJmURCFuFQCMs0EHrQNorxdgYsWbqKk06/lEsuu5abb7+PSy6/hhNO/zNLF6/0dg9ssoW/QrE29dVIxcYiBFo0zFWXnssB+wwjFjbQEbhSUF2T4pNPx3Po0Wdy+d9v5/2xXzN/7hKqV1SRWl1DanUNlcsr+W3OIt7/+Fsuu+YujjnlQj4f9x2pTAYE6LpONBph37135eJRp6BHrXV39LZLxYoqXn51LDfd9gj3P/wSc2YugZy/HaQeNPzdTL4K9w9TKQZjifXyR0Wu6L3/jR2zH+UhA/vQr28vb3AF5Owcq9eswZXeGnzI0tl3z10JRTyhvOUiEcXlskFcsB2WLVnNo0+/zbW3PMiDT7zC0gUrILuplv1y7XqiUPgoobs5sQz69O7CqaccQyRsIYSG60qqa5I8+9yrnHzGZUz6aRbZqrRvGRkYGPlWodIF14FcllRFNeMnTGXk2Zfx9vufkslkkf46bzwe5ZQTjmTgVt1ALypCTfNLVYIDTsYmm0zjZjJ+PxDMirXaIDX0vCD21rb+K5D5f4ooSl8+bI50eeXl7Qpa1/MKRw0FcRFBCH4ujl8Qx3U9d3Pg763WXc48+VgikRBCCFzXZfmK1TzyxDPYrid0hNDYYbttad2ipGAfdlMR5NuG3hvkV3BdYX3wnyGLnxM8G3AdZDaHk7SRGdfTOwt3E53IFAvdgjqwwfQUUhD/IKxVXxoQpJ/WjaUwixsTfUW9bGJpKDw8NW28NMYdN1xF89IEum9Zm8lkeeW1t/jHjfeyfHmlv+9RNMzVYzbL4gUrueKqW/jki29wHK8z1IRGq5bNuebKi7Fi4drnFDcIQV59XGuR7F+UVy2DLgQmWj42EglCIIL7dP8ZQSh+z+Ymr/ou/qGQ+n70TVCF7z0pn+aC3xtCkGf1pdd3+uE05lm6BoYBhgm6BZrlO9aoh03tIBuEwIqG2G7oQAx/3TNn27z8+ju88c7H1CS99UyBoHmzUk48/kgw6zN531j8ctINhB5CGGGEYfl5Y9R6T1sfBXVE0/DM2QqEqxDenm5P7gT1orANBO0gKG/Nf1Dw3oJrNoQQoOtgWGBaYIbACIFu+uXcwOcE5OtfYZyLHhPE2dC9sjEN728vM2rZ2IGDADTdS4NREDRz7XcEN2zsu/7H0DGbXVP8paKRSA0sgz13G8ol559K2DQBgeO6TJkxi/MvuYZFC5YXVMoNCVz/d+F5faquyTBn3jwOP2x/ImHPIlPXNGKxKB98/CVLF6/wbgs6EJ9wWZT2HVvQrEUJzZolKCmLUVFR7a0Rx0N06dyGli1KaNOyhB5d2zPisAPQdQMhIJVO88UXXyGFS2nzUsqbl1DevIREWYLKiqpaBxCaRvvWzThl5JGYpokAbMfhi3ET+GLc90jfIKxRFM6qNI3y0gTnnnUClmEggFzOZvSYT/hp0vTCu0AXtO7UjhatyilvUUZJeYKckOSS6QbkuY8mKGlVRtv2LShv4aXZCJskq1O1twtBKBxi1JknUlLiGSE5rsMX4yfw+Vc/gGt7nb3l0r5dK4YO6sd2Q/ozdFAf+vXqRId2rTAMjYp0yreSpaDMa99RWJabD6+z3n5If0adPZJQyEQiqE6muemOR/j6h18Ytv22dOva0dtKo2vEolFefmsM2ZpU4wUI1Aow4eWvZhm0a9+abQb0YvDgPgzZtg8D+vegS+dWRBMWKTtNJpfzZ5v1lJkQtG7fkjatm9OyWSntWpWzz9670Ltnt3zs5v46n5+nTidSEqF58wQtm5dQ2qKMnJBk077WR4NmbVvQqm1zypuXUNa8FM0ySNWkattqneUDPx34ZaNpCEujVdtm9O3Xg22H9GPbwf3o168nnbu2paQsSsa1SWVzELQDf8y9TgTEWpTRrn0rWjRPUNYsgW5ppKpT3u+aAFOjvHUp/Qd0Y7shAxi67QD69+1Jl85tsSIGFZkUjp3zq1R96VgPAjAEibIEW/XszJBt+rPdtv0YPLA3vXt2plOHVmimTk0ui+24fpsQdeuuYr0o5xibim+lapVFufe2Kzn9hMPR0JAIVlVVcfIZf2L0mK8gVyh8CgXABmqqJsAVRBNRrr7iXP5y0Rn+/leoSaW44ZYHuPGOx8C2/b22mvdsQ+fiC0/hTxeeRsgykY7LmooUWw/dl1wyxd777MwTD97qq8EFuqETi4YRQkdIcByHVCZNLufUEVUV1TVsvcMBJFf5QsjQGTqwB5988ALRaBQBpDIZbrj1QW649WHcXK5hwq4QzU+DlKDrdO3UjkkT3iUWDiOAmmSK8/70N57+z5t1bjNLInzz6Zt0aNsCgSCVyXD/w09x0w0P1LlufYhIiAf+/S8OPWhPDMMbvX/2xTccffJFuMms32lqJMoS/PLdGNq3L0dIjWwuy/W3P8D1tzyKm8vSpkNz/nTeKZxwxAhKy+LoRuDbV+I4LulUlinTZvH4E8/y1pjPWbOqslbACH9mFiw5bFYEetjkzefvZ/hew9B1HReXOfOWsOs+R7Ns+RpGHLobzz92F4ZhIIFlK1ay34hTmTRxqlffN1Bl18a7x4qa7LzdEM4680S232EgpYkYhqGj+/XZdV2yts3Spct5/Y33eOq515kxa4HfdoI6JNFDJi89fz87Dh1ESNPQNQ3LMgmFLb/7l6RzWTI5G9fxdBISQRZ49PFn+fu/7oaUjR4xeeOFR9h+u60Rnn6Ht94ey3kXX0O2OutHvTD/ha+uddCjJkO26ccZpx7D7rtsT4tmZZimgabrICWuK8nZNitWV/DRJ1/y6FMv8/33vyDTOV9uryMTTYPbbr6KY486iIihk3FsXn/nQ84//2/g2LTr1JrTTj6KY485lDatWhAyTb8/8JYIMpkMM2fP4eHHnuPltz+mekW1X2c3VI8k6JL2ndty7IgDOfaoQ+nWuT0RK4ymabia1x4d1yWdyTFj5lyefOoFXnrjAypWVjW+jf8P0xS6rP//CEGHNs05YN89/fVQz7vNN9/9yAdfTIBswdptYeVsyOjT9UaQqUyOp59/g9WVVWQdm6ybQzM0Dthvd8yQX4wSr5OWni/kkkiYZvEY5bE4ZbE4sUgEITw1XCQcJh6PUBKPUBKLEQ9HvF22/oBV1zRi4QiliThliTjlfiiJRrB8wxvw+qF1pcLNn5i0mahv1lOArmuUREM0S0QoT0Qpi0aIm7qXMWI9I3GvyEBIhCaIRkzKElHKYlFKoxFiIRMjcMQhWKezD4HEMHR22H4go197mnPPHEnrVuWEwyFM08QyDSzTJBw2KS2Lsv3QAdx957V88NYT7DpsIMIqyFdZVFc2FwI6d2rDjtsNzA/ecjmbV15+g5Ur1yBdlwkTp1BRVY10XQRQUhLnxGNHoPlWzo3DBVPSuVd7XnruPp595i4O2H8XWrcsJxYJEzUtIrpBRDeImhal4SjdO3Xk4vNP5/03n+bvl59LrFm8jtpXaDbRiEEiHiZeEiUSD2OEvAGCdwWETIN4JExpPEpJPOrX8zCRkOn7OgdN04mHQ5THY379jhEJG55bT+HWI6gkCJtO3Vvx3BN38uoLD3L8kQfRuW0bEuEIEdPC0nUswyBsmsQjETq1bcVJxxzGmFce5YVn7qJdtzZgrmNpAdA1l0TEpCwepTQRoyweJWKFEbpg510H89arj3HJhafTrWN7SiIRQqaJaRiYhkHIMimJx9hmQD/uuPkfjHnlEfr27ew5BlgvEhHSOXfUKXz4zgtcffkF9N+qG4l4lFDIwDA1LEPDMgwilkVZPMq2A/tw201X8fHo/zCgXyew/IGyYoMoobtJ+Gomy2DHHQZRGo+CP2JPZzO8PfoDcqnAYKoY0fD1OymROZsZ8xbx5ytv5tIrr+fSK2/g8qtv5OEnnvPcachgFO73Db7gNDQNU9cxNB1DCwQhCCHQhI6m6QjNXweVwt824j/GX9cVwXqXpiGEhpB+p+H3g+ttauv9cdMQgSD00YRA0wSaP/vRdYHMq2llbYTXovY5GhqaEN79moamaWi6hh44+8i/c+1nGToM2Koj9/77n/Tp3om4GULXNKQAF4nrz6Y0oaMLA8swicei9O/bk0cfuo0TjtwfLWLWjs02d95JgbBMhm03kHgi5pUrkjUVlTz/4uvYWRsclwWLV/D9Dz9j+7PEsGFy+MHDadumlV9vG7J+p3khpDN87514/T8PsMdOQ2hWEiNqWVia4c2ghMDxg9Q0NF1g6TqhUIj2bVpx8ahTefzef9GqXUu/fhuAjq5ZGLqOruleOQnqZJjAc2IihYGraUihe/VdeE5AAFxfRaxrBeUt6kub/1lIdtt9B156+gH22XMnWpWXErYsz2e1oSGFZ0Mt8dZkNU1g6AZhy6KstISD9t6V1/5zP8N2GgxWuDaP8uvR4KKjCQ1dw6t7QsfQJP37dOa+u/5Frx6diEXCmIaGCLaE+zEUQqALDcswSUQjDNq6L088fDudOrfw1mbx23kdBFrE4rabr+LqP59Hl/atSUSjWKaFrulIBI6UOI7EkdLrE3SNkD+o6LtVN1549iGGDRmIsHxnJIr1otZ0N5rahqlHQpx20pHsOGSAr1qGVWsquPSqm6haVV3nro3De5e0bSZPnc13P0xhwg9TmPDDVH76eSZu2q5tedIXqobOnjsPZdiOQ9B1HSklqVSKO+5/Cpl1iCRiNG9WzszZ85g+ay5Lli6jU4f2+dlPKpXmi3Hf8uPkaUybMYdpM+YybcZcfpk6i9dHj8XJ+n5pNY12rZtxaj1rup+P+94/LamRFKreitd0hciv6U6aPKNOR2tGLM474wTKSuIIBDnbZvy3E/nks2/964o7HJ+8UAbNtDjsoL3o16cHmvAGIXN//Y0XXh6Dncvlrw2HIpx3Vt013VmzZnHCCccwoF8vTMMgbeeYu3ARX0/4ka/GT2DCxEnMm/cbmVyOaCxGyPTSY+g6iXiM7bfflhnTZjBzzoLNL3Dx0hmOhbj+7xfTo0dXNEBKyY+TpvH4M6+SrE6DLzhWrFzKEYfuj2kaCOEJo4k//cLUaTML1gmLX1CIZ0C21+7bcf+dN9ClY1vCITPvlrQmmWTajNmM+3oC4775nilTZ7Jk2UpMyyQSieQHTpZl0qVjOzq0a8WHX31LNpVFCkH3Lp1YtbqC6bPmMWvOXEKRMCWlcS9NwK/zF/LF+O/5ZdqsfP2dPn0e48Z/x48/TQPHRbNMRh57GF06tkX4de6XqTN4ffQnuNnAOYYvhDUYsHUvHrrvZnr37EIkEkYXnk/zmnSG6bPn8dXXExj39UR++mkq8xcswnEdIpEwhmF4AtgwaNWiGUMGDeDrCT+wdNlKb63XVw+jSYRucvB+ezBwgLeVy5WShYsWcOzRI+jdvQshw6I6lWXqjNl8M+EHvv76B6ZMnc2aygqi0TAhy/IHDxq6rtOieTO6du/Gu+9/Si5nF43mJOiCc885iVFnnECL8gSm7hnMZXM5ps+ay9iPvuCdMR8x9tOvmPDjzyxetopYLEos6qVL1zTKSkvo3rsHH3/yBZWVyQ1qpP7XUWu6G01tjxNpXsKLj9/GQfvsChIcV/LxF+M48JhzsSu9Pbabht8okfXMmoPf/JdI1xO6IZN/Xn4ul11yFpZl4TguK1atpmP/PbCrs+hhEzNk+DMug4F9O/PeG8/kvfisWLmaw445lV+mL/J2Qfpq4oxtk0umPCts6U3vBm/dg8/qWdO97raHIN95NYJ1remGvO0twZruM8++jSxY84w2i/Pz1+/SpUNrBBrJVIo77nmEv117j59v3nrbWggtrzI2ojGefPAGjh6xH4YmcF346LOvOOzoC0nV1HgdpHQpKS3j5wnv5dd0bcdh+YpVJEoSmIbBijUVvPjyW9z/2DOsWFlFNuvFUzN0SqIme++2A1deej7dunTENA1AkM1mmTNvAQcfeTpzZi/wZj+bUz2vCbbbbgDvvv44ZaUlaBIyOZsbb72fG+58FLsm468nC6wSg4mfvk7vHt3QNI10NsuzL7/NORdejZt2/fpWXBfr0qVHR17+z/306dkJyzKRQuDaLr/OX8Std97LmA+/oqIm51nlCzBNk46tyrnw/FMYcfC+lJeVoGs6rnSprk5y/e0PcOsdTwAuZjSMaXrWwfGozp03X8URhx2A6Zfvi6++zaV/u5HKart2sCUhnc5gp70ThPR4hLGvP8nuOw1CCG9V98VX3+akc/9GripVO/gTgtZtShj9+jNs1aszYcszlLRtm3kLFnPHPQ/z9pjPqKrOYNsOQgo0U6MkHmLEgXsz6pxT6NqlPaauIxBkszm+nzSFQ487j5WLVhQIdgdhhXn439cw8viDCJkWtuuyurISKxRC0zRmzpzPbXfez5dffE9FKuW9T2iEQiYD+3bh6isuYrvBA4mEw16apGRNTYrhBx3PxEmzIGvX2gkISdeenfh4zCu0be7VW1e6rKmo5tHHn+XBp15m1eoqUlkb13URmkYoZNG2dTn33PI3dt9pCOFQCOlKajJZ7rzvca69+UHcmrRfAzZj3f1/xDqG/ooNU1uh4pZB6xbN/E9eRf/5l2nekXyFs7ZNRtRVSaEVCdzaP+t7qwB0P9pOKkN6TQ01q6tYvSZJZTKDzK8jChzHobo6Q+XKKqpWVVK9sorqVZXkKpMFJwcVUSzQCscDjQnF1PfdFoaua7Ru2ZKwabF6TSV/uvTvXHntv5kzYyGVyytJV9SQrqghubKKJQtW8ewrYxlx7FlM/OkXsv4MxLJM2rdvzblnHQ+m8AXupiZe5OuJGTbZf59dicWiviwXVFZW8+Krb2Nnglm8V47ZmhwTf/rF84gGGKbBXnsOo0PblnWevi40S+PiC06nR9cOhCwThMC2HcZ/N5GDjjqVx59/j4ULVlO9sopURTWpNVVULl/FL1PmcMFfb+Lv193JqopqXNdFExrRaISTjh2BFfW3OFWnSK6uJLlqDavXVJNNZ9HzgwBBOmOzqiJF9apKqldVUb2ymurVVdgp/zzpDeZr7e+aJRh54gi26tmJkGl6mg3HYfqcuRx36igef/otFv+6iuqVXjmnKqupWVnJ4vkreOjJVznhlFFMmTYP2y9n0zLo16cHJx13EITW46oSgabplJeVYZomn3z+NSeeej6vvPkRvy1cSeXKKpJrqqlZXcmqZav55IufOensv/LBZ+NI57KARAhBaSzMKSOPwih+l6Gx2w6DaV4axvDtNGpSGa646npuuuMxfp2zhKqV1djVadxkFqc6TXJlJbNnzue0UVfy9cSfcRwXKSUhQ2e/fXYjGo3UfYdiLZTQ3VSkwNINmpWX1fl63vzfcPMHGjSWYilU0EFI/+D02i/8GUf9xj15/HVe70mF10kQ3mqj8Gc5Xt8r/N+c2nfIgkWkYOE3T/BkFykgFDZoVhYjVl5CrDzRqBAtjxP1/y4rj1OS8E6C2ZIJXIqkUmluuOUuXn/7Y7L5M1kDQy7pOV+QLjKdZfqMBZw66gpmzv2NnPQEQTQSZsSh+9O2feuCctocadcIhy322GNYXoUoJXz99bcsWLbaXwYoCDa8+OpoUhnPitfQNMpK4xx2yH4NiI6kb58eHHLgcGIR3/rVlUyaPI0zR13OrJkLPSte6Z8MVDiIdAXZNUkeeeZ1Hn/yJWoyGWzpIHTo2rkDw3fbztvLmx9wegjpeaWqGzV/y5F0ABuk3aBzpP3xiIfQ6Ny1A2edfjIhyzs5SyKZM38hJ555KT/8OBM7maudPebbB+BKnGSGHybN4NSz/sSiZSvIuS4CQSwaYdQ5J9O9e4eCN69NEI0VKyu48u+3MXXGb94WOBmoiv1W7QrIuSycv5yrrrmDpUtXBCtNaEJwwPDdiMfqrrkKTWfokG0xDT3fvqbNmMnoMZ9RsbrG3+bkenlWGLI2SxYs45ob7mJVVQ2Lli/n83Hf8fbosQX+B+p0DooClNDdZLw1uUjE284iAVu6LFtZuSHtW/0IPDVonVDQKQUCUbBe1eNavwgvOgK/t/XbajGCQMMoPUMTQYElpx/yf9c2eq/Nem81DY2RJxzO2Lee5PP3nubz956pG979z3rDF6Of4YvR3nUfv/MMzz95N6H1Oa/fApBATrr8MHkyz7/yDm4mWKvzCZx25K/2OuXpU2fzyJPPkUxncAXomk6r5s0548Sjfc1BfYY9jcG/V9MYOqgf/fv2zAsnx3H48OMvSKXqWwKQfPrVd8ya+6unWpQQNk2G7z0MYW5g25AmOf/sk2leHsfQdU/Vn8xw5z2PMHvmIr/aFD6joLb6FdBJpnn6+ddYvqqKrOOScyWuBkeNOAhD6L6HpqASew8Sa+VTQ/Ju/Y1UmILDDtqHDq1beOvRAjJZmwce/Q+/TJtXuzMhEDZBWym0frZh0k8zuPOeh0mmM0hAFxotyss5cN/d1pOX3jMd2+W6G+5g2ox5BVsP/TwL7hUuCBtch5lzF/Dpl1/nnekIBC3Ky2jXuoW/dOOjCVq2auYLXM/Ib/mqNVRkis8RricfbYfPv/iOU869gr0OGslBx57DdTc/RPXy1XWvU6yFErqbAU3XCIfC3gcpvQPjM9m1K+r60ECLh9BiYfSEhZ4IYdQbwuiJEHoijB6PoMVCYFDbeaz3levzUOt1HvkZZZ3nBB1KQecCBdUncJLvzfcMzaB9m9Zs3XcrL/QrDL3Zun8vP/Rk6369vO8KwsCCsHXfXvTq0SW/lzPPegYcfxSpdJobb7+XlauS+bXRPMEsIY9fXg48/9IbLF68HOF6abJMk332HAZmsKa76Wk1IwYnn3AUcV/9J4HKqio+/vxb3KxdXOCApKYyzQcff0k2l0MCpmEwaGBf2rdptvblAUJgxaLssP0gzz5AeE5ivvt2Iu+O+cyb+Ut//3EQgvpVJwimzprPOaMu59zzr+Ds8y7n3Auv4PlX3sJxcgV5ua68EYi8h6p1RXZDSMyIxh47b4fpO2YByfQZs72BVTJdzyC0Pjx/50889Sqz58zF9d1shk2T/ffZDRFZjw91KVm9ahVvvPM+Tq5YGPp5VWd2KXHSWV57610y2ay/ZOQNhJuVl9QVulJSU+MZegaamlbNyomFC+Pj558IBv7+9xLI2rz31qfMnDqfTEXa81m9rixQ5FFCd1Pxt9+IQi9KCP+s3IZjJqK8/eJjTPjkJSZ8/CLff/ICE+oNz/P9Jy/w/ccvMeHjl/jknWcYtvPQdbbZQjwFXF213Np48fZ2aAbXBg2Ogs9B4yt+ltd8dQRCFwgdf9uRt/WobtARurZW0IKtOkEoFrhbKMtXrGLarAW1rj4Lq0DQJxbnvRRUrE7z6cefkvOPk9N1jQ7tWmPGov5WrU1Pf7OyONts0w/dN+YBGPvJF8xetKLWW1Ixtssnn44nmcqAPzsrjSc458yRRfW9AE3QslkpHdq2QvP9giezWZ554XWqa7Jrp39dSCDj8tHH3/LcS2N57sWPeeGlj3l/7LdIx/HVnsVtrLhur+tdxfetm0Q8ytZ9e+eLQErBJ59/RXWN79Vqg3UzuBGSNTkmT5pOLmcj8A4wGdi/Dy1blK4zqlJKlixbQUVNZkOT8locyeRfpmPbtYM8ITTCoZD/Hu9lUsLkKTPqZGOfXt358wUnESuP57cRetQ3sBC+yt7/e4N5oUAJ3c2DlC65bODBxlO1WlaoUZXQMk26dutAn95d6Ne7K317daNvz+7rD72606NbR8pKYnU7mLVe6/X40lcj1fm67h/+Uq3fwPINbn2dVF6a5HGlJGvnSKUyJJNpkskUqWSaVP7/xSFVJ9SkCkI6RSqb9ZVfWzKSxUuXs2KN7wFIrp0vwXXF5LI5vhr/HRnfaEkTgvKyMkoT0do6tFaZNgJdsOOQAbRv24KgBti2zYuvvUM62PpVH1Ly7Y+/MGvub56KGYFpGBx00D7ESmL1128hGLpNf8Jhz9IcXwMwZdavvtCo5576EN77pW3jZHI4mQxOJocMtr2I4Jrg4rXvb6iMqh9vO02/3t0pLYnl05KzbSb++AvZtN/eG4qQuLbLF+O+I5PL4fqD9UgkxDb9exdf7afJ27JWU5PEdoI6tSE8TUIymcHOObWaK//4Tg8/82zJV+O+I53O4viOUCLhMGefPpKnHrqJESP2okW75mgh07PArKN1CQqgnrxXrBcldDcVCa7rkMl6swHhzwjisUijKmWwkd4wzNpg1gbdNNCN2mCapuflyDDqzgQL2qX3be1vgbFJ4a/gjVD1OlXBnzEI6u9Y6+B3gAU4jsOLL7/FcaeM4uiRF3L0yAs5auQFjQyjOHLkKI45+ULOu+hycjmnAXHZfORzp4GvdF3Jb78tIp3ylxXWJXPr4F/gwvxFK8ja3gxICIFlGvTu1tmPgNiEpiqxYhHOOeskopEwIJCuS1VVNd9Pmu5vIQlUvkG8a9fwqiuSvPDS62T8rV+6ptG5fWt6dG1f/zm7AoYM3hrd348LkEplWLJ0RQPyowgRrJc6oDmeZyVNenlSUDDeY+sWlMwr8P38a2A51uJ5deu7VU9Mo/awh1zOZur0ebjrGavURebbGALGf/cT6ZyTN/kyhEbvnt29awqd5fj5L6XwVibcWjei60V47VFzvL35+PXJReCVSL5mgyv5/qfpjP34c1LZLK5/bndJLMoB++zMg3dfxzuvPMTdt13JaScfxY47DaZN57bo8VCBdX1xRS98h6I+6mk1isbiOC5VldX5hiSADu1aN0otaNsONTUpqqprqMiH6tpQVU1lTTXJTBq3qJIH2z82xNoCt5B6qsJGric6rsvseQsZ/fG3jPlwXOPD2K8ZM/Yb3h/7De9/+A1fjZ+E4zQ+HpuH+vJqbaTrsnTZCqQdzAgaR1W1t+cyQGjQsX0bTxXc+McVIOjTszP9+/fGMHQEnspy0qSfENkMzcoTlLYspaRlKSUtE5S2LKGkZYKSVglKWpVQWhbh559/JpVOI8HbvhOOMPL4EWj1nTykCTp1bJefYUkkuVyONRWVxVc2jjrrwAVu09ZFQ0dL60PTaN2iBbpW67Yx5zisWLnaV3E3nkVLlnpOKvy4a5qgVcv1rJHDRrVB8PKg0Oq/jqGZ37TttM2oi//G9z/+THU67c14hSBkWbQoL2Xw1n04/cQjuP3Gv/Lqc/fx0VtP8+zDt3P04fvToXM7tJjl70MsDop1UU9Pq2g4XgebyjosWr4aF4ErPPXgVj27emtaDax/mXSW8y+4lBNPvoDjTrmA404ZVSccf8ooTjztAm6+9U4c19sbJ6WLlK4nkNZaW20oDYxgI3FwkbYNOacBwa4b7Kx3gIOdw3Fy5HzDky0ZV0pWrFyVn100lpp0psDRhzd8K08kagVMYwmspXWNXXccTCISRvePExRCsNVWvXntxYd57/VH+OCNR/3wOO+/8TgfvPE4H7zuhfdfe5y7bruOSMg7TAA8C+tjDj+QNi2DtUiRH5wI8BxvFIzZqqqqcdz61mB/Zza2SQRpEoJEPF5n/TqdyVJZk9qItHiZ4WRzVBUOQIQgFosUGGQVXh/8P1hPbRwbTL6U4LosW1rJyadfwmNPvcKy1VWkMhnf8lmiaQLLNCmJxWjdojm9u3fmsAP35OG7r+ODt57k/lv+Ro/uHREhz2hOsWGU0N1UpLeFYOmyFUgp80YqgwcNIBzWG1DzPdxkmnFf/sS7733NmNHj1g7vjmf0B9/y26IVuAWGL8HJIg1+EUWXruM2jcBP+jouWB917gs6jPWE/MylMNRatzpQj/P534eNSG2ekLUxBwJ46L7RUSGeY4qNiJGvygSBEbE4csT+hEOei06B55u6des2DBrYnyGDBjBkmwEMHbR1vWHIoK3p07sH0Uit0wNNCJqXlTFsu208h9PeS0HgeZ0q2pFmmla+Xfy3UejxDD/t3oEJjUlPXQGtaxoiUP3iLU2sdVm966ebG1+gu4L5c5fx17/fzlEnnMeDjz/PT1Oms7qqhkw2h+04Xp8jJZoQWIZBSTxG7+6dOfXEI3j71cc55vDhaCGjYDlEsS7WbumKhhGM6oQkmc0y+ecp3vmS/m9t27Ri2JBtfBP9hlTComskBWtr3qhbaBqDBm1dR2Xkui5V1YF/54a8J2Dd1wq896/7ig0R3FnYAINOpDj4eVkYAotd4T1Do559go1mfVW9tmP1nITU+bFBaEKjVatWdZ14iCBthVcWEPwOvr9hvaDfFayqqETWe9rNhvDzXUiGDRnAVlt1x/AdYhRd0eBQjGUZ7LfPHphhvWAABSBZXbGmVlwIL22Be9H/CoLIS0l1dU0d7YVpGiTiBQZuG6RuQwqFLBKJBJrwhiFSSpL59rsuitZ7Nwlf0ArPXSwEBSzIVqcZ98X3XHr5zey+/wkcfMRp/Ovmexkz9nNmzJrHmopKbKf2qE/PsE6nZ9dO3H3L3zn8oN0LTlBqaP7877G5SvJ/kNpK5WZyfDl+IpmM53NUE4JoOMTRhx+AFfL8tK69nWFdFOyHDTpc34DEDOvssssOBYZTnh/X+QuWFD2j8dQ/E6ntbBpPsE8ySHfwd3Go572BatQfNetspMyV3vqyR+H2hyLyYwAvF6xgxio9l54NQdMFbdu09I2LagcM6+2chZ8vQlCaiGDmZ7ue1eqv837bCDWmj/TefdghwwmHrXxeulKSyTmks27dkLNJrSekczbZgg4XBPsN34P2rZrVplF6gmrevAW1+SYhZOo0K48XZPSWjcCvC47GoqXLsaWbH1IYhk6L5qW1/lQbQr5+Qfu2bTAKtBpSwrKly+tc3rRoXsR8AyzwthzVrEkz/uufufGOxznypIvZca9j2H73wznzvCv4cvwPVCVTBadmCcpKE1x+ybm0bFbq52DQ5tdT//9HUUJ3kxHguEyZOY9Jk3/Jdyq6prPbLtvTvn0LP5cb0UgprKu+IY2u07lDWzq0a5s/D9SxHWbMmM3K1VWFdzaMBrWFBl30+1LQn2+YovVPIYjFYoUXbACBbugkEom1jg3cEEIIOrZrQ0kiWhTbBuShptG/T0/v1CG82U8qleLXhYs2Uuh6HV44ajFs2GDvYAA8JxWTJv/CoUeNZL8RJ7Dv4SfWhhEnsd+IkQXhpIIwkgOPOInrbr2LtL81TgDlJXFGHLwfmmXUxtOFr7/7ETf4LCThcIh2bf1jATeKYmEddOq/DxK/2bkOP/08lVyBgVvINOnfvxcYxkZEQbLzsB3qzPpd12X69JkNreCbAeEPaHXQCkKxRka64NiQzZFLZaisqGHWvCU88+r7HHTsORx36oVMnTk3P7jSdZ1ePbqw397D1ntesEIJ3c2DhKqqFC++9m6+gQohaNemFTdec5m3pzHfUTRi9Cf8fwSEomHOPuUoSuNx3/8rpDMZXnnjPXIZt+HPXCdr37+l7I1taCyk9PaESn9Gq2mCjh3a5Wd59SSxLlJQGgvRokV5oy23BYK2rZvTpnnCV41vYJabR6KFdPbYdQcs05thS98oqyKZ8YVZQ55TiARc9thlCF27dMT01dbpnM17Y79k7Bc/8fn4X/hi/OR1hJ/5Ylzd8Nm4yfzn2TdZtGRZPlcsy2TvPYYRjoZq67eESb9Mp7om6XXIEqIhix0GDwSjMcsEvqbDAC2kecHSwPDPhW10nmwErsv02QtYvnxV/ivDMBgyqD9WSG9M9fDiqwt22mEbLMvwWpeUrK6oYtKU6Y2qa5tGUK8LPIIVWoXnfw/i49tXuJ7Ro5vKUrWykvc//oarr72VdDrt27JAOBRi7z13Q/9vWkr4A1BCd5PxKqiTzvDBx+NZvnxlvrqGQyF233k7jhqxL1p4Iyqi349plsVuO27LyccdjumvBSElK1ZX8Nm4iRu9fQG851Bfk2+AjApY697NQuOf6roOK1eu9I1fvD2HvXp2R4+EG5AYCTr07tWJDu3abPjyeigtiXPIfns0bqQvoE/vTuw4dBt0/6QX23GYO38R2VSucLm5Ueim4MzTTyRqhdCEd8ZzTTrHh59+iUxlvf25mVxRsGtDNlcQbNx0jmXLKvjgg0/zsxtNCLbZuh8d27YA3c8xF5avqmTx4mW+al9gWRbHHX0Y5S0C1WNDkIiIyZ8uPpNbb/wrt910JbfceDkXnX9SXben68Ab7zT0Xesmmc7x48/T8wNQTQj23m0YrYLBVR2KhVZQh73rmjUvZduBfTBMbx3ccRy++/4nVlXUbEx1Xzcbepb0NULCO2nITETo2KUd7Tq18euu9ONcuARUkFYpcZJZPvhoPGsqq/KGnbqu07FDu7wnMkX9qNzZWAq2d4AE22bO/KX844Z/k7NtpG/pV15eyrVXXcgRB++JsIIKLQsq9LqCX8lDOl26tuWGf/6ZRKLWM042l+PLcROYu2BZbZyK+wCAdazW1mmYQSPMf5SYuoGpr2+PqGeow/ou2Wj8PJI0YmYEdtZh9qy5OI6NlC6aLujUvi19e3SqFQr1Ib3Tblq3KeXG6/9BSTxaa8DWCEKWxTlnjqRH17a1QkHiz9rqCVKAZXLmSUdTUqDByOZsXnr9PbAd35iusL41AE2jefMSBg7og2V4sypXOsycMYevJ07x/egWPM/1T6nJhwLbqCBISGVyvD/2S7IFHsLKS0s47aRj0Sx/UCnBTmUZ+1Gtz2Zd1+jRtSMjjzrY9yftd+jF+VEYkPTv241RZ53Amacex5mnHscZJx1Lpw5tEZr/jCBI/8UFxGNR34YxaG8NR1BbBb3B9BdkcrVp7tShHaPOOAktavrPD+pJsEe7OAgwDf562Xm0b9cGQ9OQCLJZm/fe/wR7rQMGNpX1pTeo1xptO7Vl1HnH88qTd/DBm0/y75uuJFEaXUe1L3im/2fOLjooQ0qyG3N+9v8YSuhuNgROMstroz/j2x9+zgtew9Bp07I5N197KZeOOhErZtYzQq4HTUNETHbcrg9PPXIrfXp3y8+EpJT8On8h1910D9ngwGixgba2PqTXgIJTSQBCYYvtBg9CmPraI12o/Vz89WamMY93ci7jxn+XPwNWE4JEPMJD91xPh/Yt/dpeTyYZGiXNS/jXNZfRt1cXLD+fG4uu67RoVs5fLjwDKxH4uaU2//KC3PtB0zUO2283jjrsQMJh78AM13WZO+833hj9kScA8/c3Al1jl2GDad2iHM2va+lslmdfeJVUje++sFAmrCUk6gsgbZdvJ/zs7UcODmewTPbfe1fPuAh/oORIHnjsOZYsX5V3HxmLRTn/7JPYbmj/Wqf7koL8CPJIA3SsmMWoM0fSoryMSChE2DQQSF588U1/+UDLZ4uUkppk0vvgP3irnl0pCRfsHa1T7HU+rBc3m+Ptdz9k7q+L8jP8UMji2CMPZpftByGsUD7OhfEvDMIU7LHLthx39CH+4fLeUYe/LV7Kh5+ORzqF5Vub378fAgyD/fbZnauv+BPD9xxG927t2XP3HTlwz528NNWpc2vHR+g6u+40mFg0kp8IOK7L1GkzcOxa5x+KtVFCd7MhwbVZs3I1515yDb8uWFzgr9akY8f2/PWy83nu8dvZZ59hxJrHPQvIwomt315FWKfnVp25+pKzeP6Jexk6sC8hwzs8W0pJdTLJ3fc/yaxfl6zbWX1jkA5rqmtIpYOD7CEUCnHWmSPp07OL5/JN173ZohbMRJqAxs6iHZcfJ02npiaV/8rQdQYP7Mt9t/2NwYN6e9oG3VtfwxToMYvth/bnmYdu5ZjDDyRimeRy2caKOfA7/0gkzJEjDuD6qy4iUhb1Zz4F62W+Wk+LGAzfZ3tuvvGvNG9W5p05C6TSWZ5/6U1WrVhd14K9QXiCywwbXHDeaViG4dUZYE1VDV99OxH8QxXqCNTi4+jqCwBSsryiipdffTe/t1QTgratW9C3Vxe/n3ZBasyZu5CXXh1NOptF+uXQuVM7Hr3vRnbcaYA3S9S8Z9ZBd4kkTK7+y/kcfvB+xMIRhPQGIz9Nns6P02Z564sFOK7L4iVLcf2ThwSCrp06cObJR2HGTF/2+WXegBoloXbG6kpWLFvDLXc8RNp2cPE0WO3atOSx+27hoOG7oEeCpaPgyEHNP/daoFk6B+67Kw/ddzMtm5X5/o+9NnzTrfcwf8Hygm7Y10pthEezRiMl3373I9Kx0XXvUJGSRIwrLh3F0IG9wTT8tl5on+B6cTM1Bg3qyd+uuJB4LIbQvOWL6mSKN94e451aJQpUJIo6NFHv+b+ChJzNL5NmcslVN7Bo6fL8lhVd0yhNJDhk/7156em7+eLdZ7nl+j9z9JF7s9eeQ9l5l23Yf/+dOf/sE3j16bv5/N1nufLP59KhTWss3UTgebdKZbPc+8DjPPKfN/wj2eq+fqNwXBYvX82c+YvyVqeGrrNV76688uzdXPnnMzj8kL045qj9OOjgvb3Zb0FjrLM39Q/m5zkLGP/dZLKuRAoNITRMw2D/4Xvw5ouP8NSDN3HqyMM45ogDuPi8U3j3pccY/doT7LfXzoQtiyXLVjLplym11rcNJGvneO/9sdSkUiTiUc45/XjGvPwoB+y3E23aNyeSCBGJW5S3iLPNNj256Zo/8+wT99ClQxuMgrXcbydO5tGnXwbb9YRovsNrIJrOVr26MaB/bzR/RimlZN7c35g9b0FdYZsPDcfJOTz53OskM54BDUA8HuOYww9ChDxVNgJkzuXf9z7GxB+nYDs2ErAMg949O/Pmy49yw9/PZ9ttu1PSMo4RD2GVRGnRrjn7Dd+Bt156kD+ddwrliRi68IYNFVVJ/n3/k2ST2bWXc22Hcd9MIpXO+tkliETCXHLRaTz76C2cNvIQjjx0L0476ShatCyte7xdPXgrGrXLJ27W5sU3x/Dx51+Ttm1cX6vRuX1rnnjoZu64/lK2HdSDspalWAkLK2HSrFWcQdv04K4br+DxB2+lS8c23mHxCHK2w0efjOft979C5s/H9WhESW8armTqzNm89sa7OA4INHRNp+9W3XnluQe46Kxj6NatLaGSGFokhBYJESmP07NXJ/503vG8+J/72G7oNvm2byP5fPxEJk6d7XmTU6wTQaRH41qdogEIRMRk910G8+i9N9GhdUvf761XQV3XxXE9QwrbcXAdz62jpmkYhoGua+i67u3HDVQ30qWmJsUd/36UO+99iuqa5NqzXJmf7EDI5NrLz+Xyi88hZOnYtsuK1RV07bc76byKseD+kMnO2w/k3dceIxYJ52fVjuuSs22yrgMCZs1ZxG77HE6ywp8xmTrbbt2dz8e8SDQSRghBOpPjutvv5/pbHobg9KXGIDSvw5MSdIMunVsz+bv3iYVDCKAmmeK8i6/m6f+8XXemJDy1Wc8ubRn95pN06dzeO2LQFzyu62L7ee7lt0DXNe+gdSFYWVHN+Rf9hWOPOozDDtjXm31KyUeffcWhx1xAuto/J1dKYmUlTP1uDO3blyOkRjKd4fIrr2Xbbbbm+GNHYBg6tuOQTmWprE5SXZPCcWyi0SjxeJR4NIpl6miahhSeV6KFixdz2NFnMHnyXGTgaKVRCAhbXHDuSdz6z0uwfJ/ByXSacy/6K8+8NNYzjGqkoPXwBZUmiJXEmfD5S3Tv0glD13Gly6IlK9ll+FH8OmeRf713rOPAAT14+flH6dyhVd6Hse06ZHM5kskUlTU1VFUmMUyTeCxKIhElGg4VHOQhqUll+ddNd3H7A8/i5i26CxAa4ZIozz52GwfvvweG0Ly6K/3ytm1c6SKlztX/uJ4HHnsVN+Ogx8OMff1xdt9pMEIIJJIXX32bE8/7G05VunZQIrx0t2lVxmsvPcqgAVthmZ6HL9d1yeZy1CSTVFanSNakEQJi0TDxWJRoJIoR0r327O8b//TLbzj57CtYtGiFt26fLw+JHgrx4F3/YORxhxAyLWzb5etvf2DXg85AZtNrzfLXwssyWrVqxs8TxtCyRTkANdkMx5x4HqPHjoeMf3iIDt27t+Kjt1+gXeuWGIaB9A8syWSyVFQlqaiqpqKyEk3TKC0tIRGPEY9HsUImhqah4eXbrwuXcNTx5/FDcIiGYp2sf8in2EhcZDrLZ19N5MCjTueFN0ZTUVWD4zpIPOFqGgbhUIhYNEoiHqMkESceixIJh7BME91X7bhIUtksk36ewTkXXsXt9z5NdU1qbYFLwTDZb8NOfoeGp/4p7qvqkHMYP3Ea9z3yNMlUCld6B9obuk44FCIeiRCPhOjYvhV9evXwVHUFw/JAkVT7isCoZCMIDLvWc7sIOsM6cwMNbJe5i1byt2tuZ/GSFTjSOx5CCIGu64Qsi2gkQiwaJRqOYJkWQuisXlPN9TfexWdf/kg2W/xi4R93GHwfHB1R6ylISsmqNSmuvfEB3hv7FTnX9nzWJuK0a9OSHl060rt7Vzq1a0PzshIiIROha0ghsB2HHydN5viTzuOXqb8h7XrKtkFIQlGTYw7fD9MXcBJYsHAJH372PayVro3AldTUJHlz9Fhyvg2AEBqxRIw9dtuhoA4KpA2Tp/7K0SeczZfjJ5L1VduGphMNhWleVkantm3p26sbvbt1okObFpTH44RME6GBIyUr11Rz42338dATr+CmsvVXYilJ16S5+p93MHPeQtK2b8AlNEKGSSwcJh6JEo1YHHzgAb5x2Qaqp/AHccJf/3EFS5ZXcPIZl/D2mE/8NuKiaRqhUIjy0lI6tm1Nr+6d6NmtE+3btaa8rIRwxMLQdISETC7HK6+9y6hLrmXJktVg5/yWE7zQb6d12lEj8R3S1Hf/Wt+5MHvOMo4/9QKmzJhLJn+es04sGqFNq2b06NqBbbfuwzb9e9OtUztatygnFglh6t7hGY50mTFrLmefezmTp8z1fKkr1osSur8L3mKkm8wwbdo8Lrj8es686CpGf/A5i5euJJPNeYcWBM2gQFUrAVe65OwclVU1/DR5Grff9TDHnXoRL731McnqZP0dT3243ulFtmNjO06tdyaZ/6fgWolTk+G6Ox7iutvuZc78BaSzWX87gERDoEuIWBZDhwyqtQaW0ouv65JzHHKuFwJDm82BlGA7tbNUx3UKxhxrv8dOZXh9zKecf9HVfDn+e6qSSXKOjSsLdh5Lie04JFNpfpg0hYsu+ycPPf0aq6vT2K7E9tMTaCKK3yOROG6Qtza265J1YPGKSv781+t5/qV3WFPl7VXVdQ3TNDBNA0PX0f01MNtxWL5iBf957lVOPusvfPvTbJyM3Th1ciG6xk5Dt6ZXt86eNsVxsW2biT9NYfWaZEEHvzEUpN9xefTJV1hVUUXOcXBdB8vQGb7XbmAVupsUOBmbn36Zy2lnX8Y9Dz7NvN8WetbProsmPDeClmlgGjq65mkcpCupqUkz7uuJnHv+Fdz94LNUrqmG9dUp22ba1Dkce9zZfPDRl57LQt+YkUCGIunfrw/lpaW1bc2Vft3y8st1A6v54j2sLtiSmXMWcsGfr+HG2x9g2vTZJFNpz3ZD09ANHcM0MEwDXdcRmobruqTTGaZOm8E/b7iTC/96EzPmLMLN1G/lW1uvHD9OQbtdT9rrwZVBuvw247g4gSV8gARykq8nTGXkmRfzwiujWbxsJdlcDtfXvJmGgWWaWKaJaRh524NsLseiJUt58j+vcOQJo/hs/CTsVLrhfdP/MEq93BRoAhE2SSRidG7fhsMO3JuhQwbSsX0bYtEwhmGgCQ3Hdchms6xYsYppM2bx9nsf8c33P7NiVTVOKud1Or7KbYNbSEyDQw7ak4P33x3L0LFdl+qaJH/+y63YvrvKtdFAuJglMbp1bs/IYw9jhyEDaNm8HEM3yGRyLFq6kkefepE33hoLtnfmaMeOLbn6iguwLBMhPEH/5jvv8/boz331WSORwnN9Kb01ytIWJdz0r0uJmAYakM3mePSZV/l63I9F6uUCq2MBImTQslkpe++6HQfuvxc9u3chFosCkMmkmT9/IR+M/Yy33v+MhcvWIDNZMA3OOv04dhzcL9AkM2XqLO649wmcdM5XL4MeC3PH9VdQVhJGCs+14kOPvcQPE6aABiWlEfbedSinnnQsPXt2JRGJYhgGjuOSyWZZuWYN3/0wmaeffZlJv8yiuipTMEuQje5kATB0DjpwTw47cG/CuleWOVfw7Etv8fGn3/k2AI3vwD38eoc3+9OiYa669Ey6d26H5qvHV6xaw2VX34bMOLWvCMYPukYkEqZ31zYccfj+7LrrTrRp04poJIxheM47sjmbmuokc+bM5dU332XM2C9ZtroGN52r1X6sN+4SdJ3S5jH22XUHDjvkQHr17EYkaiGlS2V1DVOmzuHqv9/BsiUrEJbOFRefyVa9uiH8ae/4b3/kwcdf8upCIcKbiYLXno1oiPYtyjjq0P3Yd9896dihLdFoCMOfRdu2TSqZ5tdf5zN6zEe89d6HLFxWSTZlg+P6yQhUy96QADxL+lNGHsrOOw5BN3SkK5k1ex433PYEONn6NVx18OIYTkS49bq/kIh7B1XkbIe7HnianyfPwl/ELSgczwYsUhJn2z5dOeqIgxk6eBAtWzYjEg7SJLEdm5pUiiVLV/LluG954833mDH7Nyqr0pALykepljeEErpNht+4dA1hmYQiIRKxKJFICMvwrB8d11tLqapOkkxmcTK5gjWfoMNroNAVgGVgGBrCV1O7DshU0PHWR2Ej1BGWSTQWIhI20XWdXM4lk0pRU1Xj9RfgNXJNEAppCGHgCheJi511kDln40a+hUIXgdAlIhzyJ4CeJx8363oNvTAthUIXavPM1AlFwySiISzTW+XN5GxqUmlSyTRkC4Sd5u2pDFSQ+MZDTi5bO+iREnQNI2R5W3KERLoCO2v7hjHedZqhESuJ0Kw8QSIewzRMHMchlc6xprKaispqssm091ypFaRlQ8JlHQgNDB3TNH0FuPRmPDnb7wuD527Es4uELkIgwjqm5m/dkeA6LnYm6211Cl5ROGmX3n16COIlMcpKosSiYUKWiePvW62uTrJ6TRXJqpR3NjFurbW87/Rk/QjvHtMkFA4Rj0UxLc97VCabo6YmU5vnAoQJpmXl66ltO17dkgUHAuT/qJMYbzBtGsTiUcpKYiRiEcK+N6ZczvbOxq6qoaI6hczbNmi1g4d82ygQumgIEwxDIDWvrrmui5vGt3NYV9sN8PNK19AtPb9lDAm5rOsZ6ImgjlKwjc2Piy4wLZNEIk5JSYxYNIJpekI3Z9vUVKeorE5SVZUklw4GAYFfc6mEbgNQQvcPxRei9ZZAQUPY6I7SRxauvzbgOfkTTfxrC/uaPIXPCeJafGED3rUuCpOPBBlsy5B+R1zwW0DhVqbCV0v/n3zfWRxP31I1wC1Oy7ryP7im+Prgu8L/BwSdXH0UX7sR5J2JBJ3qel63yRQ+2H+ZLMjnOhTlZ75MZMEqV303+nV3g7PcYoqfVXCvpPa5+bgUluW6iqnoi0D+FV9XlNQ67xbelqp14w/qgvIr/L7R1JeIgnwU68vS+u4rpPj3gOLrFMUooftHs5YAqIeNmS1uCkHHXRy1Op1JU8epcBYbdNZFcSjMy+LoBZ/r64eKaeq0bU5kA9K3pbEltoGGsCW2E8UWjxK6isaz3hHyH8iWGi/F/yaqPirqYX16DoWifpq8I5G+Z6QNzFSbPF5bGIX5s758UjQN/+v1UVEvSugqtnxE/h+FQqH4r0YJXcWWT97CMvhc+KOiXupZ8lYoFH88Sugq/jsIhIgSJOtG5ZFCscWjhK5CoVAoFE2EErqK/w6UcdCGUXmkUGzxKKGrUCgUCkUToYSu4r8DtV65YVQeKRRbPP8HR0X+iiR2aeUAAAAASUVORK5CYII=;" vertex="1" parent="1">
                    <mxGeometry x="339" y="173.97" width="109" height="68.78" as="geometry"/>
                </mxCell>
                <mxCell id="9" value="" style="endArrow=classic;html=1;" edge="1" parent="1" source="4">
                    <mxGeometry width="50" height="50" relative="1" as="geometry">
                        <mxPoint x="240" y="240" as="sourcePoint"/>
                        <mxPoint x="339" y="207" as="targetPoint"/>
                    </mxGeometry>
                </mxCell>
                <mxCell id="10" value="&lt;b&gt;Trigger&lt;/b&gt;&lt;div&gt;&lt;b&gt;&amp;nbsp;workflow&amp;nbsp;&lt;/b&gt;&lt;/div&gt;&lt;div&gt;&lt;b&gt;On PR&lt;/b&gt;&lt;/div&gt;" style="text;html=1;align=center;verticalAlign=middle;whiteSpace=wrap;rounded=0;" vertex="1" parent="1">
                    <mxGeometry x="252" y="212" width="60" height="76" as="geometry"/>
                </mxCell>
                <mxCell id="11" style="edgeStyle=none;html=1;exitX=1;exitY=0.5;exitDx=0;exitDy=0;entryX=0.006;entryY=0.571;entryDx=0;entryDy=0;entryPerimeter=0;" edge="1" parent="1">
                    <mxGeometry relative="1" as="geometry">
                        <mxPoint x="845" y="224" as="targetPoint"/>
                        <mxPoint x="722" y="226" as="sourcePoint"/>
                    </mxGeometry>
                </mxCell>
                <mxCell id="12" value="" style="shape=image;verticalLabelPosition=bottom;labelBackgroundColor=default;verticalAlign=top;aspect=fixed;imageAspect=0;image=data:image/png,iVBORw0KGgoAAAANSUhEUgAAAP8AAAEjCAYAAAD9g9cqAAAAAXNSR0IArs4c6QAAAARnQU1BAACxjwv8YQUAAAAJcEhZcwAAEnQAABJ0Ad5mH3gAACQoSURBVHhe7d15fFTlvcfxz5klk0z2jYQQkhAISzZW9w3FKmhFXNipWq/Vtt6rtdYNEdksWrWLXq1drK2yKqICSkXrUrRWRJZshC0sWSAJ2TOTyWzn/jEZq7mgE0gmM3N+79fLf5KDr5A538N5nuf3ex5FVVUVIYTm6Lp/QQihDRJ+ITRKwi+ERkn4hdAoCb8QGiXhF0KjJPxCaJSEXwiNkvALoVESfiE0SsIvhEZJ+IXQKAm/EBol4RdCoyT8QmiUhF8IjZLwC6FREn4hNErCL4RG+Rx+m8VJY00HsuWfEKHB5/C3N9r5w39/wcerjmBpseN2y0NAiGDmc/gBLC0O/vHXCl78+Q72fFqPtdWB2yUPASGCUY/CD6C6VeoOW1i3vJTVi4up2deGzeKUNwEhgkyPw+/l6HRzeHcTL8/fxT9equDEUQt2mwuZEhAiOJx2+AFUFaytDrZtqGLVo8UUfVBLa70Np8Pd/VIhRIA5o/B7uVwqJ6qtbP79Pt78dTkHtjdiabGjylBAiIDVK+EHQIVOq4sDXzbw5tN7eO/PB6kqb6XT6gR5BggRcHov/F1UN7Q32dm55RivPV7Kx6sOU19pkaGAEAGm18Pv5XKqNFZ38K/XK1mzpIRdW47ResImqwJCBIg+C7+X0+6m9nA7m/9wgNWLSzi0q4mONodUCgrRz/o8/NA1H2BxUr23lVeXlfDO8/s5dqANR6er+5VCCD/xT/i7uF0qlhYHRR/UsvKRIv617ihNxzukSlCIfuDX8Hu5nG5aT3Ty4YrDrFxYRNGHtV1Dge5XCiH6Sr+En64CIafdTW1FO28+vYc1S4o5XNQkqwJC+Em/hd/L+xA4uKOJlQuL2PLngzTX2aRASIg+1u/h/zpbu5PPXq/kL/fuYPvmGk/XoDwEhOgTARV+AFVVaazpYOPv9rJiwW6OFDdja5euQSF6W8CF38vtUjla2sLKR4p4+/l91Fa002l1ynBAiF4SsOH3slmc7H7/OCsfLeKzN6o4UWWV1mEhekHAh5+ut4Dm4zY+WnGIVx8r/ap12CUrA0KctqAIv5fT7ub4wTb+/sJ+NvxuLwd2NGJpcchQQIjTEFThp2tp0GZxsn9bA288tYctfzpAzf427B0yFBCiJ4Iu/F5ut0p7o51d7x/n1cdK+fS1ozQds0qpsBA+Ctrwe7kcbhqqrWxde4RVi4op+Wcd1lYpFRbiuwR9+L3sNhe1Fe1s+G05bz5dztHSZuw26RoU4lRCJvx45wPanZR/Vs+qRcW8/9JB6o5YcDllVUCI7kIq/F5ul4ql2c62t6pZubCIbRuqaWuUDUWF+LqQDD94NhBxOtw0Vlt5908HWLOkmH3bGrB3yFBACEI6/F28XYNHiptZs7SE9U/tkaGAEFoI/9c5bC5KPqrlL/fu4KOVh2lr6JSlQaFZmgq/V3uTnY9WHObP9+yg+KNaOXBUaJImw0/XgaMN1VbW/6qMVQuLqNzTgq1dugaFdmg2/F4up8rh4mZefmgX7/7pAMe9rcPyDBAhTvPh9+q0utj+TtfS4MZqmms7ZD9BEdIk/F+juqG51sYHfzvEG0/uYe9nJ2hvsst8gAhJEv6TcHS6OFTUzFu/Leed3++jqryVjnY5ZUiEFgn/KahuFWuLg9KP63j1sRL+8VIF9UetcsqQCBkS/u/gcqo019r4cnMNqxcVs+Pvx2iplwNHRfCT8PvI0enmRKWFLX8+yNolJezf1oDN4ux+mRBBQ8LfA6oKnVYnVeWtrHu8lA2/KaeqvFVWBURQkvCfBrdbpaPNSck/63hlwW4+fOWQ58BRGQqIICLhPwNul4qlyc4nrx7l5fm7KPmoVpYFRdCQ8PcCl8NNY3UHpVvrpVtQBA0Jfy9SVRXkH34RJCT8QmiUhN+PpEJQ9DVV9fznCwm/HzXX2Whr7JR5AdH7VHDYPdvY222+1Z9I+P2o5KM61j9Rxr5tDViapWFI9A6Xw01rQyc7/17DygW7sTQ5ul9yUhJ+P3LaXVTsamLd42W88/x+jpa2SMOQOG1ul0p7k53yz06wbnkpm/+wn/pK30+tkvD3g06Lk6IPa3lteSn/XHWEusMWOWBE+ExVVWztTo6UNPP2c/vY8NtyDu1uwmHr2XBSwt9PVLdKS52Nz96oZN3yUna8e4zmWpvMB4hv5eh0U3/UyocrDrH+yT2Uba3znFTt2z/23yDh72dOu5vjFe28/+JBXn+ijIodTVha7FIqLL7B7VJpPdHJzndrWLushC82VtN0vAOX8/TvEwl/APAeO36kpJl1T5TxznP7OdZ17LgUDWmb9xX/wJeNrFlSzJYXD/5nmHiG94aEP4B4jxkr/WcdqxcXs3XtERqPdfg8gSNCi8upcrzCwsZn9/L6E2VUlbf26g7TEv4A5HS4aamz8cmrR1iztJiiD2rpaPNt7VYEP1WFlvpOtq49zKqFRZR8XNcnS8MS/gClqp7JnWMH2tnwu3JeW17C4eJmXLJ3QEjrtDrZ/f4xXnl4Nx+tOExzbUeffeYS/gCnulXsHS72b2tkxcO72fTcPhprOnrt1U8EBqfDzZGSZtYsKeGt35ZTW9GG0+4+rVl8X0n4g4SqqtgsTrZvqubFe7/kszcqsbY6znjSR/Qv1a3SfLyDzc/vY8WC3ezf3oDD1reh95LwBxlVhZa6Tt794wFefnAn+7d79hKUpcHg4napWFrsbNtYzYu/2MkXm2o88zp+/Bgl/EHK5VSp2tvG6sXFvPHkHo4fbKfT6pLhQIBzu1U62h0c2t3EigW72fzCfpqO9c8WcBL+IGfvcFH2aR0vP7SLf645zIkqz9kC/nhtFL5TVejscFGzr423fl3O6sXFVO1pxWnvm8k8X0j4Q4Dq9hw7/snaI6xdWsKu947TUm/rs1li0TNOu5sTVVa2rjnMqkeLKN1a51mv7+cHtIQ/hHiKQtrZ/MJ+NvymnP3bG7G02GUo0E++UZK7pJita47QeqITNUCeyRL+EGTvcLH/iwbeeKqMLX86SO2hduka9CNVVeloc1Cxu4n1T5ax+QXP0e9nUoffFyT8IUpVwdLsYOeWY6xZWsK2DVU0VFvlgJG+pILd5qK2wsKWFw+y/okyDn7ZGLAPXgl/iHO7VE5UWvngb4d4dVkJZVvraGvo7PVSUa1zOdw0Hu/g87eqWLushJ3vHvO84gfwr1nCrxF2m4uaA21sfGYvb/56D0eKmwNi0inYud2e3XTKPqln9eJiPlpxmBOVln6dxfeVhF9DVDd0tDk5sL2RVx8r4YOXD1F7qD0obtSAo3rmVo4UN/PGU2VsfGYvtQfb6bQGzwNVwq9BLqdKW5OdbRurWPVoEds2VHmOHZehgE9cTpW6oxa2vHiAtctKOLC9EWuro18Kdc6EhF+rVM/6c9OxDt57qYK1S0vY82k9nVZpHT4VVfWU5H72xlFWLNjN9k01tDfZA24W31cSfo1TVXDYXFTuaeX1X5Wx/ldlVO9tDdobuq847W72/ruBl+fv5v0XK2g61uFZOQniX5OEX8DXWodLP6nnL/ft5O3n9tLa0Kn5bcXdLk/h1OrFRaxeXER1eStOh3+67vqahF98k+rZWnzbhmpe+OkXbH+nho42h+aqBL3Vee88v48/3/Mle//dgMsRWr8DCb84pdYTnWx8Zi8vP7SLqvJWOjtCv2vQ7fJU55V8VMuf7/mSbRuqsbWH5jyIhF98K7dTpbK8lb89tIv3/3KQ+korDlvodQ2qbpVOi5PKPS289lgpb/66nMaa/mm19RcJv/huKtjanXz+VhWvzN/Fl5traKmzeeoDgjwb3gnPuqMWPni5glWLitm/vSFgS3J7k4Rf+MztUmk6buPdPx3gtV+WUPZJHW1NwVsq7OraJfmLTdWsXlTMv9+swtJkD7m3mlOR8Isec3S6OVLawobf7WXTs/s4UtxMRxCVCqtulfZmOyUf17FueSnvv1TBiUqr5pY3Jfzi9HQNBco+qee15aX8468HqTtiwdkZwKXCXScjHS1t4a2n97Dp2b0cLmnWxCv+yUj4xRlR3Z4lsS82VrN6URFfvF1Nc23glQo77W7qj1p494/7WbushPJ/N9DR7t8NMwONhF/0CpfT0zr83osHWb24mH2fN3h2EernsYDbpdLcNa5fsbCInVuOd+2m078/VyCQ8IteZbe5qNnXyvony9j4zD6OFLf0S7+AqoK11cGef9WzdmkJ7/+1gsZqq3Qwfo2EX/S6r4L3SR1rl5Xwwd8OUXfY4rddhOw2F5VlzWx8Zi9v/aac6r2tdFqCZ0LSX3wOv96goDcq3b8sxCm5nCptjZ18vqGKlQuL2PnuMSzNfTcU8C5FfvjKIVYvLqFsaz3WFkfAzT8ECp/DH51o4vr780jOiETx+U8JzetqHW6ssbL59/t57ZelVOxs6t0Z9q5Z/J1bjrFiwS4+W19JW2MnLqd/3jSClc8xNoTpKLhkALc+NZZJtwwlMtYI8iIgfKR2bW55cEcjqxcXs+l/99FQbT3jf5XdLpWjZS2sXFjExmf2eoYXIVB56A8+hx9Ap1eITjRx8axMbn9mAmOvGIgpQt/9MiFOSe2qD9ixuYY//exL/v1GJR1tPT9w1LvE+MbTe/jrAzs5tKupz0+1DTU9Cr+XTq+QmG5m6l0jmLdsNBn5cRjD9SjyJiB6oL3RzuYX9vOH/97O/u2N2CzO71yCc7tULM12/v1WFc/d8Tk73z2GvaMXhxAaclrh9zKG68kaHcfcxQVMuWMYyRmRGMJ08hAQPlNVOFFlZcWCXbz2WAknKq3dL/mK26VyuKiZvz20i7+/sB9Ls6P7JaIHzij8AIqiEBkXxvir0pi7dDRnT00nJjkcvUGeAMJ3LqfKgS8bKd1a1/1bX3E53Xy+oYraADz9Jhidcfi99AYdiYMiuPyH2Uyfn0fuhQMwxxpRdPIQEL771mVA9Tu+L3qk18LvFRauJzM/lmvuHsH3/2cEWQVxmMwGWRkQIsD0evjpGgqYY4zkXzyA6fPzuPJHQ7+aDxBCBIY+TaNOrxCTZGL8lDRmLyxg/OSBRCea0OnlNUCI/tan4ffSG3UkZ5q5/NahzHg4j6Hj4omINsiqgBD9yC/hp2soEBFtJCMvjut/kctVPxlO2vAYjCa//QhCiK/xe/L0Bk+VYP7EFGYuyOeimZnED4yQoYAQfub38AOggNGkIz41nAtmZDL70QLGTU7zLA3KM0AIv+if8HdRdAqmCD2pQ6OYfMcwZjycz7AJiRiM/fpjCaEJAZEynU4hPNJA9ph4pj+cx7U/H0nioAh5CxCiDwVE+L10egVztJEx30vlR78dzyVzsgiPNHS/TAjRCwIq/F6KohCVYOKym7O5/dkJjLogmbAI6RoUojcFZPi9dHqFARmR3PhQLjc+lMegkTEYw6VrUIjeENDhB8/KgCnCwMjzkpjzaCGXzM4iPi3CUyosDwEhTlvgh7+LTqcQk2ziwq6lwTHfSyUqPgydtA4LcVqCJvxehjAdqdnRTL4jh+vvy2XY+ERPqXDQ/U2E6F9BGRlFgfBIAzkTErju3pFM/nEOqdlRUiosRA8EdVoUnadUeMykVGYuKOCimZnEpYRLqbAQPgjq8HvpjTqSBpu5cGYm85aOJu/iAUTFh8kuQkJ8i5AIv1dYuJ6U7EiuuWsEMxfkM3RcvBQJCXEKIRV+vraLUGZ+HNffn8uUn+QwaHi09AsI0U3IJkJnUIhOMDF6UqqndXhWBrEDwtHJUEAICOXw07UqYAjTEZ8WwUUzs5izqIDCSSmYzHLKkBAhHX4vRVEIi9CTlhPN9/9nBDc8kMuArEhZFRCaponweyldrcMjz0/m1qfGccVtQ4mMC5MyYaFJmgq/l06nEBUfxgXTM/npC2cxZlKqp0BIHgJCQzQZfi9FgdjkcK67bxT/9evxZOTGYjRJ67DQBk2H30tv0JE+Moablo/hmrtHMCArCqMcOCpCnIT/a8IjDYy5PJV5ywo5f3oGsSnhUh8gQpbc2d3o9ArxqRFMnJvFzAX55E9M8bQOy8qACDES/lMwmvSkj4zl6p/mcN29oxgyOp6IKIP0C4iQIeH/FooCETFGcs5O5IYHcrnqzuEMyDRjNEmRkAh+En4feA8cLZiYwpxFhVxwYwaxySZ5CxBBTcLfA4YwHQmDzFw0K4MZC/IZcU6idA2KoCXh7yFFAZPZwOBRsUy7dxRT7xnJ4NwYWRUQQUfu2NOk03uqBPMuTGbmggIuuzmbhIERnqeDEEFAwn+G9EYdsQPCOXtqOpfMycJglPCL4CDh7wVK16nDEdFGmQQUQUPCL4RGSfiF0CgJvx8ZwvQoUiYs+ooCeqPi8wE2Pl4mesOYy1M5Z2o60Qlh6OWYMdFblK7t69PNXH3nCGKSTN2vOCkJvx9FJ5q44rah3LR8DPmXDCAi2igbioozojd4qk/Pm5bOTcvHcNbVaT6Xn0v4/Uxv0DFwWDRTfzaSqXePYHBuDCazbCAiekanU4iINjDqgmRmzM/nsls8dSY9WW2S8PcTk9lA3sUDuPGhPCbOG0JSRqRsJSa+k6KAKUJP+qgYpt49kmvuGkFmfixh4b79a/91Ev5+pNMrxKdEcO60dGbMz2Pc5DRiEk0yHyBOyhCmIyEtgkm3ZHPDA7nkXphMZNzpH0sn4e9vimfvgNTsKC7/YTbT5+eRPTYBc4wUDAkP74az4yYPZPaiQiZcPYjENDP6M+wnObM/LXqNolOIiDaSkRfHdfeNYspPckgfGeN5nZNngGaZzAaGTUhg5iP5XP7DoaRkRRIW0Tv3hIQ/wOgNCjGJJvInpjB9fh4T52WRlG6WbcQ0xmDUMXhULNfcNZxp944iIy+u198GJfx+5HKqqKra/csnZQzTEZ8awbnTBjPrkQLO+v4gzLHG7peJEKPoFM+4/ofZzFiQR/4lKcQk9c08kITfj0q31rHrvePYLM7u3zopRYGwCD0pQyL53n8NZdbCAkacm4QxXD62kKOAOcbIudemM2dxIedMTScuJQJDWN991n33fxb/T2ONlc2/38+qhUUc2N6Iw+7ufslJeY8ZyyrwHDs+7eejSM2OkqFAiDCadAw/O5FZC/OZdEv2V+P6vq79kPD7kepW6bQ6OVTUzNplxbz59B5OVFpR3b4NBXR6hchYI/mXpDDvsdFMnDeEyDgZCgQrnU4habCZa38+ihvuzyWrMJ5wP+4QLeHvB6pbpaPNSfEHtbx03w4+31jt81CArknBuAHhXDw7k1ufGtc1FOh5kYfoJ4rngJizrhnEzY+PoeDSFCLj/H82hIS/H7ndKi31nWz+/X5eun8nB3c0Yre5fJ4UNBh1pAyJYuaCfGY+kk/qsKgzXvsVfUdRICxcT86ERG751Vgm/3gY8akR6P0cei+5UwKAy+Gmem8rqxcVs+E35dRWWHDa3fj4DCAsQs+IcxK5ZflYJnXtJdgXs8PiNCme6ryBOdFcf38uMx/JJ31kDMaw/n1bk/AHChVsFidFH9TyyoLdbF17hObjHTgdbvDhIaAoClEJYVwwPYO5ywoZd+VAIuWYsX6nNyjEp4Zz6bws5i0dTd5FyQGz3buEP8C43SotdTY+XnmYVY8Ws/PdY7Q323G7fHgCdN1sKVlRTPnpcKY/mMew8QmER/pvEkl4eHd3Hj8ljblLRnPhzExikgLroBcJf4ByOtwcO9jG5hf28/oTZRzc0UhHu9Pn+YCwcD1Dxydw44N5XH3ncAYOjfLL8pHWKTqF8CgDOWcncuODeVx5xzBSs6PQGwIvaoH3E4lvsHe4OLC9gXVPlLHp2b3UHbFgt7l8HAqAOdbI6MtTmbWwgEt/MISEtL4tHNEqb0HWwGFRfP+/hzPtnpFkj4vHFBEYr/gnI3dBEFBVsDTZKf6wlpWPFLF1zRGaajtwOXwrEtLpPSWj505LZ/aiQkZPSiU60STzAb3EYNQRPzCCy24awsyH88m/JMXz+w2gV/yTkfAHEbdLpbGmg0/XHWX1omKKP66jrbHT5/kAo0lPSlYkk+8YxvSH8sgeG09EtEGGAqdJp1OITghj9OWpzFlUyFnfTydhkDlo3qyC46cU32DvcHHsYDvvPL+PN5/ew6FdTXRanb4NBbpahzML4rj+vlwm35FDSnaUnDXYQ8ZwPUPGxjN9fh5X/GgYA4ZEBt12bPKJBynVrWJtcXDgyybWP7mH91+qoO6oBZfTt6GAt3W48LIUZi7I55xp6cQkBtZsdCDS6RSSMyOZfPswrvvFKDIL4oiMDc6NWCX8Qc7lcNN6wsb2d2pYvaiYz9ZX0d5k961foGsXoaR0M5f+YAgzF+aTd1EyJnP/Fp8EKnOMkQtmZDBnUQHjrhxIXHJ4QM7i+yp4f3LxFVUFh83FiSorH75SwapHiyj/7ASOTlf3S0/K2zU4eFQs194zkpkL8hk0PFomBLsYTXryLhrAD345molzs0gabPb0UgT5r0fCH0I8XYMuqva08vqvyli7tIQTlRbf3gK6VgUioo0Mm5DIzY+PZerPug6ACPKb/HTp9AppOdHMW1rIdfeNIn1EDCazASWYBvbfQsIfgtxuFVu7k72fN/DH//mSv//xANZWR/fLTkmnVzDHGhl3ZRp3/O8EzpmarqmhgKJAdIKJa+4awc1PjGXI2PiQrJKU8Icw1a1ibXPw6WtHee6Obez4e41nVcBHOr1CbHI4V/00h/96ejzZY+JDflXAFGlg/FVp3P7seMZPSQvayTxfhPYnKb7SUmfjrd+W87cHd3NwZxOOTpfPXYN6g460nGjmLCnkul+MImWIp3U4RN5+URTP0t3QcfHcvHwMV985nPjUiJCf85Dwa4jLoVJZ1syaRUVsemYfdYfbcXT62DrctQFFwWUp3Lx8NBfPzCAuJdyzf0CQZkTparVNyY5i6l0jmPlIAYNzY30+6y7YSfg1RlWho93JzveO8crDu/nk1SO01ts8rcM+0OkUYpLDmThvCHOXFDL2ilSi+mEXmjOlNyjEpUZw8ews5i4uZPTlqZ6tsYPrr3FGJPwa5XapNNfa+Oeqw6xeUkzJx3VYWx24fVwZ0Bt1pA6NZsqPc7jh/lyGjI7HZDYE/FuAolMwxxgZe+VAZj9awMWzM4kfGPqv+Ccj4dc4h91NVXkr7zy/j42/K6dmXxudVqdvQwHviTJnJXDjA7lc8aOhJKYFZm27ooDJrCcjL5Zp947iyttzSMuJDvkJzG+j3b+5+A8VrC0OSrfWs3ZJMe+9eJCGaitOX7cWVxSik0xMmJLGvGWFnH3NIGKSAqdr0BimIyndzOQ7cpg+P4+R5yURERW4rbb+IuEXX3G7VJpqPaXCKxfu5ou3q2mps/ncNag36kjOiGTSLf85YMQc27tHTPWETu/Z5fica9OZ9WgBY76XSmxyeMA8lPqbhF/8P067m/qjVv7xUgWvPV7Knn/VY2119GAo4Dk//tp7RjL1rhFkFcZ5ioT8lDml6/Sb3AuTueHBXC6Zm8WAzEiMpuDquutrEn5xcl0bih4taWHjM3t5+3/3crSk2bOLkA+8x0qPvCCZG+7PZdIt2QzIjOzzrcWN4XqGjI7nmrtHcPWdw8nIiyMiuv/ePgJZ334SIui5XSrtjXZKt9az7okyPnz5EI01Vp9bhw1GHbEDwplw9SBmPZLPudPSiU4I6/Uw6vQKyRlmrrhtKNffn8uo85OJSuibAy5DhYRf+MRpd9N8vIPP36pi1aJitm+qxtJi92lDUe9hFckZkZ7W4UcKGHV+kuec+V4QEW3g/BsGM3tRIeOnpBE7IBxDWOhUIPYVCb/wmaqC3eai9pCFLS9WsHJhEfu/aOxx67B3ue2GB3IZkBWJcpp3od6oY/g5idy0fAyX/iCb5MFmwsJlXO+r0/y1Cy3zHjhaWdbKq8tKWLe8jIYqq88FQjq9p9Bm1PnJ3PrUOK64bRjmGN8PHFUUz4akc5cUMnNBflerrb7XhxKhTlF9eW8TveLDVyr4aMVhXM4Q+5UrYI42cv6NgznvusFd5wP4HkTVrdLaYOfDVw6RlB7BhTMyu18CgKPTxdvP7SMp3czYK9MwR4dem60/Sfj9KGTD30WnUxiQFcn3bhvKkNHxPV5aczlVHJ2uUx5n5XarOGwujCa9rNX3AnntF73G7VY5XtHO2iUlrH9yDzX7Wn3vGuxqtjlV8Ol6uJjMBgl+L5Hwi15nt7ko/biWlQuL+ODlCk5UWnD24CEg/EPCL/qEqkLriU7+9Xola5aUsG1TNW0NnT6fMiT6noRf9CmXw03t4Xb+8dcK1i0vZe/nJzytwz72C4i+I+EXfU+FTquTw0XNbPjdXjY9u5eaA210Wn3fSkz0Pgm/8Bu3+z+lwq8uK2HrmsM0VFtlKNBPJPzC71wON401HfxrfSWvLith53vHaWvo9Pl8AdE7JPyi39g7XBw70Ma7fzzAusfLKPu0vkdbi4szI+EX/UpVoaPNwaHdTWx6dh+lW+u7XyL6iIRfBAS3S8XaYqe13tb9W6KPSPhFQJFqc/+R8AuhURJ+ITRKwi+ERkn4hdAoCb8QGiXhF0KjJPxCaJSEXwiNkvALoVESfiE0SsIvhEZJ+IXQKAm/EBol4RdCoyT8QmiUhF8IjZLwC6FREn4hNErCL4RGSfiF0CgJvxAaJeEXQqMk/EJolIRfCI2S8AuhURJ+ITRKwi+ERkn4hdAoCb8QGiXhF0KjJPxCaJSEXwiNkvALoVESfiE0SsIvhEZJ+IXQKAm/EBol4RdCoyT8fqV0/4IQ/UbC70cDh0YRmxyOIs8AEQAk/H6UPTaBGQvyOXtqOuFRxu7fFsKvJPx+FBahJ214NJNuyWbu4gKGn5OEIUw+AtE/5M7zM51OwRxjJCM/jut+MYobHsglOcOMTi9jAeFfEv5+ojcoRMeHMer8ZG5aPoZL5w0hMi5M5gOE30j4+5MChjAdcSkRXDgzk1ufHEveRQMwhuu7XylEr5PwBwBFAaNJR0p2FNfdn8ushfmkj4yRoYDoUxL+AGOK0DP87ETmLS1kyk9ySBwUIQ8B0Sck/AFIURSiEkycMzWdOYsLGT8ljfAoA4pOHgKi90j4A5hOr5AyJIopP85h1sICssfGExahl0lB0Ssk/EEgLELP0HEJzJifx7X3jCQpIxKjST46cWbkDgoSigKRcWHkX5LCvCWFXDwni9gB4egN8hogTo+EP8joDQqJg8ycf/1gZj9aQMGlKUTFh6GT+QDRQxL+YKSAyWwgLSeayXfkcOODueSclYDJbJD5AOEzCX8Q0+kVouLDGDI6nmvuHslVd+aQNjwGg1E+VvHd5C4JAXqjjrgB4RRMTOGGB3K5ZG4WsckmeQsQ30rCHyoUCAvXkzzYzHnXeeYDxl2ZRliElAqLk5PwhxhFpxAeZSBteAxX3j6MeUsLScuJlipB8f9I+EOUTq9gjjWSWRDPD345hik/GU50YpjsJCa+IuEPcd7W4bOuHshtvxnPOVPTCY80dL9MaJCEXwsUMITpSUwzM/mOYdz0y9EMm5AgBUIaJ+HXEgWMJj2D8+KYsSCfafeOImVIpMwHaJSEX4MUBczRRkZPSmXe0tFMnJtFTKJJHgIaI+HXMJ1eIX5gBBfNymT24gJGT0qV1mENkfALjCY96SNjueqnOdz4UB5DCuOkdVgDJPwCuoYCEdFGRpydyI0P5XHN3SNISo+UrcVDmHyy4hsUnUJMkonCS1OYs6SAC2dkEJ8qrcOhSMIvTkpv0JE0OJKLZmRy40N5FExMwRxjlKFACJHwi1NSFDBFGhg8KpYrbx/GVXcOJyM/TrYWDxESfvGddHqF6AQTeRclc929I7nspiEkDTbLUCDISfiFb7oKhBIHmTnr+4OYPj+P864fLKcMBTEJv+gRRacQHmlg4NBoLp6dxexHCxhxXpJsKBqE5BMTp0Wn9xw4Ojg3lmk/H8X0h/JIHhyJIq8BQUPCL86I3qAQFRfGiHOTuOXJsVx+azaR8WHdLxMBSMIvzpzi2UosNsnEhTMyuO3pcYy+PJUwWRUIaBJ+0XsUT31AcmYk034+ktmLChgyOh69UYYCgUjCL/qE0aRn2PhEZi3M55q7RpCSFelZGpTnQMCQ8Is+o+g8pwyNvWIgsxcVcvHsLKITwqR1OEBI+EWf0xt0JKWbuXBGJjPm5zP8nETCI6V1uL9J+IV/KGAy68ksjOPan41k6s9GMnBoFEaTTAr2Fwm/8CudTiE60VMqPHNBPpfMySJ+YAR6GQr4naKqqtr9i0L4hQp2m4v6Sgvb365h/xcNTLg6jYlzh3S/UvQBCb/od6qq0tHu5PjBdtwuN8PGJ3a/RPQBCb8IGG63itupyu5BfiLhF0Kj5BErhEb9H19mnVdPLLyHAAAAAElFTkSuQmCC;" vertex="1" parent="1">
                    <mxGeometry x="545" y="182.5" width="56.53" height="64.5" as="geometry"/>
                </mxCell>
                <mxCell id="13" value="&lt;b&gt;Terraform&lt;/b&gt;" style="text;html=1;align=center;verticalAlign=middle;whiteSpace=wrap;rounded=0;" vertex="1" parent="1">
                    <mxGeometry x="545" y="258" width="62.26" height="22" as="geometry"/>
                </mxCell>
                <mxCell id="14" value="&lt;font style=&quot;font-size: 14px;&quot;&gt;+&lt;/font&gt;" style="text;html=1;align=center;verticalAlign=middle;whiteSpace=wrap;rounded=0;" vertex="1" parent="1">
                    <mxGeometry x="586" y="212" width="62.26" height="34" as="geometry"/>
                </mxCell>
                <mxCell id="16" value="&lt;b&gt;PostreSQL provider&lt;/b&gt;" style="text;html=1;align=center;verticalAlign=middle;whiteSpace=wrap;rounded=0;" vertex="1" parent="1">
                    <mxGeometry x="643.63" y="247" width="62.26" height="22" as="geometry"/>
                </mxCell>
                <mxCell id="17" style="edgeStyle=none;html=1;exitX=1;exitY=0.5;exitDx=0;exitDy=0;entryX=0.009;entryY=0.416;entryDx=0;entryDy=0;entryPerimeter=0;" edge="1" parent="1" source="8">
                    <mxGeometry relative="1" as="geometry">
                        <mxPoint x="541" y="210" as="targetPoint"/>
                    </mxGeometry>
                </mxCell>
                <mxCell id="18" value="&lt;b&gt;Manage PostgreSQL&lt;/b&gt;&lt;br&gt;&lt;div&gt;&lt;b&gt;Resources&lt;/b&gt;&lt;/div&gt;" style="text;html=1;align=center;verticalAlign=middle;whiteSpace=wrap;rounded=0;" vertex="1" parent="1">
                    <mxGeometry x="739" y="150" width="92" height="76" as="geometry"/>
                </mxCell>
                <mxCell id="19" value="&lt;span style=&quot;font-size: 10px;&quot;&gt;&lt;b&gt;Workflow Steps:&lt;/b&gt;&lt;/span&gt;&lt;br&gt;&lt;div&gt;&lt;span style=&quot;font-size: 10px;&quot;&gt;terraform doc&lt;br&gt;&lt;/span&gt;&lt;div&gt;&lt;span style=&quot;color: rgb(63, 63, 63); font-size: 10px; background-color: transparent;&quot;&gt;terraform&amp;nbsp;&lt;/span&gt;&lt;span style=&quot;font-size: 10px;&quot;&gt;init&lt;/span&gt;&lt;/div&gt;&lt;div&gt;&lt;span style=&quot;color: rgb(63, 63, 63); font-size: 10px; background-color: transparent;&quot;&gt;terraform&amp;nbsp;&lt;/span&gt;&lt;span style=&quot;font-size: 10px;&quot;&gt;validate&lt;/span&gt;&lt;/div&gt;&lt;div&gt;&lt;span style=&quot;color: rgb(63, 63, 63); font-size: 10px; background-color: transparent;&quot;&gt;terraform&amp;nbsp;&lt;/span&gt;&lt;span style=&quot;font-size: 10px;&quot;&gt;fmt&lt;/span&gt;&lt;/div&gt;&lt;div&gt;&lt;span style=&quot;color: rgb(63, 63, 63); font-size: 10px; background-color: transparent;&quot;&gt;terraform&amp;nbsp;&lt;/span&gt;&lt;span style=&quot;font-size: 10px;&quot;&gt;plan&lt;/span&gt;&lt;/div&gt;&lt;div&gt;&lt;span style=&quot;color: rgb(63, 63, 63); font-size: 10px; background-color: transparent;&quot;&gt;terraform&amp;nbsp;&lt;/span&gt;&lt;span style=&quot;font-size: 10px;&quot;&gt;apply&lt;/span&gt;&lt;/div&gt;&lt;/div&gt;" style="text;html=1;align=center;verticalAlign=middle;whiteSpace=wrap;rounded=0;" vertex="1" parent="1">
                    <mxGeometry x="460" y="220.75" width="77" height="109.25" as="geometry"/>
                </mxCell>
                <mxCell id="22" value="" style="image;aspect=fixed;html=1;points=[];align=center;fontSize=12;image=img/lib/azure2/databases/Azure_Database_PostgreSQL_Server.svg;" vertex="1" parent="1">
                    <mxGeometry x="867" y="183" width="48" height="64" as="geometry"/>
                </mxCell>
                <mxCell id="23" value="" style="shape=image;verticalLabelPosition=bottom;labelBackgroundColor=default;verticalAlign=top;aspect=fixed;imageAspect=0;image=data:image/png,iVBORw0KGgoAAAANSUhEUgAAAZEAAACYCAYAAAAlWdQrAAAAAXNSR0IArs4c6QAAAARnQU1BAACxjwv8YQUAAAAJcEhZcwAAEnQAABJ0Ad5mH3gAAHe1SURBVHhe7Z11nBzl/fjfM7Mu5345ycUvLoQICQFCkOJOkdIipcWhwJcWbaG/0lKsQIG2UKC4FbcQIsRdL3aRs5zr+u7M8/tjZjeXI5dckgtF5s1rye7e7OwzszPP5/m4JIQQmJiYmJiYHARy1zdMTExMTEx6iilETExMTEwOGlOImJiYmJgcNKYQMTExMTE5aEwhYmJiYmJy0JhCxMTExMTkoDGFiImJiYnJQWMKERMTExOTg8YUIiYmJiYmB40pRExMTExMDhpTiJiYmJiYHDSmEDExMTExOWgkswBj7yOESDw0Tev0GiRJ30aSJCRJRpYlZFmX5VL8jyYmJibfE37UQmRfh96TCb2zoFBVFVXVUDWNYDBIW1s7tbtqqKysoK2tHZ/Phz/gx26z43Q5sdtsZGdn069ff5JTU0lJTsZqsaAoCooioyiKIWj2Pw4TExOT/xXfuhA5kK87HBNo/PtjqkogECQYDBIOR4hGI1gsFhwOB3a7A7fLidVqgW7GIYTA7w+wfsMGVq9exaaNm9i8ZTPlW7fS0NBAe3s7sVjsG8crSRKapiHLMkIIZFnG5XKRlpZGSUkJAwYOYuTIkYwaNZKRI0fjdNqR9/L9JiYmJt8FDqsQEUIQjkRoqG+gtraWmtpaKit2UltbS0N9PR0dHQSDQVRVxWaz4XA4yMjIICMzi8yMDNLSM8jNzSYjPYPU1FSSkpNx2G2AlDAL7Y/4GGqqq9lSvo1NZWWsXbuGiooKGhoaCIfDqJpG3NakKApWi4X09HTS09MpLi5myNBhlPTtS25uLrIssX79BmZ9OZPVq1ezc+dOWltbCQaDCaERf/SUuJCSZRlJlnE6nKSlpVJcXMxRU6YwffrxDBtaSlpaOrLcwwM3MTEx+RbodSGiaho+n48dOyv5cuYXzPzic2pqamhoaCAQCBCJRNA0LeEr6EzcfCPLMpIkYbVacTqdeDwekpOTSU1No7R0CFOnTqV06DCyMjPweL3YrNZvaAuhUIj6+gZmz/6KV199lZ07d1JfX5+Y7Dv7KroSH4dkCBVFseB2u0hJSUGWZWrr6ggGAqiqutf9xI/BarWiKErieOIIwwQWi8X2GEtn4t9tsVhISUmhf//+nHX22Zx2+hkU5Odhs9n22N7ExMTkf0GvCZFIJEr1rjo++fgDPv74Y8o2lNHc3EQgENhjhd4dkiTt9e+dJ3RZlrHZbDidTrxeL/l9+lDSty/Dhw/nqClTGThwABbFwvYd23nuX/9izpw5VFZW4vP5EpN1133LspyY5OMmpvgkH390HgeQeE9RFOx2Oy6Xi4yMDAYMGEDfkhLy8vLIzMjA4/HgdDqx2Wyd9m1oR+EQgUCA2tpaGhsb2bVrF6tWraKmZhfBYICAIaSEEEiShMViwe1206dPH46bPp1f/OJyBg8aiHUvAtTExMTk2+KQhYimaTQ1NfP5zJk8+/TfKSsro7W1dQ9/gCzLWCwWrFYrXm8SSUlJeDxunC4XdpsNq82OLMvEYjEi4TChUBC/P0AwGMDn8yWEQOdVe3xSj0+u6enpjBo1mrz8PGZ9+SU7duwgEAgkJvy4AHK5XGRmZpKZmUl6ejppaWl4k5JwuVzYbXZiaoxwKExbWxutba00NjTS1tZKc3MzbW3thEJBkpKSKCgsZED//owZO5ZhQ4dRUNCHpKRkfT8OO1aLFVmOC57d5jf9lOwWJpFohFg0SiAYoq21larqanZs38bsOXPYtHEjO3fupK2tLXE+4z6U0tJSrrzqak466USyszKxWHT/jYmJicm3yUELESEEkUiEDRvK+Oc//8E777xDY2MjsVgsMbnHV+h9+/ZlyJBSCgoKKCouJiszk6SkJNweN3aHA0WWkSUZTQii0Qh+nw9/QBcgzc0tVFRUsKummsrKKsOXUU9bWxt+v59oNIqqqgCJVXlc2EiShN1uJzs7m8FDhjC0dCilQ4fSr6SE7JxsUpJTcLqcWC0WZCPMNj65a5pGIBQi6PfT1NREY1MjtbV11NRUU1hUROmQIeTn9yHJ68FiRFUlzs0eYb76a/1/gARSZ9NdJyVC/16BqsZoaW2jurqKlStXMmf2bJYsWUpVVSWhUAjNcMxnZGQwffp0fn3NNYwaOQqXy2lqJSYmJt8qByVENE0jEAjw8Sef8qf/90fWrl2bmMjtdjsZGRmMHj2a8eOPZNKkSQwdNowkryfhI5C6MV11Jj4ZCiFQNQ01FiMajdHc2sq28nK2bt3KihUrWLtmDdu2lePz+QiFQokVu8ViITU1lWnTjuGyn1/GqFGjSU1Jxmaz7THRavFxdB6O8WcprkFIEnQyc8UFxm7zliCmagTCEfzBCB2BEL5AmBZfmEA4SjgSI6pqKLKMIksoiozXaSPNayfZ48LrsuOwW7FZZCxGiG88IisWU2lrb2ft2rW8/fZbzPziCyoqKggGg4njHDBgALfedhtnnHEGyUlJCYFoYmJicrg5YCEihMDn8/HiSy/x+/vuo76+Hgz/QEZGBjNmzOC8Cy5k/BFHkJKcjM1m1VfknVbnqqoLhmg0RiSm2/1jmsAiyyiKhN1qxaIoSDLIkqSbhTqZhCQjTDYcDtPe3k5FZRVLlixmzuw5rFixnPqGBsaOGcuVV17JCSecQFpaakJwacZqP6ZqdATCdARCtPnDRGO7nds2i4LNquB12fG6bDjtNizGxL7bRLWbWExl+65mXp25hlVbdtHmCxGMGMem6d8Z33fCDKdIWC0WXHYraclOCrKSGdgnnf59MijJTyUnLQmroicjEj/v/gBbtm7lpRdf4M033qCurg5VVZEkiaysLM4551zuvPNOsrIyTUFiYmLyrXDAQiQSifD++x9w3XXXUltbC4YAKS0t5fobbuT446eTn5ePxaIkzDkxVaUjEKbNH2J7TTM7alupbuigzR/CH4wQicYQgEWRcNlteN0Oktx20rxOctK9FGYlkep14XJYcNpt2CwWYzLfPS4hBA2NTWzYsJ4NG8qYPHkyw4YORVH0yVTVBP5giMa2IOu21VK2o5GddS00twdoD0SIxTRUTYAEVkXGbgiRjBQ3+ZlJ9MtLY2BBOpkpHpJcNuw2K5Ih3IQQBEJhVm3ZxdtzNrB4QyWhcBRh+G7i/3YmftqFockIIbBYFDxOO31zUzhyWCHHju5LbnoSHpcdpZMwaW5p5d133+WJvz1OWVlZQvvyer389KKLuO+++8jKzPzGd5qYmJj0NgckRMKRCJ99+ik33XQT27dvRwiBzWZj6tSpPPLoY/Tv31+fXA1NwR+KsL2mhbmrt7NkYzXllc10BMJoQjftSNJuk1AcYTid4xOrJEnYrArJbgfZaR6GFGXSLz+Nkrw0inNTSXY7sFt1oUInbSe+4lc1QVObn7mrdzBreTlrttbSHggDYFHkuOUKsduKtcdzDYGm6pqUw2YhLzOJ0QNyGV/ah6HF2WSluvVjRvenhKNRlm+q4aXPVrFqcw2RqO4j6glC6EIMJGKqhttpY/yQPvxk0kCOGFxAiseZEJyxWIxNm7fwt789zptvvEFraysY5sRzzz2Xv/z1YbIy0nv83SYmJiYHQ4+FiKZpLF22jKt/+cuED8TpdHL22Wfzh/sfID8vz9A+wB8Ks6a8lo8WbubLZVuJRFVkCYSmT8ZIUmKS3hei82yObtqSJIjGdCGUne5hzMAcxg7qw5FDCsjLTEpMmpqm0dDqZ9H6Cp7/aAXbd7VgUSQ0bbdZ6UCInyZdOEFME2SleJgxfgDHjilhYEE6bpcdydB6guEI/527gf98vpqGFt9etZF9oR+6QJJ0TWrCsEIuOn4kI/rn4HLYkJDQNJX2Dh9PP/13nnziCWpqasAQJBdccAH33HsfhQV9TNOWiYnJYUO599577+365t7w+fzcc+89zJkzh2g0is1m44gjjuCZZ/9Bfl4uiiIjBHQEQrw6cw0Pvfo1myoaiMV0h7selmTkfHTZd3dI8UimzlqC0B3eAoE/EGbHrlbWba9nyogistK8hvahUVnXxsOvf82Ln66kzRfS98funJMDpevnJCAQjrJhRz2zVmxja3Uzgwsz8DhtKBYFm0VhUFEmo/vnsLq8lnZ/GO0ABIm+lf5/IQRVDW3MXrmdjkCIwYWZuBxWZFnGYbczdNhwHA47S5YsIRQKoaoqGzduJBQMMnnyUdjt9h5/r4mJicmB0CMhoqoqX876ikcfeYT29nYURaGgsJDnn/83/fuVIBl2/x27mnnsrYW8P6+MUDiG0HablXqTuBlMkiS8bju3/XQq4wbnY1FkYqrG2vJa7n9xNis2VaOpeqhv749BF4aaphGJxqisb2P2qu10+MMUZyfjtFuxWhTSk91MGFZAW0eQqoZ2ouru5MWeEj+/0ZjKpoomNlY0UJybSqrXiazIOOw2+g8YSG5eHosXLUokKm7evJmU1BSGDxtmJiWamJgcFnokRBoam7jttlspKytDVVVSU1O57977OP746ViNJLftNU3c+9xXLC2rSvgBDuekJYTA63ZwywWTmT5uADarhUhUZe6qbfzxpbns2NWMZgixw0n8OIUQdARCrN5ay9pttaR4dR+OzWYh2eNg1MA8VFVla1UzkZjaY5NenPhxqJpGdUM7a8rryEp1k5fuxWJRcLmcDBg4kLS0dBYuXEAoFCIUCrFh/XqOPvpocnJy9shlMTExMekN9itEVFVl1lezeOJvfyMYDKIoCtOmTeN3d96Jx+0GoLk9wL3Pz2Ldtlpixsr/cCKMzO3TjxrCBdNH4nLYUDXBonU7uf/FOTS2+g5IgByov6I7dD+Fxq7GDuau3onXbaMoOwWHzYrbYWNk/zxC0SgbKxpQY92fp+7G01lgNbYFWFpWRXqyi6KcFKwWBYfDzoCBA2loaGT1qlVoRh0zu93OxImTcLpcByS4TExMTPbHPj2uQgha29r44vPPCYVCSJKE2+3mjDPPJDkpCYCYqvHevA2s2vLtCBCMybRffhpnTRuK22FD0wTVDW088/5SWtoDaNqBm4u6p0dxB3sgSRAKR/jbmwt54ZPlRkSawOWwcvkp47jguBHYbLpWsLe973s8+t8VWaKlI8hjby5gWVklUcP3lJKcxF133cXw4cORZRlN0/jwww/ZWVGB6FI7zMTExORQ2acQ0TSNsrKNfPLJJ8RiMRRFYcqUqZxwwon6BCUEW6oaeWXmGmJG0tvhRMST9iSJs6cNpTg3FYBAKMJzHy1jw456YxXf9ZOHwoHtLK4tAESiMf7z+WrueW4muxrbEQI8TjtXnDKOS08YbSRR7l2Q9ARZkmjrCPLQa/NZvaUGTdM1tJTkZE459TRcLhcATU1NLF60iGg02nUXJiYmJofEPoWIqqrM/uorqqqq0DQNl8vFjBNOICc7C0mSiERVXvl8Nc3tgW6n2nhobPzfQ0UTcOyYvkwZWYzNohCJqcxeUc7nS7dCN2ag/wVxYRKLqcxduZ0HXpxDbVMHAG6nnYtmjOInkwbryZCHeG4q69v4+3tL2VnXihACm83K9OnHkZKSgiRJBINB1q1fTyis58eYmJiY9BbdChEBhMJhFi1alKiLVVBQwKSJE7Faraiaxo5dzcxavg1h5F7sjfikfiiTe2cBZLMonH/cCLJSvQhgV2MHL3y2mmAoekjfcbiIj2lpWSX3/XsWjW0BQCLJ4+TqM45k9MA86EEtse6QJL2u19ryWt6Zsz6hjZSWDiM7OxtZllFVleqqKtrbdSFmYmJi0lt0L0Q0jdpdtezYoWemS5JEQUEBefn5SJJENKby2ZKt+IKHb3Ubn1jjE7EmBAMLMyjJS0ORZULhKB/M38jWqsZuNaHvCpomWLqhihc/WY4vGEYCslLc/Pyk0fTPT++6+QETjams3rqLQFgXpkleN8MMvwhAc3MTHe3tXT9mYmJickh0K0RUVWXHjh1UV1cjjGqxY8eOIznJC4AvEGHOqu2Htf93Z81CCIGiKPz0+BF4XXZAT8D7bMnmbqOZOnOwK/3eRfDmV+t56bOVuiCRJUYNzOfSk0bjdTt2VxQ+QOLHXt/qp8MfMs6HzJDBQxJhvX6/n0Aw0OWTJiYmJodGt0JE0zS279iOz6eX7HA4HIwaPRqbzY6mabR0BKhp7Nhr/avDRV6GlyNLC7FYFKIxlaUbqmho8fdIC/m2xrg/wpEor81cwxdLtxKNqthtFo4aUcQZU0tRjO6HB4MEhMJRGlp9+mtJoqCwMNFGNxKJoCaqB5iYmJj0DvsUIlWVVcRiMQDcbjfFxUVYLAqqJtha1UQkqv/tcCOEQBWCMQPzEnWjWn1Bvlq1/YAKHH5XaPMFeeWL1Wyr0RMik90OTjpyIH2ykhMl8w+GaEyjrkXXNiQJkpOSEpqIJkTCt2ViYmLSW+xbiFRVJl6npKTg9eimrGhMY+XW2kQxw96iu8lTkiSEgCkji7FaZECwubKJHTUtBx0e25W4IOpuDHujJ9t23UaSJGRJory6iTe/WktHQM+/KcpJ4aIZI7BajPyRHuz7GwhBLLY7jFdRFOR4/3hJQurcRtHExMSkF9inENll9AuRJIn09HTcbpfhVI9RXt3c9SOHTHcahQAyU9yMG7S7Ptbqrbto84d6ZMraG10n6a5O/J7Qk233to0kSQgNPl28haVlVURjKg67lakj+zK0JPugBaMQEIvtTii0220JTcRms2Gz6qYtExMTk96iWyEihCAY2O2ITUlNxel0IoTAH4pS1+xD/hb8IUIIJGBIcSZOuz4JBkJRVm+tJRo7+ATHg/1cbyHLEv5gmFdnrmFLVRMSkJ7s5sZzJuCwWWEvgm6/SGCz7q6PFYupaEaWusvlwuFwdNrYxMTE5NDZpxCJJ6fJskxaahpWmw2QCIWjdAT08urfBhZFZkRJNoqiT/y7GtvY1dh+0FrIdwVZkliztZbZK8uJRFUsisyAgiyOGJJ/UFn3sizhce8WFOFwOOEHcTqd2O32TlubmJiYHDrdChGASDgCxqrd43Eb4byCSEwjEtVXuAe8Wj5AJEnCbrcyvF9Oonvh0k01NLcHu26a4HCPqbeQjA6Qny8pZ8euJv1YbQpnHz2Ug3E3ybJEktOqqyRAIBhMaCLJqWl4vbpPy8TExKS36FaIiE41qCRJwuv1GolrEqFIFFXbs0/H4Zy4k112BuSnI0sSsZjG0rIqQpHuI8P+16aqzvTkvOxqaufDhZuJxlQUWeaIIX0YUpyFLPc8k10AdpuVVK8bSdK/t6mxiUgkgqIo5OflJWppmZiYmPQW3QqRzhOxJEmdJiCBavQ/7zzB7W3i7ukEuC8kSSIvM4nUJN2pH4rGqKpvR/2eVKTd23nBODfxsxONqSzZUEWbL4gkSThsVk4Y358DsWkJAXargsO+25+yq3YXmqZhsVjIyc7GYkR+mZiYmPQW3QoRjNVtnFjswPMxDnT7vSFJEgVZyXqhQsOp7gtGQOzevzAemiHYVE2gaQJN6I+uAu/bJv798Yx0iyLjcthIcjtI9jrxup20+8Os2lKDELpZaszAfJQD7I3ucdiw2/QmYUJATU01mqZhs9noU9DHbEplYmLS6+xzlrIYXQuFEGialpiIZSNvozfZ2yQvEMgyFOckJ7bxBcKEjSTH+OSsSBJ2q0KK10l+VjJDS7IZM7gPYwf3YWjfbPIyknA5bca4v12BIowGWh6XnUGFmZw+tZTrz53AvZcfx5+uPoE/XX0iD/7qBH576VRy0/UeLQD98tPISfP2SBsRQiBLkJXqxmZRdEGqquzYrtc9czqd9O8/wBQiJiYmvc4+hUi8ZAaGJpIQIrLUk7ntgNir1iLAqsjkpHkSb1U3tqKqKrIigSSRluRi+vh+3HHpNB6/4RSe+c1pPHXLafztxp/w+A2n8OTNp/H335zGn355AjOO1CfSuIP+2xAmiiIzaXghf/zlDJ68+VTuuHgaF0wfxXHj+jNhaAFHlvZhQmkBk4f3ZUhxVqKMjNNupV+f9B4La0VRKMpJxWpVEAIam5oSJfzz8vLIzspKFGM0MTEx6S26nVUkScLr0SdvIQR+vz8xodksChbDvHTYJ2JJJi3ZkxAylfXtCCQGFmRy7dkT+Of/ncXdPzuOUyYNZni/HPIyU0h2O3A5bLgcVpI9DgqyU5k8opg7f3YMf7j8GLLTkvZa8+tQjqXzZ+Pajs2qcM1ZE/j95dOZPLyI9GQPFkXPINc0gappqNpuHxNIe5gQZVlKCLz94bApFGanGNqWxrZt5Ym6Z6Wlpbjd7m8cr4mJicmh0q0QURSFjIwMMLLXm5qbUVXdjORyWHA5dAfu4UaWJBw2S2KSTktyceelR/PwtSdx2Ulj6ZuXhtNhTVQT1jRBRyBMc3uA5vYAvmAEoTdDxGm3csKEwdzz82nkZyUj2HtwQHfCpLv32YsmZbEoXHPWkZx37HBSvE5DcGjsampnzZZdfLF0M2/NXscrn6/krVlr+GjhRhas20E4Ei9bIhFTNRA963yY6nUyqFAvKa+qKmVlZfh8PiRJYvTo0WZklomJyWGhWyEiyzJ9+5ZAXIg0NhEKh5EkCZfdRnqyu0eT26FiUXR/h2SEEx83th8zxg8kJyMJWZaIqSqtHUHWbK3h1S9W8cCLX3H7Ux9zw6Mfcv2jH3L73z/hiXcWsmF7HZqml4wfO7gPP50+kqROiXmd6SoQ4sKj6/t7QwAxTTB5RBGnHlWKy2FDE4Kq+jaefHcRNzz2Ebc9/Rl/fW0+T727mMfeWsifX/2a+56fxUOvfk2bL57EKXQh0sOznJuRREGW3skwGo2xZPESAoEATqeT0tJSHA4z0dDExKT32YcQUSgoKko4Y1tamgkG9QQ/h91KfmZSrxdg3Bs2q2WPUh42qwVFkVFVjcq6Vv7z2UpuefITrn/0Ix5+fT7/nVfGsk017Gr20REMs7W6hRc/XclNf/uYBWt3oGoCRVY48ciBDCvJ6dEU3RPhkUAI3A4bl/9kDB6H7lOqqGvlDy98xYfzN3HsmL7c9bNjeOTak/jLr0/itKMGY7cqaKpAkeU9IrJ8gTC6kat7hKFmDeiTltAOVTVGWVkZsZhKWloaeflmZJbJt4sQ+iIoEo3R0hFgZ20LmyvqWVdew9KNVazcXMPmijp21LbQ4Q8RjaloCbNu7yGMqM1oTKWl3c+OXc2s2lLD/HU7mb1yG/PW7GBpWRWbKhqoa24nFImhdgoiMtk/kujmbEVjMWZ+MZMLL7yA9vZ2SkpKeO+99yktHUIoEuPZD5by3AdL9eqwBzLJHgBCCLLTvfzr/84iP1OP0FJVjdrmDhauq+DduRvYVtNCOBpLZGZbFJmfTBrEGVNKcTnsRKIxyqsa+O/XGwlFVJ68+VRSvS40IXjp0xX844NlBEORXjmG+Jkc1i+bp24+DbfLTigc49n3l/DGrHVcfcZ4Tj9qMG6nHUnSiyV+uLCMJ95eTFtHkGElOTx1y2l4XHbCkShn3/kq1Q2tSPsQI7rvxcJvLjyKs44ehiRJ1NU3MHrUCOrr6xk/fjxvv/0OeXm5vXKMJibdIYQgElVp6QhQ1dBB2c56duxqobqhnaa2AFFVJaZqCfOyosjYrRZy0jz0zUtjQH4aA/qkk5eRhNtp77E/cG+omkYwFKWmqYPtNU2UVTSytaqJ+mYfgXAUVdV9kpIkYVFkbBaF1CQnhdnJDCnKYHBRFnkZSaR4nAk/5v4QQFtHkKqGdmKqhixL9InnuHXd+AeEcu+9997b9U3Qz4jf7+f999+jra0NgNPPPIuCPn2QJIl2X5BZy7fBga7UDwQJkt0OTp1cSpLbjhCwfFMlD7++gPe+LmNXUwcxVUMyxiAAp8PK9WdPYHi/XLLTPGSluumXn87YQfm8NXsdHqeNQYWZWC0yMVWwblstTe2BXjoGgSxLHDu2hEnDi7EoCrsa23jq3cW0+kLkpHsZ2jcLl92Gqmps39XMS5+uYseuFmRZYmBhBidPGIisyLS2B/n3pyuIRvdfZDLZ4+CcY4aRn5mMqsZYtHgx//zHP9A0jQsuuIAZJ8zAYdbNMjmMRKIxyqubeGv2el6duYa3Zq9l/tqdbNzZQE1DOy0dQdr9YfzBKP5gBF8wTLsvTHN7kMq6NtZvr2f+mgoWbaikvKYZu1UhyWXHZrXs9/rvTEzVaGzzsXRjNa99uYbXZq7hk4VbWLG5hsq6Npo7gvgCEQLhCMFwjGA4ij8YptUXorbZx5bKJpaWVbNgXSXrttfT3BHE7bThdtpQ5P0smIVgyYZK/vjSHD5euIl5q3fQPz+NomzdzPxDZR/mLIncvDxycnKQJAm/38/2beXEVBVFkembm4rVqueRHDYERKJaQssQCF78bDXLN1br2kOXzSUgEI7y3vxNNLcHDHObhCzLRKIxNCH4clk5/pBeWLI4J5ni3JQuezk0JEmmT1YK+iJKsL22hYZWP6qq8t68Dfz1tXm8MWstL322inufn8XKLTVomoYiSWSnevSsciFo8QUJhnb3BtkXBdkpFBoXaiQSYeYXn6NpGna7naOnHYO9U6i2iUlvE47EWLCugvue/4oXP1nBsrIqmtsCSEYgTN/8NMYOymPKqGKOGVPCceNKmDKqLxOGFTC0bxbZaR5sFoVwNMaOmmY+WrCJu/45k2feX8L2XU09NpuHwlGWlVXx0Ktf84fnZ/HB12VsrWrCHwxjt1rITvNQWpzJ+NI+HD26hOlH9OPYsSUcNbKYUQNy6ZOZhNdlJ6Zq1DS2MW/Vdp58exH3/etLPl20maY2/z7NXAIIRWLUt/hobPXT0h7YZ3mmHwrdaiKSJGGxKMyb9zUbNmxACMHQ0lImTZqEzWYjHFX577yyRHfDvUla0YPe5/vDabdyysRBpCa5EAJmLS9nx66WxN87712SJBCC7btaCMc0irKTCUVi1LX4+Msr89hU0UBMFZw8YSBelwOLRWZzZRMrN+/qtV7xsixz7Nj+DCrMQJYl1m+v56sV2xL23u27Wpi7egeLN1TS0h5IXJQ2m5Vjx/RlZP98BLClsokPF2zUfSLdjE3/rMQxY/syZWQJVotCe0cHD/3lL1RWVpKfn8+111xDdnZ2t/swMTkUNE2wuaKBu/81k4raFlRNYLXIZKS6OXpUX644ZTQXzRjNTyYNZvoR/Tl2TD+mjSnhuLH9OHZsP2YcMYAjS/OxWC20+XTfSExVCYZjbNrZQF2Ln7GD8nA5rN1ew8IQIIvX7+Tuf31J2Y4GQpEYsiThdtjIy0zi+PH9+eVp4zh/+khOOnIg08f1Z9roEo4ZU8KxY/pxwvgBTBvdl/wML75glEhUN71FYyoNrX4WrK0gElMZXJSF3WbZ63whhKC8ppm5q7YTUzVsVgvTRhdTkpfe7dh/CHSriWBMiP3790cywlPLysoIR/TKvnabhfQkZ9eP7EFvnDghBDFjJSJJurlqbz9gZ2IxlbdmreWi37/BxX94k4t//yZLNlShSBJtvhDNHSEEuiM7PyMJi7Jnfsah0rltsLPTBSdJunfDqkhYFf15/BzZLArFOSl6EqeAxlZ/Yvt9YbMqjBuUj82qoGmC1tY2tm3bhiRJDBo8mKxsXZPsKbGYSiAQpKPDR0dHR48fbe3ttLXrz30+P6FQaI8EVZMfHkJAbVMHz7y/jKa2AEKA1aIwcVgRf7/ldO6+7FgmDi8hO81LktuB22HD6bDitOsPj9NGapKTYf1yueX8yfzrjrP49VkTSHI7kIGoqjF31XZembmGUCS218RbIQSRSIz35q7nrn/OoqUjCEaO1uCiLP549Qn8646zuPn8oxjeP59UrxOPy54Yg9Nuxe204XXZKcpJ5ZxjhvO3m07hsRt+wnHj+uF22pAlvb7d61+u4ff//pI2XxC1G+1ojztN4qCqcX/f2K8QKS0txW63o2kalZWVNDU1AeC0WenfJyNRD+pwEYlpxDoVW0x22fcZriQZjn5N0/AHwjS1+ohEooZ5CcLRGPUtHaiqhiLL5KZ79HpTvXYcglZfMKElZCQ5cRlFEek0vvgjjt2mkJ6s53IIIdjV1IZlH45FYRRwTPU6KclLR5FlVDXGunXraGxsRJIkjpo8Gc8BJhlu3LiRW265mYsu+ikXXnjhHo8LLriA888/n/POO4/zzjtvz+fnncf5553LT3/6U6666kruu+/3zJ49m/b29oQ50uSHhSY0Zq/axpINFcb9JHHUyCLu/Nk0inNTE/XuuqPzfSDLMmlJLs4/dgT/d/HRuF12EHoNvHfnrmdLZeM3riMhBMFQhJe/WMXDbyzAFwgjAcleJ5efMpbHbzyFycOLSPE4jTbR3S9sO4/FabdR2jebu352DP/v6hn0zUtDMoJ65q/eyb3Pf0ljq57I22UviISFQF8MdvN1Pyj2+SvLssygQYMoLCxElmXq6uqoqa4GIwpqaN8sYmrXE9m7iC4tX90u+75kSIKuk3X84hFCY2tVE5GYiiRBqteFx2XvNU1E0zTKq5t1h78EORlJZKR69rt/q6KQ7DGECNDqC7O7zm/3DOmbZQgfgT8Q4M033iAWi+HxeJh+/AxsRpfEnuL3+9m4cSMrV65k5cqVrFixghUrVrB8+fLEe6tXr048Vq1axerVq1mzZg1r1qxh+fLlzJkzh5deepErr7ySiy++mKVLlxKL/fBtwz82IlGVZWXVRj4TZKZ6OGfaMDJSDmzhEkeSJBRFZuqovlx4/AhkWUYIQVtHkDdnryMc1RusxYnEVL5auZ1n31tKNKYCgpx0Lw9cOZ1LTxxDile3lBzsWBx2KxOGFvHAL09gSN8sMMKFF66t4LmPlnfK6Yp/SF/fJr5Pt67/4NmnEAHIzMxkyJAhKIpCW1sbVVXVqJqGokgM75u1Rw7H4UCS9OS9uHS37C9CYh9IkgQCdtbpIXiSJOF02Ej26G1/ewNNwPZdrYlSJi6HjcLs5P2O2W637tEWt7kjaKxkuv+cLElMGlaAw6jcW19Xz/z5X6MoCkcccQRFhQUHUS9rd9VjSZK46KKL+M2tt3Lrbbfxm9/cyk033cz119/A9dffwA033si1113Htddey7XXXscvLr+cU089lSFDhuB0OgmHw6xevZq77r6bdevWm4LkB4QQgpaOADVNHfqqB8jLSGJAn0Oz/0uShN1q4ZjR/cjNSErsa/22Olo6dvsQNU1Q09DGPz9cRjgaBSFIcju45cKjGD0oH5tV96Ec6lgsRhDRr8+csEeawedLt/LVym0JAQr6irfrLHLw3/79YZ8zjCTJpKamMmz4cBRFwe/3s2HDBsKhEIosU5STSlrS4S2nIYwe63G6s0X2FEmSqGv2ETW0G7tVIdWz98z1A0UyfBhV9W20tuu1xpw2C0cMzsNu1avrdofS5YIPhmPfuCA7owlBXmYSU0YUY7EoqKrGxk2baGhowGKxcPrpp5OWfmA3tD48CUXRxyqE4JTTTufKK6/k6l/+kquv/iW/vubXhtC4ll//+tfccP0NXH/99Vx//XXcftttPPjgn/nXv57jscceZ+DAgWiaxsayMh5++K80t7R8wyTxfUEIQTgcYUv5NjZvLcfv3z2h/RgRgD8YJRCKIAyrRX6GJ7EQOhRkWSI33UO//NTE9dvcHmRnbWvCfO4Lhvlw4Saq6ttA6Dkn5x03nAmlBditll41I1kUmbGD87n1p1PwuvQcr3ZfkFdnrmFXo57+AMaKtws/hitkP0IEHA4HpUOGYLVaUVWVlatWEgjozZNcDhsDCtKQjBLrhwNZlvZIaBTGDX2wSJLutI5EdaevzaqQbqi9h7LfzviCYeat3ZkIhx5UmNltiZU48b4ncRRF7nYVo28ncfSoYpLcDiSgqbmJzz//jHA4jNPpZOrRR2OzHtwNraq7c1NsNisupxOXy4XL5cLjduPxGI/Ecw8ejwev10tKSjKFhQUce+wx3P/AA4waNQpVVVm6dClvv/02ESMw4/uGEILKqip+cdllXHbppWzavPmw+wO/0wjdnBRvywACh816SAmCnbFbLfTPSzMqhktEojF8wYjeJ0jT2L6rhQ++3oiqasiSxJDiLM4/dgROe/dRXAeLJEnYLBbGD+nDeccNx6IoaAIq61r5YP7G3dqI6KJ5mD4RHVmW6Ne/P1arFU3T2LRxI7V1dQghUBSZocXZ+42WOhREL/8QkiThD0UIGYUObRYFl9PWqxeeJMG81TsJRfRGXgXZKfTL151z3QkqIfb8m8umdK8MS+Bx2ThqRDE2Q8PZuWMnn3/2GZIkMXz4cAYMGHDAx6Rvrvc/SbzHgS8QJEnC4XAwbuxYTjn1VCwWCx0dHXz55Ze0tbd33fx7gRCCSCRCZWUFFRU7CQQCcdXtx4mkR2LZjJ5DCGgLhHtNsCqKzICCdIb2zWJo36xEgrAkQTASY9WWGj0SC5AVmdOPGkKyx3EQ5tueIUl6uacTxvfXo8ckPT9mSVk1/mAkcY8I46F/6MdxifTojOfn9yE/vw+yLNPY1MT6dWvB8E8MLsw47G1XO0+Gh2oOkYys1ojhpJNlCafh1znQSXdvSJKEIklsqWqi3R9CCIHXZWfKiELkfZyncCRK2EhMkiQJr9sBUne1hCT690lnYIEelRWNxvh6/tdUV1djdzg4/4ILsNvsB308mlEOIv75g92P1WplzOgxpKalIYSgrraWZiO673uHEfFHfCFwkOfkh4IEuB1WnHYLkqFJ1zb5aPOFesWEoygyR40o5vdXTOeBq2bw+yumM25wPpJhjl65ZReq4dfMSvUwZUQRSi9pQd0hSRL5mckcM6YvFkV3+lfWtbKztnn3vWI8wNRE9iDJ6+Hoo4/GYrEQDARYtny5rkbKMgMLMvC6er6S3/ukSGf5vQeypFfyxVit66Xd975tT0kUezOc01arcshmsq60tAdZW75LTzqyKIwvLSJtH3k1kWiMxjYfGBdhVoq725pZEjB5eBFJbr3EfEtrK7NnzyYUCpGWmsr046Yfsllh97noTpDtH0mSyMnJIcPwzbS3t9PRoR/j94342UysOI3r50eLJJHicZCT7jVW3IKKulYWra8gHNm3P68nyJKEx+WgMDuVwpxUCrJT8Lp00+3WqkbWldeB4a+YOqqY9GT3YdNCOuOwWTlmTAkuhz7n+UMRZq/aYWhgXa4Jqdtp7QdFj8663W5n0qRJOBwOotEo69etIxQKIUmQk+41oii6fuqbiG4y2PUb85vvA1itCjbL7mE2tQUPLYGniwNbGLHovU1M1Xh77kY6Anr5/KxUN0cO0euO7W1SDsdUmtp19RwJMlPcqHvZDiAjxc2UkcUoxmqobMMGVq9ahaIojB49hsLCwq4fOQD0mP3Orw8WSZKw2u04HA4kYyW/L5+IiPei1zRUVSUWU1FVvezN3s5ZT4gvDjSjZXAsFt+vmthvT/bdeRtJkpDk7kT8N+l8XJ2/v6ffvT/22L+6e9/d0Xn7+CP+3r4+1xnJqOY9bnB+okBhmy/IS5+uYs7Kcl2Q9HBfB4KqCXbsasUX0EsXOe1WJgwtPORFU0+RJIk+mV6S3Q6EUR14xaYaYjGVb8xivX/430l6JEQURaGouIjk5GSEENTU1NBhNDxSFIXBhfpKc38Xzd4ECF3e77wPyQixs3ZyEHcEusRmHyhGP/L4RSeEHrK395EdHJIkIUuwYXsdFXWtCKM8/CmTBuEwEg/3PFcS0ZhGQ6vfeCWR7HEmtKXOyBIMK8mmyOhiGIlEmT1nDg0NDbjcbs4971zs9oOrlaWPSZ9ceguh6ZMacaGyl3prQghUVaPD56OquoZ1G8pYuGgx8+bNZcXKVWzZWk59fT2BQLweWs9QVQ2fz099QwPl5dtYuXIVCxYuZM7cOSxZupyNm7dQV1dHR4cPVd27oIqpKsFQhHAkmgg4iE/A4UiUUDhCKBwhagRqdEYYfpSWllYqq6pYvXYdCxYsYP6C+axctYaKykra2tr1Ccj4qKYJgqEw/kCQaKfKBxjaaigcIRzZrY1HYzFaWlrZvn0Hq9euY/HipSxZupzW1ra9jycapa2tnerqGjZvLWf12nWs21BG+bbt7Kqtxef3o3YOW90HkiQxbnA+RTmpSIb9v6KulcfeXMRbX62hqqENfzDcq6XVY6qmF141TK4Ou4Wc9N2dT78N0pI8ZKa6kWUJIaCpPYA/FP2m4qFnFPzg6bYUfFd27arltNNOZfny5WRkZPDOu/9l8qSJCAGfL9nMfc/PStj0e5PCnFSeu+NM0pLcRKMxLrj3DbbVNB30pC+EIC3JxT9uP4O+eem0+0M89uZC3pmzDmkfgu5AiZ/WX5wyjitOPQKHzYI/GOE3T33CwnUVesRZp22tVgsXTB/BTecdhUCwflsdlz3wVsI/Ed/OZrVw3xXHccL4gQBUVFRy+umnsXbtWkaPHs3HH39CZmbGQR2HELBkyWLuuOMONm/eDMBbb7/NEePGHVQ/Ek3T2LR5M1dcfjk7d+6koKCAZ559lhHDhye2icVUdtXW8tmnn7J8+TKWL19OY2MjsZgelCCEwOFw0qdPPiNHjWbGjBmMP+IIUlNTujVfaJpGTU0N877+mrlz5rBx40Zqa2vx+41SMsa5sVgsZGVlMXz4cI455hiOO246aWmpiWONxWIsXrKETz/9DKFpNLc08/577yGE4KSTTyY3Jwehhx7Qr19/zjzrTJKTkgCIRCJs2ryFL774nPlff82WLVtoa2vbw9+UlpbG0KFDOXraNI495lgKCwuoq2/gjTdep76+nkkTJ3HiiSdgs9kIhUK8/8EHrFu3nvT0NC772WV0+Dr47NNP+fTTT1m/YQN+nw+QcLtdPPjgnznppBOxWPSuoMFgiK3lW5n15SwWL17E5s2baWtrIxaLIcsKNpuVjIwMRowYwaRJk5h81BQK+uRjiTvOuyEaU1myoYL7X5hNfbNPnzQlkCWZVK+ToSVZjOqfR9+8ZIqyUkj2OnHarVgVJZFFfiC0+0Lc9c8vmLd6B5IkUZiTwj9uO4P0FM9BzwkHSjgS4/4Xv+KThZvRNI3MVDf//L+zyc9I4oulW7jvuS8JRWJ4nHbu+vk0po878CCX7xPdFmDsitVqYdWqVaxduxZVVcnKymLaMcckIno+Xbyl1ytWSpJEQXYyZ04ZgtViwR8M88KnKw+p/4cmBDnpSZw+pRSvy44/FOGr5eVsrW7uVZU4Pr5dzT4mDSskLcmJoijYbQpzVm1HM5yC8W0lSSI3PYnjxurdJMORGG9+tS7RjVEY2w0oyODnPxmH26GXk//8i8955ZVXsNlsXHDhhZx40olYDmLCB5AkqK6u5osvvqClRS9yed75F5CXm9vthL0vYrEYXy9YwDtvv00sFmPAgAFccMEFeDwehBCEwmHmfT2f6669ho8//oitW7eiKAp5eXnk5+eTl5dPRkY6iqLQ2NjIurVr+eyzT1m/fj1FxX3JyMj4hnDTNI0tW8u55557+Pfzz7Nt2zY9hyG/D/36lTCktJShpUPJy8vH7XbT3NxMWVkZs2bNYu3atRQWFZOdlYWiKKiqypw5c3j22WdYv34d5Vu3Eono1151VRVlZWVsWL+esrIyLBaFqVOm4nK5aGhs4r//fZfbbr2VOXPmUFtbi9VqJTs7m6KiIvLy88nIyEBoGuXl5cydO5elS5cweEgpkUiEp//+FPO//pq8vDwmTpyIxWIhFArx9NPP8N9336G1pYUJEyZy37338uqrr1JVVYUkSTidTux2O3a7neOOO47+/fshSRI1u3bxxBNP8P/++Ee+/vprmltaSE9LY8CAAQwePITCwkKSk5Pw+/2sWbOGr776ik8++ZiUlFT69euHouidRfeGIsvkpHkZkJ/G9lrdzKQaYbihSJSqujZWbK7hy2XlvPf1Rmat2EZ5dTOtviDtgRBqTMVilEeJ3wf7otUX4KMFm6lt7kCWJTJT3Jw1tRR7L+Sn9BQhBGu21bJ+ez2api/sThg/gPQkJ+U1zcxZtUP3hdosHD2ymJL8A8vX+r6x72VGJywWK5MmH8Xrr7+O3+9n3ty5hMNhHHY7+ZlJZKd5aPMFey2kTRjOtRSPI5HvEAhFCYZ7Vh69OzQhyE73GAlJEqGoSlNH0PjG3v+h65p9fLhwE1efPh6n3cqkYYWMHpDLkg1VYPiIhGGL9gXDRGMqVosFl92Cw2ahI6bqoxICm93K9HH9E4UvO3w+Xn75Zfx+PwMHDuS8887Dup+V47eFqqrUNzbxjpEb4nK5mDp1KslJyQggEAgwf/587rjjDurq6khKSubYY4/lwp9eSH5eHna7A1mRUWMx/H4/NbtqefWVl5k1axZff/01FRUV/PFPDzJh/BF7CLj29naeevIJFsyfj81u57RTT+XCC39Kdk42DrsDq9WCJMmoqkogGKC2tpYXX3iRDz/8gHnz5hEOh/n708+QkZ6GLCscddRR/OEP96NqKg0NDfz5wQdRVZVrrr2Wvn1LEEI3/WRlZuHxuPEHAjzxt8d588038fv9pKSkMH36dM6/4AKyMjNxOBzIioIaUwkGA2zcvIWXXniBNWtWc+89d/OrX/0aVVWJRqN7mMj0fwXRaBQhBJ9++gmLFy/GZrNx7LHH8pNTTqWgTx8sFguBUIjCAr1aQXNzC3feeSfz5s5FCMHw4cO57vrr6devH16vF6vVihCCSDhMfX0DH3/yMS/8+99UVlby+9/fRyQS5pxzzsHh6D7PyWa1MG5IAX/KTmXe6u18vGgLO2tbCIajqJogpur3rCTF2F4ToaK2hU8XbcZus+Bx2shIcTOsbxbjhvRhUEEGSW4HDtve+4hEopreTMr4z27bs/Ppt4EEeBy2PSwJnTPXvznqHzY91kQkSSIWjfHZZ58lijCef/4FJCcnY1EUtlY1samyMRF2d6hIgCJLDOuXw7FjSpAkifpWP69/uQbVWJ0fDJoQHDO6hCOH9sFutVDf7OPduRto94UOep/7QhglTI4YnE9GshuLopDisbNwfWUizDj+velJLk48ciBWiwwI3p6zgUBotyO6f58MrjrtCFKN5MivZs/m8cceJRqNcv7553PO2ecctD8kTnV1NTNnzqS5uRkhBOeff4HRFbFnmoimaQRDQbaWl/PA/X9gwfz5xGIxxo8/kptuvonUlFRisSjLli/nlptvpqGhgZKSEu5/4AEuvuQS+pX0JS0tDa/Xg8ftxuv1kpaWRkFBAZMmTSIvL5+1a9dQU1PD5k2bOO646bjdnoRZZPnyFTz11FOEw2HOPvscbr3tdvoWF5GUlJRYqdtsNhwOO16Ph6zMTCZMnEhDQyPr16+nsbGR/D59GDx4MFarheTkZAYNGsSgQQPxJiXz2quvoGka1994E9OmTmXQoIEMGjSIPkaztrfefodnn3kGn89H//79+e3vfsfPL7uM4qIiUlNT8Xq9exxXcVEhU6cejcvlZO7cuWzYsIGGhgaCwSBjx45h8uTJWK1WIpEIn3/+OZs3b8Zms7FlyxaSkpK49dbbuOKKKxg+fBj5+XlkZ2eRn5eLx+MmFArz6GOP8sH77wNwzjnncM899zJs6FDS09JwGefDYbfjdrvJyEhn5IiRDBs+jPLybezcuZP169cz/sgJpKen7dO0pSgySW47gwozOWZ0X8YO7kPf3BRSk5wgSWhG5Qlh+KqiqkY4EqPNF6Ku2UdZRQPzVu9kzqrtrCuvoyMYxmlTcNr3bAbV3B5g5rKtNLYFkCUozE7l1KOGHNZcta4IAeXVjSzZUIWqaditCidPHERmipttNc3MiZeCt1g4+sdeCr4zkiTRp0C/uSQjXLN8WznCWE1PMCbl3kSSwGnbvcqIGhEQB4sQAouiMGZgLnarBU3TqG/poLk9cMC22Z4gGX6PXY3tfLxoE+FIDEWWOGJIAVNH9jUcc/GVpl76On4+JaMYXXxZY7NZOPWowfTJSkIIQWtbOy+88G98Ph/Z2dmcfPJPcLm6DyHuCWIvtX82bNjAokWLWbhw4T4fCxYs4KvZX/He++/z0EMPccXll/Pll18SDocZPHgwN918MznZ2ciyRH1DI//8xz9oaGggJSWFe+69j+nHHUdaaspeJ6r4ucjISOfcc8/h6quvxul0smHDBp5//jlUVTejCgELFswnEAiQnp7O9OnHkZ6Wuk9TnKIoJHm9/OLyy0lNTSUYDLJ40UICAd1/oigKVqsFi9WKskcSJlgsClarFYvFgizrZqOXXnyB9vZ2MjMzueN3v+PEE04gKSmpW5OQzWYjJyebSy65lAsv/CmbN2+mzkjm3dv2Qgiqqqpobmnht7/7HaeffhoZGelYO9WKkiQ9am/lqlW89uqrxGIxzjjjTG644UYKCvrsEajSGVmW8Xo9HD31aB78858pLCyktraW3/32Dmpqdu034EKSdM0gM9XDhKEFXHriGO782bE8cdOp/OWaE7nu3Emce8wwjhpRxMCCDDKS3bgdNiyKTCym0u4LsbWykc+WbOEvr8zjukc+4uUvVlHV0JZwzkuShCLLetQdEDWi7L5NBOIbFpfOv1Xib2ay4TdJS01l9OjR2Gw2AoEAX86cmThJAwoySfU6vzEJHSqhiL5aF0LPpP7mbXVgeFx2inJSUBSZmKqxtboZf1APwz1Y4oJgb0iShKpqfLZ4KzvqdD+D027lrKlDdJXYMGdJkh6Z092+SvLSmDy8SL+BhGDZsuXMmjULTdOYPHky444Yt8/JsmfsGbYqhOD//fEBfvGLn+/z8fOfX8YvfvFzrrziCm684XqefeYZampqcDgcjB49mgcf/DPjxo5NVD1YvWol8+fPR1EUzjvvfKYdffQ3fBvd4XA4OPXUUznppJOJRCK89tpr1Nc3GOdN0NjYiKqqOBwOvEm7C/jtC0VRKC4qom9f3c/S3tFBNLqn2XT3XvRnXfcbi8VYsGAhGzduxGazMf3445k0YSL2HrQlliSJ5OQkLvv5zxk8ZEjiGuj6HZ2ZPHkyRx45Abt9b0mlgrZ2fZHh9/tJTU3lsst+Rm5uz3rL2GxWSocM5rrrrsdqtbJ582aWr1h+QAU0JaOpncthJSvVw9hBfbjguBHccsEUHvz1ifz9N6fz9K2ncetFUzh50mBK8tLJSHbhsFuRJL3JVHVDG0+/u5i7/zmT7TV6wyu7VdZ9l0KA0DuZRnrZF7tfBPjDUTRjtpNlGYtx7wlj8Rt/0Ytu1u8sBzTrWCxWpk49Gq/XSzQa5fPPPycQ1LOy05Jc5GclJzI5O9P1dU8QAlQNgmHdBgzgslv1mHTjxzoQhOF36J+fRnqSG9lIFNpa1XRoeSf7udkx/t7qC/Lxws2JUiiDirI4enQxipFIidDNd3GhAuhFIo2rcuqovuSmecGI/Hn7rTdpbWnB6/Vy4U8vwuvxdP7Kg2JvhxGJRIhGowSDwW4foVCIUCiEqqooikJGRgZTpkzh3nvv5W9PPMmYMaMNX4REOBJh9eo1hEIhHA4nJ//kJ3qdsL19eTdkZGRy9LSjsdvthMNhtmzdkvhbTk4OiqLQ1NTEli1bCIfDPVqp2mxW7r7nXh599FFuuP56kpP1iq2d0Ue4+2LpfNmoqsqG9euJRqNkZWVxwYUX4nR270foiizLiaTe/S0GNE1j6tSpuJx6/k1XhBDU1zcyb+5cVFVl2jHHUFRU1HWzfaIoFk46+WTS0tIIh8MsWbyY9oNIFJUS2tFu7dppt+ltc/PSOX3KUO6+7Fj+cfsZ/PmaE/jl6eMZUpyN1aogSXpI76rNNfzl1bnUNXck/CiSJCEQRKLqN0rEH240IWhs9SOMicMi6xoYeyw29BcHMfV979j31doFWZYYPnwYI0aM0KNgtmxh9eqVCCFw2CyMH5yPy/FNm/zeLvT9IUkghEZdi59wVJ94k9023R9g1O0/UDTgrKOH4nbaAIny6ibKdtYf2Ek4SGIxlf/O3cDWqkaEEDjtVs4+ZjiZKW5DTki4nbpqj1HFN57AVJKfxjGj+2Kz6tV6N2wo47PPPkUIwahRoxg7ZvRezUAHihB7XvSSJHH3Pffywgsv8p///If//OflxOOll17iP/95mZdffiXx3quvvsrb77zDf9/7gCeffIpzzzuPosKCPX7/9vZ2tm7dihCC5OQk+vbtu/sLe4gkSfQr6YfH4yEUCrNy5WrCYT35bMrR00hNS6Ojo4N/PPssr732GpVV1YTDEWKxGKqRjKd1yV1QFIXRo0Yybdo0xo0b9w0NQghBZ1EkulSXjsVibDWEWf8BA+jXt6TH2lUci8XCyBEjSTI0qD0XX1IiXNfhcDB06NBu969pGhvWr0uENB977HE4HLuLjPbkAYIkr4cJEyZgtVpZs2YNvo7erXsWvy5kWc+LGjUgn4tmjOKha07k6jPGk+xxEg8+Wbmphg8XbEIISE1yGZGUku5X8Ye+1cla0/QSL/GcJZvNgtthTZjYEr/btzim/yUHNH9KkkRycjLHzzgBSZIIBoN8NWsWUUPNnTKyiJx0b6+dO00IGlr9NBuZ3C6HjeH9cxImnZ4ijAuxODeVKSOLsVosxFSVJRuqqajrVMr5cCJJBEJh3pq9jpARYTaoIJOjR+u90WVZJjfdm0jGa/OHCYSjCAGnThpMUU4KkiQRiYT5z3/+Q0VFBW63m1/84hekp6d3+bKDQ5J2ayOSsXIcUjqEiRMnMGnSZCZPnpR4HHXUUUyaNIlJkyYm3jvyyCMZPWoUxUUFJCcn7TXU2NfRQV1dLRaLheLiYpKSdO3qQJAkSM9IJz09HYGgqnInYaOg5rDSIVx66c9IT09n69at/P73v+fcc87m4osv4p577+OZZ//JRx9/wtKlyyjfto2mpuZERef4Mevf0XWZ0sXU1/m5EIQjUdo7OsDQhvaWVLk/ZFkmLT0t8Xvu7RqXJImUlBRSU3aXSe+KEIKqqkqEENjtdlpbmlmyZInhv1rEwoWLWLBA92UtWqQ/11/v+f7ixUuwWm0IIdi1axfNLXri7OEgfu4tikxWqofzjx3BVaeNw2EsSqMxlQVrd9IRCJOX7kEx/In+UISaxo7DNq690REIsaupI6Hhuh02PC49WkuCHgeh/FA44KO1Wm2MGzcWj8dDLBZjzpw5tLXqE3F+ZgoDC3qWvd4zJNqN6A2MC+2MyYOw2ywHLqgkOHH8QFyGzbXdH2ZJWVXCvHS4kYwVzGeLt7KmvBZNCKxWhVMmDWJQYSY2q8yQIj1JUAioa+4gHFUpyEpmyshi7DYr0WiMtes28P77esLb0UcfzUknn4zN9k3t71DZvVLXy6Aoiows7/nY23udJ+K9EQ6H8fl8yLJMRkYG8kHccEIIbDYbSUlJCE2jsbERzciKt9vtXHLJxdx//wMcddQUnE4nzc36JPryf17iz3/+E7fcfBNXXHE5F198MeecczaXXHwRTz31FJu2lBMMxlsb78k3DqnLJuFIhICx8o+XeTkY4nke3d1DkiThdrsT5sG9IYTAZ1SUCIVC3H///fzyl1dx1VVXcdVVV3LVVVcmXl95pf5cf737ff1vV/D+++/p4dCBAD6f3hJWCIE/GGZdeQ0rNlWyYlMlO3bp3TwPlfj147RbOfHIQfTNTY3/gZ21LdQ1+yjKScVpRCGGQlGWlFX1WvXgnlDT2E5zewBhCL1hJdnYrZ00kfjF8SPJWD/gO1iSoG9xX7KyslBVlTVr1lBbV4emadisCiP75eJy7D3644ARgkg0xrKN+qoKYFBhNhnJLt0vcgAXjsNq4bhxJYl6U8s3VVFR13pQZrGe0nV8kiQRikR59cs1tPvDIAT98tI5dmwJ6cluxgzMM/w9gi1VTditCucfN4zsND0bt62tlTfffJPq6mrS0tK47LKf4/Uc3pIPohdLVmCstvdn898fkqTnCMiGRipJu+2bkiTh9XiYPv04Hn3sUZ5++hn+cP/9XP3razjp5JMZO2YMaWlpRCIRGurr2b59O4sXL+bxxx/nqisu56GHHqK6piZRqqUr3Z1rm9WG1aav2rVuSqj0hEg4kqgv1t0+bDYbsvxNLa8z8c9arVYmTZ7M8TNmMH368UyfPl1/HH984vXxM2Zw/PEz9OfGv/rjeE47/QzOPe98zjzzLDIyjEUOUFnfxh9fmsdtT33O7X//gmffX5Zor9AbSJKEzWphQIGulUlGO972QITC7BT69dErQ8dUjTmrduAL6L7Zw00splJW0YQ/GEECHDYLE0r76Fq8MT8mdFbTsb53JEkiMzOTGTNOAKClpYWvvvqKaDSGLEkMLckiLyOpVySwJEmomsasFTuob/EhBHjdds46eth+mzzFEUJgUWQmDi+kb24asiQRDEf5bMkW2v09zw05mAt0b/uWgMXrq1iw1shqtVqYOrKYEycMIDtNL5mhqhoL1lUwZmAex47tj8tuIxqNsWz5Ct55+01UVWX68cdz9LSjuw3XPBg6H+MeE3QvYrVacbvdaJpGS0tLIlnvQIlEIgmNJjk5eY9JVTK0gZzsbCZOnMDZZ53F9ddey+/vu4+HH36Y5557jif//jT33ncfv7z6ak4//XQyMzPZvn0bL730En/5y19oaNB9V3Hiz7oKLYzvs9v0nBKAhoaGHjnzu6JpGi2tLTQ3N6N1KncD+oXT2Qeyr59FMszOQgisViuX/+Jy7rzzTu66+y7uvuce7r77Hu666y7uvvtu7r7nHv1vd93F3Xffw5133cndd+vb3HPP3dx9153cdded3PHbO+jXT8/XArBZZDoCIZraAzS2+alv9fV62SNZ1nOn4pUkNCHoCIbJz/Ry5JA+KIqMJgQ1jW3MWtGlVe1hork9wPtflxGJ6YuM7DQvI/vnGudFtyIkrmlJb5f9Q+eAhQiA0+ngnPPOw+VyoaoqM2d+QYdPNzn1yUymtFhvat8baJpg+65mPl28GVXTsFoUTp08iEnDixJaxf6QZJlTJw/BavTz2Fnbwvrt9QdUeLG3JlNJkgiEIny8cLNetE2CguwULjxuBA67BU0Iqhva2FbTwhWnjCUrVdc06hsaeObpv1NVVUV6ejoXX3wxyT0MYe05u/cVn8R6W5C4PV7S0zOIxWLs2LEjcd0cCEJAa1srTU1NSJJEXn4+NqPshWpUAI6PX1EUbDYbbreLzMxMioqKKC0t5dhpR3PB+edz4w03ctfd93D/A3+kdOhQAoEAn3/2GctXLN9TG+ksULo41TGc4sVGBNT2HdtpaGw6YEGiqiobNpTRbjTuOliNTZIkCgr0gIZYLEYsFiMlOZn0tDTSUlNJS0vVn6elkpba6Xnn99NSSU1Nxe1243a5cbtciWoIEuB22nHad/sBWn0hXbvuRSQkLJ0qeOvvgdthZ9zgfFK8ToSAWEzj3bkbaPOFDqtZS1VVFm+oZHtNM5omsFpkxg3OJ9lI/u2sDQuhhyB3vU5+iBzUVaooCv1LSsjP74MQgnVr17KrphpN03DZrQwpysRm1SNJDhVJkohEYnwwfxPN7XoV1xSPi7OmDaUwW3c27+t7JEnC47QypDgLycic/WrlNto6DrEa8CEgS7B2Wx3rt9cRVTXsVgspXheKLBOL6ep5aVEmpX2zsVoUotEo8+d/zaJFi5AkicmTJzNxwsRuo3MOFqlTSOL+zuvB4vV4EhNcW1sb1dXVXTfZL0JoVFZU0tHRgdVqpXToMGw2Gz6fnyWLlzB/wUI2b9nSbV6DJOmmMKvVitPpICM9jcmTJnLWWWfjdrvx+/2UlZXtkSsiGYmj8eddVQGLxcLAQYOxWCzU1dby9bx5+yx73xVN0ysOL12yJCG89ia84+/t66eRZZmSfv1xu91Eo1E2btz4jbyX/SGEoK29g3fffZc33nidhQsXEjIi4PR7yk52mjtxTprbAtS3+np1EhdC0OEPJ6KgZEnC5dBb8BbnpjFpWCFxOVu2o4GZy7b2ujYUR9MEtc0dfLhwM1FDC0lLcnHcuH7Y4s3mjGMXiWuk8x5+uByUEJEkidTUVI4+eioAFRUVLF26lEgkgqLIjOyfQ16GbprpLTZVNPDqzDUEw/rqfWT/XK4/ZwLpybq6K/bSC0EIgSxLTBvTj8xkF0IIWjuCfLG0nIgRNvy/QJIk2nwhXvliNc1tu8ubCyHoCASZtbycK08dh90QxA0NDTz3r3/R2NhIamoqV151Fenpem/73ia+SyH0tmxdQ2EPFYfDzoiRI3A6nQSDQebMmUfMuCl7ghCC1tZW5s6bSyAQwOl0MnjgABRZprq6mttuu5UrLv8FTzzxJIGg0Z+lB8iyzIjhw8jKykIIQUtza2KyoIupb2/nQ1EUJk6cQJ8+fWhpaeHVV1+hZldtt76Vzgijyu6XX37J8uXLE+919/vq+/zmGOJIkkRBnz5MmToVWZZ55523aTxAzSgWU1mwYAF33nknd955J4uXLCXWSRBZLHJiYQbQ4Q+zaF1FIvKwN1A1jerG3WHFNquF9CQniiyR7HZw/rHDyEr1IIxz8vxHy9lU0ZgwNfUWmiZo9QX59ycrWb6xGk3TUxpOmTSIocXZnX4naU+fyD5/pR8OByVEMKJILr7kEpxOJ5qm8e677yZME/mZyUwc2kePVNjLDXcwWGSJ179cy/JNVURiKlZFZtLwYu6/6ngGF2VhsehlJboKE5fdyhlHDU6YBtZvr6Ohxb/fFVNvjbs7ZEliyYZKPl2yGb9RH0vTBHXNHRwztoTBxVl6Vn0sxssvv8zSpUux2+2cffbZTDnqqK67A2PMItH8KEY0GiUW+2afi32zOzHMMPB23eCQUBSFI8YdwbDhw4lGo/zrn/9gy9atPRIkQui+kM8//4L3/vtfLBYLxxxzDEXFxQCkpaVit9sJBALs3LGDmppdB3Tsfr8/UaU3OSX5m22fO03q0U49PTCOa0D//oloufXr1/P4449RWVVNNBrdqzAWRqMsn9/PnLlzefzxx4jFovuMzqIbDaUzkiSRlOTlZ5f+DK/Xy5YtW3jjzTdoa+9ZKKymabR3dPCfl14iFArh9XqZNHEiLpc7sY1FlhkzMI9kj+6bjKkqM5dvY8XmGmI9EJz7Q9MEjW0BtlTubqfcNy+VvIxkJCNpsW9eOhefMBq7Vb/361t83Pvcl6zeUmM0xdpjlweFpglafEH+/ckK3ptXhmaY1I8d159zjhmOc48gIt2ElYjOMtvj7huLRWHkyJFMmDABWZZZunQpW7ZsQVU13E4bk4YV4eyl8szxmyYQCnPvc1+xemst0Zj+Yx4xuICHr/8Jl504ivQUvUWmJowJ1egCWJSdakyugv/OK+tRJeD93aiHiiTpttyXPl3Jl8u3ElM1FEVmSHEOl8wYnSgoV7ZpC6+99hrt7e2MHDmSa6+9Frd7980shCAWUwkGQ7S2tVFbW8fadev5+JNPee211/nk08+orKz8RoOj7umi0fXyeZAkifz8PC677DI8Hg+1tbv47R3/x5atWxP5RntDCAiGgsycNYvHH3+MpqYmCouKuP6GGxL5KBkZGYwaPRq7w8GmTRv54IP36fD59ztxCiHw+/188cUX1NXV4XQ6GTJ4cKJ6NMa4nU5HYjGycWMZkS7RSHa7nSuuuJIJEybqGsDbb3PLzTfxzjvvUlFZSWtrG36/n0AwhN8foKWlhdWr1/DQX/7C7357B62trVx66c8oKipC6tTTPY4u0/d9LHEkSeKII8Zx5llnIcsy/3j2Wf75j2dpbm7Z5z5UTaO2ro5nn3maOXNmoygKV131S0aMGLGHUJVlieEl2Ywb0idRaaG6vo0n31nEys013xj7gSCApjYfz328nPoW/fdTZJkjSwtIdu8On3babZw6eTDnHjMsUZV7565m7nv+K/47bz0d/p5ronsjFlPZXtPEY2/O59UvVhOLqciyxKiBufzq9CPINipI7Cahxide7uNU/2DocRXfrkiGjbipuZl58+bh8/koLS2ltHQITqcTh93Ctppmymua9QZMvTAZSZJEKBxl6cZqSoszyU1PQpYl3A4rowbmMaFUj9iIxlSimkCSZI4o7cMJR+pNYZpa/Tz8+gIiXWzdhwuxD5OEjoQ/HKWmsYMjBuWR6tV7pstGvkUgEOCB+//AV1/pNbKmTJlCQWEhNTW7qKysZNu2bWzatJmFixbxyaef8Pprr/HXvz7EY489ymuvvcr777/H22+9xdy5cykuLiY/P3+fSXBCQFXVnlV8zz3nXAoK+hy0k3dvyLJMbl4e4XCYdevWsXPnTpYsWUxScgpJ3iQjz0JGCD0ix+8PUllZwTvvvMP9f/gD9fX1ZGZlcf3113PU5Ml7jK2ouJj58+ZRV1en+wJiUTIzMvF4PXtsp0/IemfAqsoqXn3tNf79738TCoUYd8QR/OLnvyA5ec/ABYvFyptvvEFHRwfl5dsoKChAUWSCoRDtbe24XE6SvF5GjBxJ7S79N9q5cyczZ37B+++/z4YNG1i3bh2rVq7iq69m8corr/Dkk0+ydNkyI3H0cqYdcwxzZs+mqamJ0aNH71HFd9asL9m4cSNpaWmcffbZePYR3h2/jsaOGcPKlSvZvn07q1atorm5mdzcPDxe7x4+NSEEgWCIjWUbefyxx3j55ZfRNI3jjz+eO+74P7xe7x7fJRk5Eh6njWUbqwkEdW26pT3ImvI6inJTyE7Vz3k3Q9wrQgjqWny88sUa/jt3Q6LLYr8+6fz6zCNJT3YnxiFJYLMqjB6YT1VDO9t3NSMEdATDrNpSSzAcpU9WMh6H7YB6BQkBvkCIeWt28NS7i5m/ZmfC5FySn84frzqevAzdH7vn5wTlNc3MXbWTmKpis1iYNrovfXPTdguYXuRAzuvhpMedDfeGpmmUb9vOCTOOZ+fOnQwdOpR/v/ACo0aO0juelVVy4+Mf7dGA6WDpPMzBxdncf+VxiRLLQuy230eiKpFojJiqEQpHcNispCW70YTg6zU7+eOLswlHY/iDEdR4X+RDHFtX9i88dIShLdksCtOP6M+9v5ie6I0ghODtt9/hV7+6OlF632q1Jkwd8eOOm0m0TtFIAMFgMOFYtlgsDBgwgGef/QeTJumr5L0hBCxevJjbb7+NrVu3AvDqa68zaeKEXimr0hlN0wgGg7z+xhs89Je/4Pf7sVptOJ0OSkpKEjWwWltbqaquprmpKVHGo2/fvvz2t79j8uRJ3+hzEY1GWb5iJffcczdbjO6MdrudouJiBg8aRG5uLna7nY6ODqqqqqivr2fL1q0EAwFUVWXEiBH86cE/M3BA/28ccywW45HHHuPvTz5JLBbDbpSVVywWjpo8mXvvvY/MzAw0TSMQCLBw0SL+/tRTbNu2DZ/PRywWM869bo5RFAWPx8vEiRO48sor6d9/AOXl5dx0041s3bqVn//859x+++04nU46fD5+99vf8s477zBgwABeeeUVcnL2X1BRVVWaW1q47957mTVrFoFAAJfLRXZODkNLS8nP74PdbmPXrl2sXbuWHTt2EAqFsFqtnHrqadx9990kJXm7vWYi0RjLN1Zy979m0dweRNN0jdpptzK8fy7nTB3MkL45JLkc2K0KilHWpzMxVSUUUenwh5i/dievz1pHVX0rYSMROCPFzQNXHc/I/nl77R0ijMz1J99ZxAdflxEwmtYpioLbYeWYsSWcMnEQxTlpuJ02rBa9LldnVFUjFFVp6wiyemsN//liDRW1rYQisT20Kq/Lzv9dPJVpY/p9o+eJpml8sWwrv39uFsFwFIsiM21MP0ry08AQI/FZrOtzevo3442RJVmMHVyQiDj9X3JIQgQjXv/6G27g388/jyRJPPDAH/n1r3+FzW6noaWDGx//mA3b6/Yoo32gxIeoAQP6ZPDnX51AQXYKFkUhEonQ0tqKx+PBbZRCj0+whmxJvA6EoviCYSJRldrmDt78ah0L1u7UE4e6XlUHQU+FB8a2siwxuCiLc6cN5YjSgoRmFf/72++8y7PPPMOGDesJh8MJJ60sy1gsFpwuFznZOQwYOIARw4czYOAgMjMzURSZip0VPPHE31i0aBGRSASn08kNN9zAbbf/H6kp3ywuGKesbCNPPfUk1dXVWK02fvu73zF82NBuJ5FDQQhBOBxm46bNvPH6a8ydO5fm5mZisd03bnwysNvtFBYWcu75FzBt6lSys7Ow2fRCfF2JRCJU19Qwc+ZMPvrwQyoqKohEIqiqqps7DcErG4mPVquV0tJSzjjzTCZOmEBOTs43BAjGeFtaWvjwo49499132VWzi1A4hCLLzJgxg9/ceivpafqEIYTeQKqjw0dDYwMNDU00NTfT0d6G3W7Dm5RCeloqmRnpZGRk6M2qZJk1a9fym1tuoby8nKuuuoqbb74Zh8NBOBzmX//6F18bHQ//747fkp7WfemTzmiaRltbGxvKynj1lVdZsmQxPp8PTdP2OM8Wi5Xk5CSmTp3KKaecyvDhw/B6uxcgcUKRKGvL63ji7YVsrmhIVIFQFBmHzUKKx0mKx0F6sguvy47DbsFptxKOxgiEorS2B2lsC9DuD9HqCxGOxNCEhkVRKMpN5ebzJzNmUD42w++5N4QQ+IIRVmys4Ml3l1JZ15oozGi1KLidetHHVK+DjGQ36ckuHDYLwUiMDn+Ydn+I+lY/rR1B2v0hQhEVVdOQjV4pGKVXJEmv83X2tKH8dPoIUryd8lg0wedLt/CH53UhIkl650dFkY2QrT2GvO/39vU34JITR3PFKUfsVah+2xyyENE0jc+/mMnPLr2ExsZGZsyYwRNPPElJSV8iUZUP5m/gvue/wrqXFUhPiQuEwpxk/nrtyRTnpmG1KIRCIT799FMeeughhpQO5ZRTfsKR44/UO7bZrFiMHg6dL7yEQNIE7YEQX60o529vLaalI/DtNrZBMGFoITefP5nCnNRv3CD6BBuhvaOD2tpampuaCIVCSJK+svZ4PLr5JykJl9OBzWbbo+dFLKaydt06Ljj/PMrLy5FlmVNOOZW/PPQQ/fvpLXj3hl6xV6/IKxklNuJBC4cLYfgkmlta2L5tO01NTfgDAVQ1hsvpIinJS1ZWFgWFhSR5k7DZ9N4Z+0ITgkgkQnt7Bw0N9TQ1NtLS2kosGiMcDqNYdMGUmpJCVlYW2Tk5eD0eLJbuy4nECYfD+PwBfD4/fl8HsiyTkZlJSnKyESkIkqybeyWjjI0QAk1oCE0Yf5OQOzVbItHTfSk333Qj9fX13H777fz85z/HbrejaRrhcIRIJIwsy7jduv/vQIjF9PIldfX17NyxnZaWVjp8HWiawOPxkJmRQXHfYrKysnA59clxf+ciTjSmUtfczqzl25i5fBtbq5p0YaBp+kpO6H4UWYqfG0OTFiLhw8RYWFktClmpHqaP68cpk4dQmJ2yR2OqfRGNqdQ1dTB/3U4+W7yFjRWNRKIx3SxmmOBlWe9JEt9dTNUSplMJEEIXHA6bwoCCDE46cgC7mjt4Z/YGOgJ6mLPTYWVCaQHXnHUkRblpKLKMpgm+WLqFB16YTfAAs/fjciP+nL287qw+XXrSaK46dfwPQ4gIIWhsbOK0005l2bJlpKWl8deHH+GC889DlmWq6lu55pEPqa4/+EKHAkGK18mdl05jysi+2KwWIpEICxYu5OabbmL16tVYLBby8vIoLS1l2PDh9O8/gMFDhjBh/PiEHyCmaviDYWxWvaWmLEm0+0O8/Pkq/v3JCqJRfeI83GhCkJ3m5Y9XHc+I/rlYFJloTKPVF6SmsYPMFBdZqR697P0eUTp6CKH+uvNz44IT+qQVP4RwJMoZp5/Gl19+CcBFF13E7+9/gIL8PGN/3z30w4lXk9Vv+M632IH+PvHzE5/M9X13vh/1fR/ofuPE9yWEoK2tnYWLF9PR4SM3N4cjjxh3QHXNIpEI733wAXfcfjuSJPHwI49y4gkzer0qQfxY45O40PTJW792Dj7BVAhBKBJlV2M7a8trWbKxhuqGNtr8YXyG+Thm9F/XhEA2/DYWRcbpsJLsspOe7GLMwDyOGFJAcU4ybufe+qV0T3zs4UiU6sZ2Vm2pZfXWXezY1UJzR5BgKEI4qmsZwpBv+jj0qgNupw2vy05JXhpHDM5nSHEm+RnJhCJR/vt1Ga/PXENDqx9NE9isCmMG5XPDuZMYWJABwObKRj5euCmRPa/7g7sMshNxLUWgnw8tfu4NU3f899jt09H3N25wH44Y3CdR9ft/ySELEYxJ8cknnuDOO+8kEAhwxhln8vennyY9PY1IJMZzHy3l2feW7fNk7osUr5Nrz57IKZMGY7XoYa9r1q7luuuuY8nixXvE4suybmvOzs7hrrvv4rKf/QyrzUYsprJsUzUvfrqCAfnpnHfscHLSvciSTF1zO7958lPWb6/rdW1kbzekqmmcc8wwbrlgCk67lWA4xvy123nhk5XUNHaQm+7lkhNHMbJ/Hk6bBatV2WPlJIxIM03TawdFYirhSBRV1SjM0Tv5CSHwBwKcesopfP3119jtdu697z6uvfZaHD1olGRyYAghqKqu4corLmfz5s2MHTuWJ558kuysnlVvEIY2ds899/Dqq6+Sm5vLex98SF5O9gFrHP9r4tdnNKbiC4Zp7gjREQgTisSIxlQCId2kbLPqZi2n3UaK24rX7SDJ5cBptyIr8iHfi53H0eYP0dweoM0fpiMQwh+MEI1pWBQJp92G1aqQ4nHiddpI9thJcjuwGR0r4xN5JKayaN1O/vTyPBpbfaiqwO2wcdrUUm4+bzKKomsjqqYlFj1xPcKQC4dMfD+KrAvg7wK9IkQAtm/fwVlnncnatWvJzc3l0cce58wzTgckKutauPbRD6lpaEM7gP7owihwdttPp3DK5CFYjB+pfFs5115zDbNnz/5GJq4kSTidTm66+RZuvvkm0lJTicZU1pTXcttTn9LSHkADpowo4neXHkN2modwJMYrM1fz+FsLkfYy6fcmQghki8yffjmDaaP7ocgSS8squfMfX9LYqufZCMOOm53mIT8zibz0JNKT3dhtin6RqhqtvhCtHQFafPoNWto3iwuPG0H/PnqRvFgsxuw5c/nZpZdQW1vLwIEDefqZZ5g6ZcphPb4fM4FAkNtuu4333vsvqampPP3sPxg/buxe/StdiUajLFy0iBtvuIG6ujpO/slPePSRR/YI5/6+I+L9SozXibV1L0Vv9oTEGIzVv2Ss7OMr/P2NIxZT2VzVxCOvz2f9tlomDCvit5ccTUbKD+d3OlAOOsS3K16vh63l5ZSVldHa2oqsyEw/fgYOuw2P046qCRZtqIIeTtJCCOw2K2dPG8rFJ4xORCHU1Tfwy6uuZM6cOd8oSyHLMi6Xi7PPPodbb72V7Gw9+7ihxc/d/5pJRW2LbqcGqhs7GFKUQUleOrIsEwxHmbVim15PqwfjO1gko2TEuccMJzvNi9AEnyzezJxV23ffVHGfjT9MVUM7G3c2snxzDUvKKlm6sZplG6tZv6Neb+0binLSxIFcesJo+mSnGJ/V2LGzglt/8xvKysqQJInTTz+DC84//wc1KX3XkGUZVdOYPfsr2tvbaW9rZ8TIUd32TIlPaJFIlDVr1vLggw+yZcsW0tPT+c1vfkO/fv2+M6vN3iAuLGTjEX99OO+3riTGYKzkO5vxejIOWZZJT3IxrCSL9CQnF0wfQW5Gb9ew+37Ra0JElmUKi4pZunQpO3fupKmpicysLEaPGo0sS2Sleli/o86oxrtvQSKEwKIoTBlVzE3nT8ZtNKZpbW3jjjv+j48++ijRyU4ynL/5ffowZcoUbrnlN1z9q6vJzdEra7Z2BHn87YUsWFuxx4UbUzUGFmYyakAuiiwTCEX5fMkWwtFYpzXS4SHZ4+SMKUNI87qIxFRmLd/Gum11e6yEEv92Ho2xhLNZZPIzkzhxwkCuP3siJ4wfQLLbgSxJxFSVdevLuPbaa1gwfz7RaJRBgwbx29/+jkGDBv6gJqXvGpIkkZ2dRU1NDVu3bmXbtnI2rF9HIKgXBoxEIgSDIQKBAO0d7TQ2NLJm7VrefPMNnn7maTasX09OTg6X/fwXnHnmWYmikibfLSRJItXrZET/XFI8zh5pMD9kes2chaGSP/PsP7jn7rvp6Ghn2LBhvPHmm/QrKUHVNLbVNHPjYx+xq7G925MuDCfS2EH5/O5n0yjI0pN6QqEw9/3+Pp584gkUo4/38OHDGTFiJKWlpQwePJji4iKcTqdhPpBoaPXx+qw1vPDxykQeRfw7LBaF3116DKdOHowkSWzc2cCvH36Pdl/wsAuRnHQvT9x0KsV5aUSjMZ7/eDmvfKHXBVM1w6EGgJ6pa7cqesG7dA8luamMGpDDiH555KR7sVoUFMPp1t7hY9asWdx9911sLCsjFouRnJzMI48+yrnnnovb5er2vJv0DkIIqqtreOfdd3j9tddoaGggGovhcbtJT083ot0shMNhOjp8NDc3EQ6HcblclJaW8stfXs2RRx6J223+VibfD3pViAgh2LFjJ9dffz2ffPIxdruda665hgce+CMWi0JM1fh08Sb++tp82jr0kgSdbxRhOOmPLO3DtWdNoLRvNoos4/P5eOGFF/nrXx9ixowTmHHCCQwdOpTMjHQj4cuOYnTZw0gcKq9p5oVPVjBz2VZisd3JQsIIKTxjainXnjWBjBQ3QkDZzgZ+9dB/8QVCh12IFOak8OTNp+l9V4TebnPbrhZqGtoJhKNEoiqSBE67FYfNSnqSg4wUN8luBzarBbtV0cNujciiaDTGuvXreemlF3nl5ZdpampCVVUUReHaa6/ld7+7k/T0NFML+ZZQVZVQOMzOnXph0nXr1lFXu4umJl1ghEIhHA4HDoeT3NwcSvoNYPToUYwaNYq01BSs1v2HMJuYfFfoVSGCEab4n/+8zG2330ZLczPFxcX845//ZOqUKSiKgi8Y5p8fLOPNWesIhruUypYk+uamcutPpzB2UD5Wi0IwGOLDDz/kgQfu5xe/uJxzzzuXjPT0PeL5NaE7m33BCA0tPlaV1/Lxgk2U7WxI1IySOmW2lxZncddlx9C/T0bCWV+2s55f/fU9fP7DK0QEMKwkm8dv+AkpXnci2kIXbrudfiQ6pekOv3ikSvw4VFUjEglTWVnFrFlf8tprr7Fq1So6jD7fNpuN446bzl8f/iv9+/XrkXPXpHfRNI1INIqvw0dbWxt+v49IJIKmaVgsFr3Fb3IyqSkpOByOHuWomJh81+h1ISKEoKqqmt/+7re8/tprCCGYNm0af3/6GYqLCvVSFr4gb321jve/3kiDESpntcgMLMzgV2ccyagBenmDcDjM0mXLuP666xl3xDgeefgR3G4XGFmyHf4IzR0BqhraqaxtZWNlIxt3NrCrsZ2oqumzs4EkSTjsVsYP6cOvzzyS4ry0RB8AVROs317HtQ+/f9g1EU0Ijh3bjweuPB6nw2inamRQ6wJjz+/WhYoeNhgOhfH5fbS0tLBl8xaWLV/G1/PmsXLlSvx+fyIjOykpiTPOPIubb76JIYP1HhcmJiYmh4NeFyIYmbfLl6/gV7+6mlWrVqEoChdeeCF/+tODZGVloigK4ajKtupGPlu6lZb2IH3zUjl+3ABy0r0oskQ0GmXt2rVc/atfsX3bNv768MP89MILsVqtqKrGkg0VfLBgE8s2VtPcHiAcVXXHuZ5xl3BCx5OIctO9/GTSIM49Zjhupz3hR8DI21i9tZbrH/2AQDB82ISIQK/ce8lJo7npvMlYLQpNLS2sXL6CQMBPckoaXo8LSZYTvc07/AE62lppbW1l+44dbN60mZUrV1BdXYPf70NVVV3DMmpE5efnc8kll3D9DTeSmqKXzTYxMTE5XBwWIYJRAHDO3LlceMEFtLa24nQ6OePMM3n44UdIT0vbo6y0nr2qJ9MJo+ZQRUUl119/HZ9//jkOh4Pf3nkXt9x0o1ECQlDX0sF/523gs8VbqGnsQEscRjzbU2CRZdKSnMw4cgDnH6MnF0qSDOiRMpIkYbFYEMDqrbVc98gHBEOHLkTiWkVXhBG6e+N5k7n4hFFYLQozZ37JbbfdypYtW7DZ7F36okAsFiUSiRCJRPbaG0RRFKxWa8Ix++hjjzF82HAzssfExORb4bAJESEE7e0d/PnPf+bPf36QWCyG1WrlhBNO4E8PPpiw08dNOHGzTSQSZc7cuTz0l78wd66eCyLLMv379+f9Dz6gpG/fhHlGCEEwHKWlI0irL4wvGCYa01BkCafdSrLHQUayC4/TricUSRLCqEH09jvvYLEonH3WWciKsluIBMO6JnMYEIZT/8Ffn8D0cQNQZIl/v/ACv73jDurq6hKCp+tPEn8/fq7iWfk2m42+ffty5llnc9KJJzJo8CC8+ygPbmJiYtLbHDYhgjEZNjU18Zvf/IaXX345UZq8sLCQSy69lJNOOonBg4fg9Xpoa+tg08YyXn75Zd55520aGhqQOjXmkSSJsWPH8tjjjzNu7Nj91hPqPCHHhZQmBOXl23j00Ud4+623uPXWW7n++utRLBZWbKrmxsc/IhiMHFYhYrEoPP2b0xk1MA+E4C8PPcQD99+PqqqMGTMGSZKora0lHA4TDoexWCy43W6Sk5PJzMoiLy+fkpJ+DC0dwoiRI8nLy8VqtSJ3qrFlChETE5Nvi8MqRDAiVBqbmrjl5pt58803CYf1KqQWiwWLxUJSUhJJSUm0tbXh8+nRK7IsM2HiRPoWF/Pyyy8nMtP1/gsezj77bM448yxGjxpFTk72Hs114iQEhyZob29n/fr1vPbaa7z66iu0t7ejKAoPPPAA1113HYrFwvKN1dzw+IeEQtHDNgkLIXA77bx8z3kUZKcQjUT4vzvu4Om//5309HReePFFjjxygqGVaaiqtjurlrgGoocyS516hxyu8ZqYmJjsj8MuRDAESVVVFU8//TTPPPMMra2te2gY8QlfCL0k9fnnX8D1N9yA2+Xknnvu4YMPPqC9vT2xvdVqJTU1lYKCAvr3H8DQoaWU9BtAXn4+drsDATQ11FFTU8OG9etYsWIFlZWV1NbWEjF6Y9tsNv74xz9y3XXXoygKSzdWcdPfPiYcOnyaCEBORhL//u3ZZKa4CYVC3Hjjjfz73/+msLCQ9z/8mCGDBkDCpKWH95qYmJh8V/lWhAiGIGlra2fRokW89NKLfPXVV3R0dCTCUp1OJ6NGjeJnl/2cY489lqxMvZBgU3Mzy5ctZ+GihXz88cdsKy/fo2uf1WrFarNhs1r3iLNXNY1YVHdKR6O6dlFSUoLNZmPdunVYLBbuu+8+brrpJhSLhZWba7j+sQ8J9dCcFTeTHQiSBAMKMnn6N6eR7HHi9/u5+JJL+Pijjxg2bBgfffQxubk5XT9mYmJi8p3lWxMicaLRKA0NjWzfsZ3y8nLaWltxuVwUFhbRf0B/crKzsTv0OlAYk7Wqqvj9fmpra1mzdh07d+ygurqa8vJyKip20tjYiN/vJxqN7uEXiJvLBg8ezFFHTeGkk07iuef+xXPPPYcQgnvvvZdbbvkNFquVteW7uPaRwxviK8sSk0cU88CVx+N22mhpaeX0009j0aJFTJ48mXfeeZe0tNSuHzMxMTH5zvKtCxE6JdB1TrKL2/n3tbqPfyaeeNfW3kZzUxOtrW3sqq2lqqoSX6eM7fw+fSgp6UdeXh65OTnYbFZuvfVWnnrqKVRV5e677+bWW2/DarOyYXs91xzmZENZkTj76GHcfP5kbFYr5dt3cNopJ7N582Z+8pNT+M9/XsLr3XvFVxMTE5PvIv+TYkpxoWGxWLAaZqi4ENkXcWeyzWrF6/XQJz+f4cOHc9RRkzn7rDO55ppruP3227nt9tu56eabufDCC5k0cQIlfYtxOh2J78UQSNFoFE0YHchko87IYUIY/8tK9WC1KEgSNNTX4fcHkCSJlNQUM7PcxMTke8f/RIj0Jp0FksNux+Fw4HQ4cNjtWA3h1GnrRHE7IYSevKftNn8daie1fWLkiKQnORPCsnbXLr3ft6KQlJRsChETE5PvHd97IXKgOJ3OxPNYLJYouy5LoMjyYTNlYWg/aUl67S8hhJEPEsJisZCZmbHXUGUTExOT7zI/KiEiSbqvJK6JqKqa0EQU2TBpHSYEel/kVI/e31zTBHUNepVhh8NBZoYejWZiYmLyfeJHJUSEALfHm5isVVUjpqmAhEVRsChSov/zgbK/+AQJcDtspBqaSCQSpmLnTqLRKC6Xi/z8PqYQMTEx+d7xoxIiAF6vN+EnCUfCqNEISCArChbl4E9HTwRAkseBx6lrIqFQiKbGBoTQcLvd5OXldd3cxMTE5DvPwc+a30MkCdxuN4qiIIQgFAwSicaQAKdNwW61xOOoeh1JksjPTMai6FFooVCI2tpahBC4XC7SMzK6fsTExMTkO8+PSogAuFzu3ZpIWM9mB7AqMg6rpXMfq15FliUKs5OwWGSEELR3+GhoaNCd7WlpeD2erh8xMTEx+c7zoxIikiTh9rgSzvVAwE84FEKSdJ+I22k7LHqIEAKLItMvLy2hidTW1dHW1gZATk4ONput68dMTExMvvP8qIQIgNfjSeRj+Hw+/AE/ABaLQorXiaYeDjGiVyDOTU9KaEHVlZWJisZFxcVmEykTE5PvJT86IeKwO7Dbded2W1sbHe16mRRJkkj2OBCHQRcRgEWWSHbbkAzNpLKqCk3TsNls5ObqPUFMTExMvm/86ISIx+vB5XIhSRIdHR34/X6EEMgSZCTr4beHA7fTRqpXT3RUNY2Kip1omkZKSgp5ubldMutNTExMvh/86GYut8uF2+1GkiRaWlpoaNSd27IkUZCp55DsL+fjYMhJ95Lq1YVUe3s728rLUVWV7OxsMjMzexQibGJiYvJd40cnRJwuN3a7HUmS8Pl81FRXo2kakiyRl5mMzdK7pUfiAmpQYQZ2mwUhBPX19Wzbtg1N08jLyyMrK7vrx0xMTEy+F/zohIjdbiMzMxNFUYjFYtTX1xOLxZAkiTSvk/Rk3dTVWwjAabcyZmAeFkVB0zS2bd9BY2MjkiQxYMAAMjMzu37MxMTE5HvBj06IKLJMSUkJVqsVVVXZvn07oVAYCUh2OxhUmE5vldASQiABRbmpDOyTgSRBLKby2aef0NHRgc1mY/CQIbjdh88XY2JiYnI4+dEJEUmSKC0dis1mQ9M0tmzZws6KCgCcDhuThxehif3XwuopNpuFE8f3JzvNgxCC6upqPv/sM1RVxePxMGRIqVm918TE5HvLj06IAAwuHYbD4Uj4J5YvX4GmaVgUmfFD+pCR4j6kir5CCAQCWZYYXJTJjPEDsNksRKNRPvv8MyoqKhBCMHjwYIqLCs3ILBMTk+8tP8rZq7BPHpmZmciyTGtrKx9/9CHt7R1IkkRBdio/nTESi0Wvr3WgxD8jSzJpSS5uOGcSGSkeEILW1nZee/VVgsEgVquVE046iZTU1F71wZiYmJh8m/wohUhSkpfi4mJkWSYWi7F8+TI2b9mCEAKrReHkCYMY2T8PWdbrXPUEYfSNj5dQ6V+Qzp9/fSIj+ueiyBKBQIDnn3+OZcuWIYSguLiYU085FZfT9IeYmJh8f/lRChGX283oMWNwuVwJk9Ybr79GR4cPgMwUN3dcMpWJw4uwWBQ0Q0B099AMQWOzWuiXn86150zgqZtOSQiQcDjMZ599xt/+9nhCC/npTy9iQP9+KIdQft7ExMTkf40kerrU/oGxYuUqLr7op2zcuBFJksjLy+fJp57i5JNOQlFkNCFo84V4/K0FfLFkK/5QpFOFXwFISIDFquB12ijMTuG0owZxzOh+eFx2rEa+STQaZd7X8/n1r65m69atSJLE+PFH8tJLL1JcXGw61U1MTL7X/GiFSCAQ4J577uHpp5/G5/NhsVgoKenHI48+wnHHHqtHbwlBMBylrrmDFZuqKKtoprEtgNUik+p1UpKbwpDCTLLTvLiddhw2C1aLgiTp5q3mlhae+9dzPPLIIzQ1NepmrL59eeWVVxk9amSiEKSJiYnJ95UfrRARQrBt23buve9e3nj9dSKRCIqi0H/AAK699jouvOACkpOTEg2sYqpGVNUSPdllWcKiyCiybERy6eVSotEoLS0tzJs3j78//XeWLV2K3+9HURT69u3L359+hilTjsKiKKZD3cTE5HvPj1aIAMRiMdauW8eNN9zAggULEpnrKSkpnHzyyVxw4YVMnDARr9eD1Wr9xqSvCxeVSDiCz+9ny5bNzPpyFp9/8Tnr1q7F5/OhaRoOh4OJEyfywB//H2PHjDYr9pqYmPxg+FELEYBQOMzSJUu46aabWbduLeFwGIz+H4WFhUyaNJmTf3IygwYOwuVyYbNZ0TRBLBbF5w9QVVXFiuXLWbFiOVu2bqWyooKQ0ejKbreTk5PDSSedxNW/+jVDS4eYPhATE5MfFD96IQIQiUTYtHkzf37wQd5//32CwSCxWAwAWZax2Wykpqbi8XhwOp2oqkowGCQQCNDW1kYkEkHTNDCEj81mw+v1ctZZZ3HRxZcwYvhwXC6nmVRoYmLyg8MUIgaaptHW3s7s2XN4+T//4csvZ+L3+9E0LRHK2xVJkpAkCVlWsFot5ObmMmnSZI477ljGHzmBgoI+uJym8DAxMfnhYgqRLgghaGlpZf2G9cz8YibzFyygqrKC9vZ2QqEQQggsFgtutxuv10thUTFjRo9i/PjxjBw1mtTUVNyG1iGM5EMTExOTHyqmENkLQgg0TUNVVXx+P3V1dTQ2NhEKBhEIrFYrSd4kUlJTychIx+lwIMsysiwntBMTExOTHwOmENkPcVPWHiYtSU80jAsMU2iYmJj8WDGFiImJiYnJQWN6fE1MTExMDhpTiJiYmJiYHDSmEDExMTExOWhMIWJiYmJictCYQsTExMTE5KAxhYiJiYmJyUFjChETExMTk4PGFCImJiYmJgeNKURMTExMTA4aU4iYmJiYmBw0phAxMTExMTloTCFiYmJiYnLQmELExMTExOSgMYWIiYmJiclB8/8Btw9n+dHJ7SUAAAAASUVORK5CYII=;" vertex="1" parent="1">
                    <mxGeometry x="625" y="194.38" width="108" height="40.94" as="geometry"/>
                </mxCell>
                <mxCell id="24" value="&lt;b&gt;PostreSQL Database&lt;/b&gt;" style="text;html=1;align=center;verticalAlign=middle;whiteSpace=wrap;rounded=0;" vertex="1" parent="1">
                    <mxGeometry x="864" y="258" width="62.26" height="22" as="geometry"/>
                </mxCell>
            </root>
        </mxGraphModel>
    </diagram>
</mxfile>